<?xml version="1.0" encoding="utf-8" standalone="no"?>
<!DOCTYPE svg PUBLIC "-//W3C//DTD SVG 1.1//EN"
  "http://www.w3.org/Graphics/SVG/1.1/DTD/svg11.dtd">
<!-- Created with matplotlib (http://matplotlib.org/) -->
<svg height="432pt" version="1.1" viewBox="0 0 576 432" width="576pt" xmlns="http://www.w3.org/2000/svg" xmlns:xlink="http://www.w3.org/1999/xlink">
 <defs>
  <style type="text/css">
*{stroke-linecap:butt;stroke-linejoin:round;stroke-miterlimit:100000;}
  </style>
 </defs>
 <g id="figure_1">
  <g id="patch_1">
   <path d="M 0 432 
L 576 432 
L 576 0 
L 0 0 
z
" style="fill:#ffffff;"/>
  </g>
  <g id="axes_1">
   <g id="patch_2">
    <path d="M 72 388.8 
L 518.4 388.8 
L 518.4 43.2 
L 72 43.2 
z
" style="fill:#ffffff;"/>
   </g>
   <g id="line2d_1">
    <path clip-path="url(#pab7c7dcca0)" d="M 72 78.0672 
L 73.74375 388.8 
L 75.4875 291.8784 
L 77.23125 388.8 
L 78.975 263.5392 
L 80.71875 388.8 
L 82.4625 253.9392 
L 84.20625 388.8 
L 85.95 219.7632 
L 87.69375 207.936 
L 89.4375 388.8 
L 91.18125 195.7248 
L 92.925 388.8 
L 94.66875 176.2944 
L 96.4125 388.8 
L 98.15625 162.7776 
L 99.9 388.8 
L 101.64375 161.6256 
L 103.3875 388.8 
L 105.13125 164.4672 
L 106.875 388.8 
L 108.61875 167.9232 
L 110.3625 388.8 
L 112.10625 165.5424 
L 113.85 388.8 
L 115.59375 168.4608 
L 117.3375 168.1536 
L 119.08125 388.8 
L 120.825 166.1568 
L 122.56875 388.8 
L 124.3125 155.0976 
L 126.05625 388.8 
L 127.8 164.6208 
L 129.54375 388.8 
L 131.2875 155.2512 
L 133.03125 388.8 
L 134.775 150.1824 
L 136.51875 388.8 
L 138.2625 140.1216 
L 140.00625 388.8 
L 141.75 141.1968 
L 143.49375 147.648 
L 145.2375 388.8 
L 146.98125 141.6576 
L 148.725 388.8 
L 150.46875 143.8848 
L 152.2125 388.8 
L 153.95625 158.0928 
L 155.7 388.8 
L 157.44375 156.096 
L 159.1875 388.8 
L 160.93125 152.4096 
L 162.675 388.8 
L 164.41875 157.7856 
L 166.1625 388.8 
L 167.90625 174.7584 
L 169.65 388.8 
L 171.39375 171.1488 
L 173.1375 161.472 
L 174.88125 388.8 
L 176.625 161.3184 
L 178.36875 388.8 
L 180.1125 163.008 
L 181.85625 388.8 
L 183.6 165.2352 
L 185.34375 388.8 
L 187.0875 162.3168 
L 188.83125 388.8 
L 190.575 150.1824 
L 192.31875 388.8 
L 194.0625 159.7056 
L 195.80625 388.8 
L 197.55 164.3904 
L 199.29375 154.944 
L 201.0375 388.8 
L 202.78125 157.0944 
L 204.525 388.8 
L 206.26875 178.5216 
L 208.0125 388.8 
L 209.75625 171.7632 
L 211.5 388.8 
L 213.24375 181.44 
L 214.9875 388.8 
L 216.73125 172.3776 
L 218.475 388.8 
L 220.21875 180.672 
L 221.9625 388.8 
L 223.70625 187.7376 
L 225.45 388.8 
L 227.19375 192.2688 
L 228.9375 175.5264 
L 230.68125 388.8 
L 232.425 188.2752 
L 234.16875 388.8 
L 235.9125 185.8176 
L 237.65625 388.8 
L 239.4 189.3504 
L 241.14375 388.8 
L 242.8875 190.5024 
L 244.63125 388.8 
L 246.375 187.4304 
L 248.11875 388.8 
L 249.8625 192.192 
L 251.60625 388.8 
L 253.35 193.8816 
L 255.09375 192.3456 
L 256.8375 388.8 
L 258.58125 194.4192 
L 260.325 388.8 
L 262.06875 195.4944 
L 263.8125 388.8 
L 265.55625 184.512 
L 267.3 388.8 
L 269.04375 185.9712 
L 270.7875 388.8 
L 272.53125 177.1392 
L 274.275 388.8 
L 276.01875 168.6144 
L 277.7625 388.8 
L 279.50625 168.2304 
L 281.25 388.8 
L 282.99375 153.3312 
L 284.7375 165.1584 
L 286.48125 388.8 
L 288.225 157.5552 
L 289.96875 388.8 
L 291.7125 172.7616 
L 293.45625 388.8 
L 295.2 165.3888 
L 296.94375 388.8 
L 298.6875 175.296 
L 300.43125 388.8 
L 302.175 177.984 
L 303.91875 388.8 
L 305.6625 194.7264 
L 307.40625 388.8 
L 309.15 227.7504 
L 310.89375 219.6864 
L 312.6375 388.8 
L 314.38125 236.4288 
L 316.125 388.8 
L 317.86875 246.4128 
L 319.6125 388.8 
L 321.35625 253.9392 
L 323.1 388.8 
L 324.84375 273.6768 
L 326.5875 388.8 
L 328.33125 286.5792 
L 330.075 388.8 
L 331.81875 293.7984 
L 333.5625 388.8 
L 335.30625 300.7872 
L 337.05 309.9264 
L 338.79375 388.8 
L 340.5375 310.848 
L 342.28125 388.8 
L 344.025 321.6768 
L 345.76875 388.8 
L 347.5125 319.296 
L 349.25625 388.8 
L 351 324.3648 
L 352.74375 388.8 
L 354.4875 322.2912 
L 356.23125 388.8 
L 357.975 326.7456 
L 359.71875 388.8 
L 361.4625 323.5968 
L 363.20625 388.8 
L 364.95 327.2832 
L 366.69375 321.984 
L 368.4375 388.8 
L 370.18125 328.0512 
L 371.925 388.8 
L 373.66875 327.2832 
L 375.4125 388.8 
L 377.15625 327.6672 
L 378.9 388.8 
L 380.64375 329.664 
L 382.3875 388.8 
L 384.13125 330.6624 
L 385.875 388.8 
L 387.61875 320.5248 
L 389.3625 388.8 
L 391.10625 324.4416 
L 392.85 322.5216 
L 394.59375 388.8 
L 396.3375 318.6048 
L 398.08125 388.8 
L 399.825 322.1376 
L 401.56875 388.8 
L 403.3125 323.9808 
L 405.05625 388.8 
L 406.8 321.216 
L 408.54375 388.8 
L 410.2875 314.5344 
L 412.03125 388.8 
L 413.775 314.1504 
L 415.51875 388.8 
L 417.2625 324.5184 
L 419.00625 388.8 
L 420.75 317.8368 
L 422.49375 319.6032 
L 424.2375 388.8 
L 425.98125 317.8368 
L 427.725 388.8 
L 429.46875 325.056 
L 431.2125 388.8 
L 432.95625 326.6688 
L 434.7 388.8 
L 436.44375 325.9008 
L 438.1875 388.8 
L 439.93125 319.9104 
L 441.675 388.8 
L 443.41875 327.5904 
L 445.1625 388.8 
L 446.90625 327.2064 
L 448.65 327.5904 
L 450.39375 388.8 
L 452.1375 328.5888 
L 453.88125 388.8 
L 455.625 331.5072 
L 457.36875 388.8 
L 459.1125 333.4272 
L 460.85625 388.8 
L 462.6 333.12 
L 464.34375 388.8 
L 466.0875 337.1136 
L 467.83125 388.8 
L 469.575 337.0368 
L 471.31875 388.8 
L 473.0625 340.4928 
L 474.80625 388.8 
L 476.55 340.1856 
L 478.29375 339.5712 
L 480.0375 388.8 
L 481.78125 340.2624 
L 483.525 388.8 
L 485.26875 338.7264 
L 487.0125 388.8 
L 488.75625 344.256 
L 490.5 388.8 
L 492.24375 342.7968 
L 493.9875 388.8 
L 495.73125 344.64 
L 497.475 388.8 
L 499.21875 344.0256 
L 500.9625 388.8 
L 502.70625 344.256 
L 504.45 349.5552 
L 506.19375 388.8 
L 507.9375 348.48 
L 509.68125 388.8 
L 511.425 352.6272 
L 513.16875 388.8 
L 514.9125 356.4672 
L 516.65625 155.0208 
L 516.65625 155.0208 
" style="fill:none;stroke:#0000ff;stroke-linecap:square;"/>
   </g>
   <g id="line2d_2">
    <path clip-path="url(#pab7c7dcca0)" d="M 72 56.4096 
L 73.74375 388.8 
L 75.4875 306.3168 
L 77.23125 285.12 
L 78.975 275.136 
L 80.71875 259.6992 
L 82.4625 388.8 
L 84.20625 264.3072 
L 85.95 230.2848 
L 87.69375 247.872 
L 89.4375 388.8 
L 91.18125 231.5136 
L 92.925 236.0448 
L 94.66875 242.0352 
L 96.4125 215.3856 
L 98.15625 388.8 
L 99.9 225.2928 
L 101.64375 254.5536 
L 103.3875 252.4032 
L 105.13125 388.8 
L 106.875 246.72 
L 108.61875 259.2384 
L 110.3625 265.536 
L 112.10625 388.8 
L 113.85 261.2352 
L 115.59375 284.736 
L 117.3375 284.352 
L 119.08125 297.4848 
L 120.825 388.8 
L 122.56875 290.6496 
L 124.3125 307.2384 
L 126.05625 309.9264 
L 127.8 388.8 
L 129.54375 308.0064 
L 131.2875 305.5488 
L 133.03125 311.0016 
L 134.775 388.8 
L 136.51875 310.0032 
L 138.2625 318.528 
L 140.00625 317.6832 
L 141.75 309.7728 
L 143.49375 388.8 
L 145.2375 311.0016 
L 146.98125 310.2336 
L 148.725 321.6 
L 150.46875 388.8 
L 152.2125 303.552 
L 153.95625 307.6224 
L 155.7 322.5984 
L 157.44375 302.784 
L 159.1875 388.8 
L 160.93125 317.6064 
L 162.675 306.3936 
L 164.41875 306.7008 
L 166.1625 388.8 
L 167.90625 311.6928 
L 169.65 290.88 
L 171.39375 290.9568 
L 173.1375 388.8 
L 174.88125 302.0928 
L 176.625 291.5712 
L 178.36875 273.984 
L 180.1125 269.9136 
L 181.85625 388.8 
L 183.6 266.6112 
L 185.34375 231.6672 
L 187.0875 257.7792 
L 188.83125 388.8 
L 190.575 235.3536 
L 192.31875 257.9328 
L 194.0625 233.5104 
L 195.80625 388.8 
L 197.55 257.856 
L 199.29375 250.56 
L 201.0375 260.2368 
L 202.78125 253.1712 
L 204.525 388.8 
L 206.26875 266.4576 
L 208.0125 257.3952 
L 209.75625 275.5968 
L 211.5 388.8 
L 213.24375 274.2912 
L 214.9875 268.5312 
L 216.73125 276.9792 
L 218.475 277.824 
L 220.21875 388.8 
L 221.9625 271.7568 
L 223.70625 283.5072 
L 225.45 270.144 
L 227.19375 388.8 
L 228.9375 290.6496 
L 230.68125 265.4592 
L 232.425 284.0448 
L 234.16875 388.8 
L 235.9125 275.52 
L 237.65625 272.6016 
L 239.4 270.7584 
L 241.14375 249.5616 
L 242.8875 388.8 
L 244.63125 245.7216 
L 246.375 259.6992 
L 248.11875 244.032 
L 249.8625 388.8 
L 251.60625 222.144 
L 253.35 242.3424 
L 255.09375 234.5856 
L 256.8375 388.8 
L 258.58125 239.1936 
L 260.325 210.24 
L 262.06875 227.9808 
L 263.8125 257.2416 
L 265.55625 388.8 
L 267.3 228.7488 
L 269.04375 260.544 
L 270.7875 249.7152 
L 272.53125 388.8 
L 274.275 256.704 
L 276.01875 254.9376 
L 277.7625 265.6896 
L 279.50625 388.8 
L 281.25 258.7776 
L 282.99375 282.3552 
L 286.48125 262.9248 
L 288.225 388.8 
L 289.96875 270.3744 
L 291.7125 266.8416 
L 293.45625 270.528 
L 295.2 388.8 
L 296.94375 251.7888 
L 298.6875 254.3232 
L 300.43125 279.36 
L 302.175 247.7952 
L 303.91875 388.8 
L 305.6625 265.6128 
L 307.40625 268.608 
L 309.15 267.3792 
L 310.89375 388.8 
L 312.6375 273.0624 
L 314.38125 253.4784 
L 316.125 252.9408 
L 317.86875 388.8 
L 319.6125 277.5936 
L 323.1 245.0304 
L 324.84375 241.8048 
L 326.5875 388.8 
L 328.33125 247.1808 
L 330.075 227.2896 
L 331.81875 240.96 
L 333.5625 388.8 
L 335.30625 233.4336 
L 337.05 249.7152 
L 338.79375 219.3792 
L 340.5375 388.8 
L 342.28125 242.3424 
L 345.76875 233.2032 
L 347.5125 227.8272 
L 349.25625 388.8 
L 351 232.7424 
L 352.74375 232.9728 
L 354.4875 255.936 
L 356.23125 388.8 
L 357.975 265.3824 
L 359.71875 260.8512 
L 361.4625 277.1328 
L 363.20625 285.8112 
L 364.95 388.8 
L 366.69375 284.8128 
L 368.4375 293.0304 
L 370.18125 295.6416 
L 371.925 388.8 
L 373.66875 316.4544 
L 375.4125 300.3264 
L 377.15625 317.2992 
L 378.9 388.8 
L 380.64375 305.856 
L 382.3875 313.4592 
L 384.13125 319.3728 
L 385.875 311.5392 
L 387.61875 388.8 
L 389.3625 311.7696 
L 391.10625 326.2848 
L 392.85 328.9728 
L 394.59375 388.8 
L 396.3375 323.6736 
L 398.08125 326.0544 
L 399.825 330.7392 
L 401.56875 388.8 
L 403.3125 325.2096 
L 405.05625 335.808 
L 406.8 335.3472 
L 408.54375 344.3328 
L 410.2875 388.8 
L 412.03125 341.0304 
L 413.775 349.3248 
L 415.51875 348.2496 
L 417.2625 388.8 
L 419.00625 350.4768 
L 420.75 349.9392 
L 422.49375 354.24 
L 424.2375 388.8 
L 425.98125 350.0928 
L 427.725 357.0048 
L 429.46875 351.7056 
L 431.2125 350.0928 
L 432.95625 388.8 
L 434.7 352.4736 
L 436.44375 352.3968 
L 438.1875 354.0864 
L 439.93125 388.8 
L 441.675 341.1072 
L 443.41875 343.7184 
L 445.1625 349.4784 
L 446.90625 341.8752 
L 448.65 388.8 
L 450.39375 338.7264 
L 452.1375 333.2736 
L 453.88125 339.264 
L 455.625 388.8 
L 457.36875 338.4192 
L 459.1125 323.52 
L 460.85625 329.1264 
L 462.6 388.8 
L 464.34375 333.504 
L 466.0875 333.5808 
L 467.83125 326.4384 
L 469.575 331.8912 
L 471.31875 388.8 
L 473.0625 339.1872 
L 474.80625 334.8096 
L 476.55 329.0496 
L 478.29375 388.8 
L 480.0375 329.8944 
L 481.78125 341.8752 
L 483.525 327.36 
L 485.26875 388.8 
L 487.0125 335.1168 
L 488.75625 327.744 
L 490.5 328.8192 
L 492.24375 325.056 
L 493.9875 388.8 
L 495.73125 326.1312 
L 497.475 318.7584 
L 499.21875 324.0576 
L 500.9625 388.8 
L 502.70625 323.4432 
L 504.45 323.7504 
L 506.19375 328.2816 
L 507.9375 336.0384 
L 509.68125 388.8 
L 511.425 335.04 
L 513.16875 344.7936 
L 514.9125 350.4768 
L 516.65625 167.9232 
L 516.65625 167.9232 
" style="fill:none;stroke:#008000;stroke-linecap:square;"/>
   </g>
   <g id="line2d_3">
    <path clip-path="url(#pab7c7dcca0)" d="M 72 112.5504 
L 73.74375 340.5696 
L 75.4875 388.8 
L 77.23125 329.5872 
L 78.975 328.512 
L 80.71875 388.8 
L 82.4625 311.9232 
L 84.20625 310.7712 
L 85.95 388.8 
L 87.69375 298.4064 
L 89.4375 291.3408 
L 91.18125 388.8 
L 92.925 286.5024 
L 94.66875 388.8 
L 96.4125 277.7472 
L 98.15625 274.5984 
L 99.9 388.8 
L 101.64375 276.9024 
L 103.3875 267.9168 
L 105.13125 388.8 
L 106.875 267.072 
L 108.61875 266.6112 
L 110.3625 388.8 
L 112.10625 269.2224 
L 113.85 268.3008 
L 115.59375 388.8 
L 117.3375 261.312 
L 119.08125 262.2336 
L 120.825 388.8 
L 122.56875 279.744 
L 124.3125 269.0688 
L 126.05625 388.8 
L 127.8 279.8976 
L 129.54375 282.5088 
L 131.2875 388.8 
L 133.03125 287.5008 
L 134.775 388.8 
L 136.51875 285.7344 
L 138.2625 300.0192 
L 140.00625 388.8 
L 141.75 302.784 
L 143.49375 315.456 
L 145.2375 388.8 
L 146.98125 314.3808 
L 148.725 325.2096 
L 150.46875 388.8 
L 152.2125 328.7424 
L 153.95625 331.0464 
L 155.7 388.8 
L 157.44375 332.1984 
L 159.1875 333.5808 
L 160.93125 388.8 
L 162.675 335.04 
L 164.41875 340.5696 
L 166.1625 388.8 
L 167.90625 337.1136 
L 169.65 343.7184 
L 171.39375 388.8 
L 173.1375 341.4144 
L 174.88125 388.8 
L 176.625 341.952 
L 178.36875 343.3344 
L 180.1125 388.8 
L 181.85625 346.0224 
L 183.6 343.2576 
L 185.34375 388.8 
L 187.0875 346.4064 
L 188.83125 345.3312 
L 190.575 388.8 
L 192.31875 344.1024 
L 194.0625 345.8688 
L 195.80625 388.8 
L 197.55 344.9472 
L 199.29375 348.864 
L 201.0375 388.8 
L 202.78125 337.8048 
L 204.525 338.88 
L 206.26875 388.8 
L 208.0125 341.3376 
L 209.75625 332.736 
L 211.5 388.8 
L 213.24375 343.1808 
L 214.9875 337.5744 
L 216.73125 388.8 
L 218.475 336.96 
L 220.21875 388.8 
L 221.9625 336.192 
L 223.70625 329.5872 
L 225.45 388.8 
L 227.19375 333.888 
L 228.9375 337.5744 
L 230.68125 388.8 
L 232.425 331.968 
L 234.16875 331.6608 
L 235.9125 388.8 
L 237.65625 329.9712 
L 239.4 330.048 
L 241.14375 388.8 
L 242.8875 329.5104 
L 244.63125 326.0544 
L 246.375 388.8 
L 248.11875 326.0544 
L 249.8625 331.6608 
L 251.60625 388.8 
L 253.35 326.8992 
L 255.09375 330.432 
L 256.8375 388.8 
L 258.58125 329.1264 
L 260.325 388.8 
L 262.06875 326.4384 
L 263.8125 327.5904 
L 265.55625 388.8 
L 267.3 327.4368 
L 269.04375 322.6752 
L 270.7875 388.8 
L 272.53125 326.2848 
L 274.275 318.912 
L 276.01875 388.8 
L 277.7625 319.1424 
L 279.50625 318.2976 
L 281.25 388.8 
L 282.99375 320.6016 
L 284.7375 311.1552 
L 286.48125 388.8 
L 288.225 321.2928 
L 289.96875 312.3072 
L 291.7125 388.8 
L 293.45625 318.7584 
L 295.2 315.6864 
L 296.94375 388.8 
L 298.6875 320.9088 
L 300.43125 306.3168 
L 302.175 388.8 
L 303.91875 313.7664 
L 305.6625 388.8 
L 307.40625 306.3936 
L 309.15 308.928 
L 310.89375 388.8 
L 312.6375 295.4112 
L 314.38125 292.8 
L 316.125 388.8 
L 317.86875 281.0496 
L 319.6125 270.9888 
L 321.35625 388.8 
L 323.1 262.9248 
L 324.84375 259.6224 
L 326.5875 388.8 
L 328.33125 252.4032 
L 330.075 244.8768 
L 331.81875 388.8 
L 333.5625 252.9408 
L 335.30625 267.3024 
L 337.05 388.8 
L 338.79375 254.9376 
L 340.5375 278.1312 
L 342.28125 388.8 
L 344.025 275.3664 
L 345.76875 388.8 
L 347.5125 274.9056 
L 349.25625 280.5888 
L 351 388.8 
L 352.74375 278.4384 
L 354.4875 277.5168 
L 356.23125 388.8 
L 357.975 282.1248 
L 359.71875 275.2128 
L 361.4625 388.8 
L 363.20625 266.5344 
L 364.95 261.696 
L 366.69375 388.8 
L 368.4375 261.5424 
L 370.18125 260.8512 
L 371.925 388.8 
L 373.66875 246.1824 
L 375.4125 243.1872 
L 377.15625 388.8 
L 378.9 249.5616 
L 380.64375 236.8128 
L 382.3875 388.8 
L 384.13125 249.4848 
L 385.875 238.5792 
L 387.61875 388.8 
L 389.3625 240.7296 
L 391.10625 388.8 
L 392.85 230.976 
L 394.59375 234.2784 
L 396.3375 388.8 
L 398.08125 211.9296 
L 399.825 209.6256 
L 401.56875 388.8 
L 403.3125 183.744 
L 405.05625 174.7584 
L 406.8 388.8 
L 408.54375 140.5824 
L 410.2875 146.5728 
L 412.03125 388.8 
L 413.775 121.8432 
L 415.51875 125.8368 
L 417.2625 388.8 
L 419.00625 118.7712 
L 420.75 150.5664 
L 422.49375 388.8 
L 424.2375 144.8832 
L 425.98125 174.7584 
L 427.725 388.8 
L 429.46875 167.232 
L 431.2125 388.8 
L 432.95625 186.816 
L 434.7 179.0592 
L 436.44375 388.8 
L 438.1875 184.2048 
L 439.93125 161.856 
L 441.675 388.8 
L 443.41875 161.856 
L 445.1625 130.752 
L 446.90625 388.8 
L 448.65 115.8528 
L 450.39375 71.0016 
L 452.1375 388.8 
L 453.88125 82.5984 
L 455.625 77.2224 
L 457.36875 388.8 
L 459.1125 56.4864 
L 460.85625 103.6416 
L 462.6 388.8 
L 464.34375 144.192 
L 466.0875 163.8528 
L 467.83125 388.8 
L 469.575 192.8832 
L 471.31875 202.0224 
L 473.0625 388.8 
L 474.80625 220.224 
L 476.55 388.8 
L 478.29375 215.5392 
L 480.0375 238.272 
L 481.78125 388.8 
L 483.525 225.5232 
L 485.26875 220.9152 
L 487.0125 388.8 
L 488.75625 214.848 
L 490.5 203.1744 
L 492.24375 388.8 
L 493.9875 201.024 
L 495.73125 213.5424 
L 497.475 388.8 
L 499.21875 248.5632 
L 500.9625 237.3504 
L 502.70625 388.8 
L 504.45 276.9792 
L 506.19375 301.4784 
L 507.9375 388.8 
L 509.68125 313.0752 
L 511.425 331.3536 
L 513.16875 388.8 
L 514.9125 331.2768 
L 516.65625 139.3536 
L 516.65625 139.3536 
" style="fill:none;stroke:#ff0000;stroke-linecap:square;"/>
   </g>
   <g id="patch_3">
    <path d="M 72 43.2 
L 518.4 43.2 
" style="fill:none;stroke:#000000;stroke-linecap:square;stroke-linejoin:miter;"/>
   </g>
   <g id="patch_4">
    <path d="M 518.4 388.8 
L 518.4 43.2 
" style="fill:none;stroke:#000000;stroke-linecap:square;stroke-linejoin:miter;"/>
   </g>
   <g id="patch_5">
    <path d="M 72 388.8 
L 518.4 388.8 
" style="fill:none;stroke:#000000;stroke-linecap:square;stroke-linejoin:miter;"/>
   </g>
   <g id="patch_6">
    <path d="M 72 388.8 
L 72 43.2 
" style="fill:none;stroke:#000000;stroke-linecap:square;stroke-linejoin:miter;"/>
   </g>
   <g id="matplotlib.axis_1">
    <g id="xtick_1">
     <g id="line2d_4">
      <defs>
       <path d="M 0 0 
L 0 -4 
" id="m2bd60a38e3" style="stroke:#000000;stroke-width:0.5;"/>
      </defs>
      <g>
       <use style="stroke:#000000;stroke-width:0.5;" x="72.0" xlink:href="#m2bd60a38e3" y="388.8"/>
      </g>
     </g>
     <g id="line2d_5">
      <defs>
       <path d="M 0 0 
L 0 4 
" id="m243279c268" style="stroke:#000000;stroke-width:0.5;"/>
      </defs>
      <g>
       <use style="stroke:#000000;stroke-width:0.5;" x="72.0" xlink:href="#m243279c268" y="43.19999999999999"/>
      </g>
     </g>
     <g id="text_1">
      <!-- 0 -->
      <defs>
       <path d="M 31.78125 66.40625 
Q 24.171875 66.40625 20.328125 58.90625 
Q 16.5 51.421875 16.5 36.375 
Q 16.5 21.390625 20.328125 13.890625 
Q 24.171875 6.390625 31.78125 6.390625 
Q 39.453125 6.390625 43.28125 13.890625 
Q 47.125 21.390625 47.125 36.375 
Q 47.125 51.421875 43.28125 58.90625 
Q 39.453125 66.40625 31.78125 66.40625 
M 31.78125 74.21875 
Q 44.046875 74.21875 50.515625 64.515625 
Q 56.984375 54.828125 56.984375 36.375 
Q 56.984375 17.96875 50.515625 8.265625 
Q 44.046875 -1.421875 31.78125 -1.421875 
Q 19.53125 -1.421875 13.0625 8.265625 
Q 6.59375 17.96875 6.59375 36.375 
Q 6.59375 54.828125 13.0625 64.515625 
Q 19.53125 74.21875 31.78125 74.21875 
" id="BitstreamVeraSans-Roman-30"/>
      </defs>
      <g transform="translate(68.1825 401.91812500000003)scale(0.12 -0.12)">
       <use xlink:href="#BitstreamVeraSans-Roman-30"/>
      </g>
     </g>
    </g>
    <g id="xtick_2">
     <g id="line2d_6">
      <g>
       <use style="stroke:#000000;stroke-width:0.5;" x="159.1875" xlink:href="#m2bd60a38e3" y="388.8"/>
      </g>
     </g>
     <g id="line2d_7">
      <g>
       <use style="stroke:#000000;stroke-width:0.5;" x="159.1875" xlink:href="#m243279c268" y="43.19999999999999"/>
      </g>
     </g>
     <g id="text_2">
      <!-- 50 -->
      <defs>
       <path d="M 10.796875 72.90625 
L 49.515625 72.90625 
L 49.515625 64.59375 
L 19.828125 64.59375 
L 19.828125 46.734375 
Q 21.96875 47.46875 24.109375 47.828125 
Q 26.265625 48.1875 28.421875 48.1875 
Q 40.625 48.1875 47.75 41.5 
Q 54.890625 34.8125 54.890625 23.390625 
Q 54.890625 11.625 47.5625 5.09375 
Q 40.234375 -1.421875 26.90625 -1.421875 
Q 22.3125 -1.421875 17.546875 -0.640625 
Q 12.796875 0.140625 7.71875 1.703125 
L 7.71875 11.625 
Q 12.109375 9.234375 16.796875 8.0625 
Q 21.484375 6.890625 26.703125 6.890625 
Q 35.15625 6.890625 40.078125 11.328125 
Q 45.015625 15.765625 45.015625 23.390625 
Q 45.015625 31 40.078125 35.4375 
Q 35.15625 39.890625 26.703125 39.890625 
Q 22.75 39.890625 18.8125 39.015625 
Q 14.890625 38.140625 10.796875 36.28125 
z
" id="BitstreamVeraSans-Roman-35"/>
      </defs>
      <g transform="translate(151.5525 401.91812500000003)scale(0.12 -0.12)">
       <use xlink:href="#BitstreamVeraSans-Roman-35"/>
       <use x="63.623046875" xlink:href="#BitstreamVeraSans-Roman-30"/>
      </g>
     </g>
    </g>
    <g id="xtick_3">
     <g id="line2d_8">
      <g>
       <use style="stroke:#000000;stroke-width:0.5;" x="246.375" xlink:href="#m2bd60a38e3" y="388.8"/>
      </g>
     </g>
     <g id="line2d_9">
      <g>
       <use style="stroke:#000000;stroke-width:0.5;" x="246.375" xlink:href="#m243279c268" y="43.19999999999999"/>
      </g>
     </g>
     <g id="text_3">
      <!-- 100 -->
      <defs>
       <path d="M 12.40625 8.296875 
L 28.515625 8.296875 
L 28.515625 63.921875 
L 10.984375 60.40625 
L 10.984375 69.390625 
L 28.421875 72.90625 
L 38.28125 72.90625 
L 38.28125 8.296875 
L 54.390625 8.296875 
L 54.390625 0 
L 12.40625 0 
z
" id="BitstreamVeraSans-Roman-31"/>
      </defs>
      <g transform="translate(234.9225 401.91812500000003)scale(0.12 -0.12)">
       <use xlink:href="#BitstreamVeraSans-Roman-31"/>
       <use x="63.623046875" xlink:href="#BitstreamVeraSans-Roman-30"/>
       <use x="127.24609375" xlink:href="#BitstreamVeraSans-Roman-30"/>
      </g>
     </g>
    </g>
    <g id="xtick_4">
     <g id="line2d_10">
      <g>
       <use style="stroke:#000000;stroke-width:0.5;" x="333.5625" xlink:href="#m2bd60a38e3" y="388.8"/>
      </g>
     </g>
     <g id="line2d_11">
      <g>
       <use style="stroke:#000000;stroke-width:0.5;" x="333.5625" xlink:href="#m243279c268" y="43.19999999999999"/>
      </g>
     </g>
     <g id="text_4">
      <!-- 150 -->
      <g transform="translate(322.11 401.91812500000003)scale(0.12 -0.12)">
       <use xlink:href="#BitstreamVeraSans-Roman-31"/>
       <use x="63.623046875" xlink:href="#BitstreamVeraSans-Roman-35"/>
       <use x="127.24609375" xlink:href="#BitstreamVeraSans-Roman-30"/>
      </g>
     </g>
    </g>
    <g id="xtick_5">
     <g id="line2d_12">
      <g>
       <use style="stroke:#000000;stroke-width:0.5;" x="420.75" xlink:href="#m2bd60a38e3" y="388.8"/>
      </g>
     </g>
     <g id="line2d_13">
      <g>
       <use style="stroke:#000000;stroke-width:0.5;" x="420.75" xlink:href="#m243279c268" y="43.19999999999999"/>
      </g>
     </g>
     <g id="text_5">
      <!-- 200 -->
      <defs>
       <path d="M 19.1875 8.296875 
L 53.609375 8.296875 
L 53.609375 0 
L 7.328125 0 
L 7.328125 8.296875 
Q 12.9375 14.109375 22.625 23.890625 
Q 32.328125 33.6875 34.8125 36.53125 
Q 39.546875 41.84375 41.421875 45.53125 
Q 43.3125 49.21875 43.3125 52.78125 
Q 43.3125 58.59375 39.234375 62.25 
Q 35.15625 65.921875 28.609375 65.921875 
Q 23.96875 65.921875 18.8125 64.3125 
Q 13.671875 62.703125 7.8125 59.421875 
L 7.8125 69.390625 
Q 13.765625 71.78125 18.9375 73 
Q 24.125 74.21875 28.421875 74.21875 
Q 39.75 74.21875 46.484375 68.546875 
Q 53.21875 62.890625 53.21875 53.421875 
Q 53.21875 48.921875 51.53125 44.890625 
Q 49.859375 40.875 45.40625 35.40625 
Q 44.1875 33.984375 37.640625 27.21875 
Q 31.109375 20.453125 19.1875 8.296875 
" id="BitstreamVeraSans-Roman-32"/>
      </defs>
      <g transform="translate(409.2975 401.91812500000003)scale(0.12 -0.12)">
       <use xlink:href="#BitstreamVeraSans-Roman-32"/>
       <use x="63.623046875" xlink:href="#BitstreamVeraSans-Roman-30"/>
       <use x="127.24609375" xlink:href="#BitstreamVeraSans-Roman-30"/>
      </g>
     </g>
    </g>
    <g id="xtick_6">
     <g id="line2d_14">
      <g>
       <use style="stroke:#000000;stroke-width:0.5;" x="507.9375" xlink:href="#m2bd60a38e3" y="388.8"/>
      </g>
     </g>
     <g id="line2d_15">
      <g>
       <use style="stroke:#000000;stroke-width:0.5;" x="507.9375" xlink:href="#m243279c268" y="43.19999999999999"/>
      </g>
     </g>
     <g id="text_6">
      <!-- 250 -->
      <g transform="translate(496.485 401.91812500000003)scale(0.12 -0.12)">
       <use xlink:href="#BitstreamVeraSans-Roman-32"/>
       <use x="63.623046875" xlink:href="#BitstreamVeraSans-Roman-35"/>
       <use x="127.24609375" xlink:href="#BitstreamVeraSans-Roman-30"/>
      </g>
     </g>
    </g>
   </g>
   <g id="matplotlib.axis_2">
    <g id="ytick_1">
     <g id="line2d_16">
      <defs>
       <path d="M 0 0 
L 4 0 
" id="m9dc8dc1c71" style="stroke:#000000;stroke-width:0.5;"/>
      </defs>
      <g>
       <use style="stroke:#000000;stroke-width:0.5;" x="72.0" xlink:href="#m9dc8dc1c71" y="388.8"/>
      </g>
     </g>
     <g id="line2d_17">
      <defs>
       <path d="M 0 0 
L -4 0 
" id="m2705b3b5dc" style="stroke:#000000;stroke-width:0.5;"/>
      </defs>
      <g>
       <use style="stroke:#000000;stroke-width:0.5;" x="518.4" xlink:href="#m2705b3b5dc" y="388.8"/>
      </g>
     </g>
     <g id="text_7">
      <!-- 0 -->
      <g transform="translate(60.365 392.11125000000004)scale(0.12 -0.12)">
       <use xlink:href="#BitstreamVeraSans-Roman-30"/>
      </g>
     </g>
    </g>
    <g id="ytick_2">
     <g id="line2d_18">
      <g>
       <use style="stroke:#000000;stroke-width:0.5;" x="72.0" xlink:href="#m9dc8dc1c71" y="350.4"/>
      </g>
     </g>
     <g id="line2d_19">
      <g>
       <use style="stroke:#000000;stroke-width:0.5;" x="518.4" xlink:href="#m2705b3b5dc" y="350.4"/>
      </g>
     </g>
     <g id="text_8">
      <!-- 500 -->
      <g transform="translate(45.095 353.71125)scale(0.12 -0.12)">
       <use xlink:href="#BitstreamVeraSans-Roman-35"/>
       <use x="63.623046875" xlink:href="#BitstreamVeraSans-Roman-30"/>
       <use x="127.24609375" xlink:href="#BitstreamVeraSans-Roman-30"/>
      </g>
     </g>
    </g>
    <g id="ytick_3">
     <g id="line2d_20">
      <g>
       <use style="stroke:#000000;stroke-width:0.5;" x="72.0" xlink:href="#m9dc8dc1c71" y="312.0"/>
      </g>
     </g>
     <g id="line2d_21">
      <g>
       <use style="stroke:#000000;stroke-width:0.5;" x="518.4" xlink:href="#m2705b3b5dc" y="312.0"/>
      </g>
     </g>
     <g id="text_9">
      <!-- 1000 -->
      <g transform="translate(37.46 315.31125)scale(0.12 -0.12)">
       <use xlink:href="#BitstreamVeraSans-Roman-31"/>
       <use x="63.623046875" xlink:href="#BitstreamVeraSans-Roman-30"/>
       <use x="127.24609375" xlink:href="#BitstreamVeraSans-Roman-30"/>
       <use x="190.869140625" xlink:href="#BitstreamVeraSans-Roman-30"/>
      </g>
     </g>
    </g>
    <g id="ytick_4">
     <g id="line2d_22">
      <g>
       <use style="stroke:#000000;stroke-width:0.5;" x="72.0" xlink:href="#m9dc8dc1c71" y="273.6"/>
      </g>
     </g>
     <g id="line2d_23">
      <g>
       <use style="stroke:#000000;stroke-width:0.5;" x="518.4" xlink:href="#m2705b3b5dc" y="273.6"/>
      </g>
     </g>
     <g id="text_10">
      <!-- 1500 -->
      <g transform="translate(37.46 276.91125)scale(0.12 -0.12)">
       <use xlink:href="#BitstreamVeraSans-Roman-31"/>
       <use x="63.623046875" xlink:href="#BitstreamVeraSans-Roman-35"/>
       <use x="127.24609375" xlink:href="#BitstreamVeraSans-Roman-30"/>
       <use x="190.869140625" xlink:href="#BitstreamVeraSans-Roman-30"/>
      </g>
     </g>
    </g>
    <g id="ytick_5">
     <g id="line2d_24">
      <g>
       <use style="stroke:#000000;stroke-width:0.5;" x="72.0" xlink:href="#m9dc8dc1c71" y="235.2"/>
      </g>
     </g>
     <g id="line2d_25">
      <g>
       <use style="stroke:#000000;stroke-width:0.5;" x="518.4" xlink:href="#m2705b3b5dc" y="235.2"/>
      </g>
     </g>
     <g id="text_11">
      <!-- 2000 -->
      <g transform="translate(37.46 238.51125)scale(0.12 -0.12)">
       <use xlink:href="#BitstreamVeraSans-Roman-32"/>
       <use x="63.623046875" xlink:href="#BitstreamVeraSans-Roman-30"/>
       <use x="127.24609375" xlink:href="#BitstreamVeraSans-Roman-30"/>
       <use x="190.869140625" xlink:href="#BitstreamVeraSans-Roman-30"/>
      </g>
     </g>
    </g>
    <g id="ytick_6">
     <g id="line2d_26">
      <g>
       <use style="stroke:#000000;stroke-width:0.5;" x="72.0" xlink:href="#m9dc8dc1c71" y="196.79999999999998"/>
      </g>
     </g>
     <g id="line2d_27">
      <g>
       <use style="stroke:#000000;stroke-width:0.5;" x="518.4" xlink:href="#m2705b3b5dc" y="196.79999999999998"/>
      </g>
     </g>
     <g id="text_12">
      <!-- 2500 -->
      <g transform="translate(37.46 200.11124999999998)scale(0.12 -0.12)">
       <use xlink:href="#BitstreamVeraSans-Roman-32"/>
       <use x="63.623046875" xlink:href="#BitstreamVeraSans-Roman-35"/>
       <use x="127.24609375" xlink:href="#BitstreamVeraSans-Roman-30"/>
       <use x="190.869140625" xlink:href="#BitstreamVeraSans-Roman-30"/>
      </g>
     </g>
    </g>
    <g id="ytick_7">
     <g id="line2d_28">
      <g>
       <use style="stroke:#000000;stroke-width:0.5;" x="72.0" xlink:href="#m9dc8dc1c71" y="158.39999999999998"/>
      </g>
     </g>
     <g id="line2d_29">
      <g>
       <use style="stroke:#000000;stroke-width:0.5;" x="518.4" xlink:href="#m2705b3b5dc" y="158.39999999999998"/>
      </g>
     </g>
     <g id="text_13">
      <!-- 3000 -->
      <defs>
       <path d="M 40.578125 39.3125 
Q 47.65625 37.796875 51.625 33 
Q 55.609375 28.21875 55.609375 21.1875 
Q 55.609375 10.40625 48.1875 4.484375 
Q 40.765625 -1.421875 27.09375 -1.421875 
Q 22.515625 -1.421875 17.65625 -0.515625 
Q 12.796875 0.390625 7.625 2.203125 
L 7.625 11.71875 
Q 11.71875 9.328125 16.59375 8.109375 
Q 21.484375 6.890625 26.8125 6.890625 
Q 36.078125 6.890625 40.9375 10.546875 
Q 45.796875 14.203125 45.796875 21.1875 
Q 45.796875 27.640625 41.28125 31.265625 
Q 36.765625 34.90625 28.71875 34.90625 
L 20.21875 34.90625 
L 20.21875 43.015625 
L 29.109375 43.015625 
Q 36.375 43.015625 40.234375 45.921875 
Q 44.09375 48.828125 44.09375 54.296875 
Q 44.09375 59.90625 40.109375 62.90625 
Q 36.140625 65.921875 28.71875 65.921875 
Q 24.65625 65.921875 20.015625 65.03125 
Q 15.375 64.15625 9.8125 62.3125 
L 9.8125 71.09375 
Q 15.4375 72.65625 20.34375 73.4375 
Q 25.25 74.21875 29.59375 74.21875 
Q 40.828125 74.21875 47.359375 69.109375 
Q 53.90625 64.015625 53.90625 55.328125 
Q 53.90625 49.265625 50.4375 45.09375 
Q 46.96875 40.921875 40.578125 39.3125 
" id="BitstreamVeraSans-Roman-33"/>
      </defs>
      <g transform="translate(37.46 161.71124999999995)scale(0.12 -0.12)">
       <use xlink:href="#BitstreamVeraSans-Roman-33"/>
       <use x="63.623046875" xlink:href="#BitstreamVeraSans-Roman-30"/>
       <use x="127.24609375" xlink:href="#BitstreamVeraSans-Roman-30"/>
       <use x="190.869140625" xlink:href="#BitstreamVeraSans-Roman-30"/>
      </g>
     </g>
    </g>
    <g id="ytick_8">
     <g id="line2d_30">
      <g>
       <use style="stroke:#000000;stroke-width:0.5;" x="72.0" xlink:href="#m9dc8dc1c71" y="120.0"/>
      </g>
     </g>
     <g id="line2d_31">
      <g>
       <use style="stroke:#000000;stroke-width:0.5;" x="518.4" xlink:href="#m2705b3b5dc" y="120.0"/>
      </g>
     </g>
     <g id="text_14">
      <!-- 3500 -->
      <g transform="translate(37.46 123.31124999999997)scale(0.12 -0.12)">
       <use xlink:href="#BitstreamVeraSans-Roman-33"/>
       <use x="63.623046875" xlink:href="#BitstreamVeraSans-Roman-35"/>
       <use x="127.24609375" xlink:href="#BitstreamVeraSans-Roman-30"/>
       <use x="190.869140625" xlink:href="#BitstreamVeraSans-Roman-30"/>
      </g>
     </g>
    </g>
    <g id="ytick_9">
     <g id="line2d_32">
      <g>
       <use style="stroke:#000000;stroke-width:0.5;" x="72.0" xlink:href="#m9dc8dc1c71" y="81.59999999999997"/>
      </g>
     </g>
     <g id="line2d_33">
      <g>
       <use style="stroke:#000000;stroke-width:0.5;" x="518.4" xlink:href="#m2705b3b5dc" y="81.59999999999997"/>
      </g>
     </g>
     <g id="text_15">
      <!-- 4000 -->
      <defs>
       <path d="M 37.796875 64.3125 
L 12.890625 25.390625 
L 37.796875 25.390625 
z
M 35.203125 72.90625 
L 47.609375 72.90625 
L 47.609375 25.390625 
L 58.015625 25.390625 
L 58.015625 17.1875 
L 47.609375 17.1875 
L 47.609375 0 
L 37.796875 0 
L 37.796875 17.1875 
L 4.890625 17.1875 
L 4.890625 26.703125 
z
" id="BitstreamVeraSans-Roman-34"/>
      </defs>
      <g transform="translate(37.46 84.91124999999994)scale(0.12 -0.12)">
       <use xlink:href="#BitstreamVeraSans-Roman-34"/>
       <use x="63.623046875" xlink:href="#BitstreamVeraSans-Roman-30"/>
       <use x="127.24609375" xlink:href="#BitstreamVeraSans-Roman-30"/>
       <use x="190.869140625" xlink:href="#BitstreamVeraSans-Roman-30"/>
      </g>
     </g>
    </g>
    <g id="ytick_10">
     <g id="line2d_34">
      <g>
       <use style="stroke:#000000;stroke-width:0.5;" x="72.0" xlink:href="#m9dc8dc1c71" y="43.19999999999999"/>
      </g>
     </g>
     <g id="line2d_35">
      <g>
       <use style="stroke:#000000;stroke-width:0.5;" x="518.4" xlink:href="#m2705b3b5dc" y="43.19999999999999"/>
      </g>
     </g>
     <g id="text_16">
      <!-- 4500 -->
      <g transform="translate(37.46 46.51124999999996)scale(0.12 -0.12)">
       <use xlink:href="#BitstreamVeraSans-Roman-34"/>
       <use x="63.623046875" xlink:href="#BitstreamVeraSans-Roman-35"/>
       <use x="127.24609375" xlink:href="#BitstreamVeraSans-Roman-30"/>
       <use x="190.869140625" xlink:href="#BitstreamVeraSans-Roman-30"/>
      </g>
     </g>
    </g>
   </g>
  </g>
 </g>
 <defs>
  <clipPath id="pab7c7dcca0">
   <rect height="345.6" width="446.4" x="72.0" y="43.19999999999999"/>
  </clipPath>
 </defs>
</svg>
