<?xml version="1.0" encoding="utf-8" standalone="no"?>
<!DOCTYPE svg PUBLIC "-//W3C//DTD SVG 1.1//EN"
  "http://www.w3.org/Graphics/SVG/1.1/DTD/svg11.dtd">
<!-- Created with matplotlib (http://matplotlib.org/) -->
<svg height="432pt" version="1.1" viewBox="0 0 576 432" width="576pt" xmlns="http://www.w3.org/2000/svg" xmlns:xlink="http://www.w3.org/1999/xlink">
 <defs>
  <style type="text/css">
*{stroke-linecap:butt;stroke-linejoin:round;stroke-miterlimit:100000;}
  </style>
 </defs>
 <g id="figure_1">
  <g id="patch_1">
   <path d="M 0 432 
L 576 432 
L 576 0 
L 0 0 
z
" style="fill:#ffffff;"/>
  </g>
  <g id="axes_1">
   <g id="patch_2">
    <path d="M 72 388.8 
L 518.4 388.8 
L 518.4 43.2 
L 72 43.2 
z
" style="fill:#ffffff;"/>
   </g>
   <g id="line2d_1">
    <path clip-path="url(#p3c51d13ea6)" d="M 72 388.8 
L 84.20625 388.8 
L 85.95 388.2624 
L 87.69375 388.8 
L 141.75 388.8 
L 143.49375 388.5696 
L 145.2375 388.6464 
L 146.98125 388.2624 
L 148.725 387.7248 
L 150.46875 386.9568 
L 153.95625 383.6544 
L 155.7 380.5056 
L 157.44375 378.2784 
L 159.1875 369.2928 
L 160.93125 362.1504 
L 164.41875 340.7232 
L 166.1625 328.512 
L 167.90625 301.632 
L 169.65 291.8784 
L 171.39375 263.5392 
L 173.1375 253.9392 
L 174.88125 219.7632 
L 178.36875 195.7248 
L 180.1125 176.2944 
L 181.85625 162.7776 
L 183.6 161.6256 
L 185.34375 164.4672 
L 187.0875 167.9232 
L 188.83125 165.5424 
L 190.575 168.4608 
L 192.31875 168.1536 
L 194.0625 166.1568 
L 195.80625 155.0976 
L 197.55 164.6208 
L 199.29375 155.2512 
L 201.0375 150.1824 
L 202.78125 140.1216 
L 204.525 141.1968 
L 206.26875 147.648 
L 208.0125 141.6576 
L 209.75625 143.8848 
L 211.5 158.0928 
L 213.24375 156.096 
L 214.9875 152.4096 
L 216.73125 157.7856 
L 218.475 174.7584 
L 220.21875 171.1488 
L 221.9625 161.472 
L 223.70625 161.3184 
L 225.45 163.008 
L 227.19375 165.2352 
L 228.9375 162.3168 
L 230.68125 150.1824 
L 232.425 159.7056 
L 234.16875 164.3904 
L 235.9125 154.944 
L 237.65625 157.0944 
L 239.4 178.5216 
L 241.14375 171.7632 
L 242.8875 181.44 
L 244.63125 172.3776 
L 246.375 180.672 
L 248.11875 187.7376 
L 249.8625 192.2688 
L 251.60625 175.5264 
L 253.35 188.2752 
L 255.09375 185.8176 
L 256.8375 189.3504 
L 258.58125 190.5024 
L 260.325 187.4304 
L 262.06875 192.192 
L 263.8125 193.8816 
L 265.55625 192.3456 
L 267.3 194.4192 
L 269.04375 195.4944 
L 270.7875 184.512 
L 272.53125 185.9712 
L 276.01875 168.6144 
L 277.7625 168.2304 
L 279.50625 153.3312 
L 281.25 165.1584 
L 282.99375 157.5552 
L 284.7375 172.7616 
L 286.48125 165.3888 
L 288.225 175.296 
L 289.96875 177.984 
L 291.7125 194.7264 
L 293.45625 227.7504 
L 295.2 219.6864 
L 296.94375 236.4288 
L 298.6875 246.4128 
L 300.43125 253.9392 
L 302.175 273.6768 
L 303.91875 286.5792 
L 307.40625 300.7872 
L 309.15 309.9264 
L 310.89375 310.848 
L 312.6375 321.6768 
L 314.38125 319.296 
L 316.125 324.3648 
L 317.86875 322.2912 
L 319.6125 326.7456 
L 321.35625 323.5968 
L 323.1 327.2832 
L 324.84375 321.984 
L 326.5875 328.0512 
L 328.33125 327.2832 
L 330.075 327.6672 
L 331.81875 329.664 
L 333.5625 330.6624 
L 335.30625 320.5248 
L 337.05 324.4416 
L 338.79375 322.5216 
L 340.5375 318.6048 
L 342.28125 322.1376 
L 344.025 323.9808 
L 345.76875 321.216 
L 347.5125 314.5344 
L 349.25625 314.1504 
L 351 324.5184 
L 352.74375 317.8368 
L 354.4875 319.6032 
L 356.23125 317.8368 
L 357.975 325.056 
L 359.71875 326.6688 
L 361.4625 325.9008 
L 363.20625 319.9104 
L 364.95 327.5904 
L 366.69375 327.2064 
L 368.4375 327.5904 
L 370.18125 328.5888 
L 371.925 331.5072 
L 373.66875 333.4272 
L 375.4125 333.12 
L 377.15625 337.1136 
L 378.9 337.0368 
L 380.64375 340.4928 
L 382.3875 340.1856 
L 384.13125 339.5712 
L 385.875 340.2624 
L 387.61875 338.7264 
L 389.3625 344.256 
L 391.10625 342.7968 
L 392.85 344.64 
L 394.59375 344.0256 
L 396.3375 344.256 
L 398.08125 349.5552 
L 399.825 348.48 
L 401.56875 352.6272 
L 403.3125 356.4672 
L 405.05625 358.6176 
L 406.8 365.9904 
L 408.54375 363.456 
L 412.03125 371.9808 
L 413.775 374.1312 
L 415.51875 374.7456 
L 417.2625 376.0512 
L 419.00625 377.1264 
L 420.75 380.4288 
L 422.49375 380.5056 
L 424.2375 383.04 
L 425.98125 381.8112 
L 427.725 383.6544 
L 429.46875 383.6544 
L 432.95625 384.4992 
L 434.7 385.9584 
L 436.44375 386.496 
L 439.93125 387.0336 
L 441.675 387.3408 
L 443.41875 386.9568 
L 445.1625 387.4176 
L 446.90625 388.1856 
L 448.65 388.2624 
L 452.1375 388.6464 
L 457.36875 388.8 
L 459.1125 388.8 
L 460.85625 388.5696 
L 462.6 388.7232 
L 516.65625 388.8 
L 516.65625 388.8 
" style="fill:none;stroke:#0000ff;stroke-linecap:square;"/>
   </g>
   <g id="line2d_2">
    <path clip-path="url(#p3c51d13ea6)" d="M 72 388.8 
L 73.74375 388.8 
L 75.4875 388.8 
L 77.23125 387.9552 
L 78.975 383.808 
L 80.71875 380.2752 
L 82.4625 376.2048 
L 84.20625 368.7552 
L 85.95 365.1456 
L 87.69375 355.6992 
L 89.4375 347.5584 
L 91.18125 336.4224 
L 92.925 323.8272 
L 94.66875 318.7584 
L 96.4125 306.3168 
L 98.15625 285.12 
L 99.9 275.136 
L 101.64375 259.6992 
L 103.3875 264.3072 
L 105.13125 230.2848 
L 106.875 247.872 
L 108.61875 231.5136 
L 110.3625 236.0448 
L 112.10625 242.0352 
L 113.85 215.3856 
L 115.59375 225.2928 
L 117.3375 254.5536 
L 119.08125 252.4032 
L 120.825 246.72 
L 122.56875 259.2384 
L 124.3125 265.536 
L 126.05625 261.2352 
L 127.8 284.736 
L 129.54375 284.352 
L 131.2875 297.4848 
L 133.03125 290.6496 
L 134.775 307.2384 
L 136.51875 309.9264 
L 138.2625 308.0064 
L 140.00625 305.5488 
L 141.75 311.0016 
L 143.49375 310.0032 
L 145.2375 318.528 
L 146.98125 317.6832 
L 148.725 309.7728 
L 150.46875 311.0016 
L 152.2125 310.2336 
L 153.95625 321.6 
L 155.7 303.552 
L 157.44375 307.6224 
L 159.1875 322.5984 
L 160.93125 302.784 
L 162.675 317.6064 
L 164.41875 306.3936 
L 166.1625 306.7008 
L 167.90625 311.6928 
L 169.65 290.88 
L 171.39375 290.9568 
L 173.1375 302.0928 
L 174.88125 291.5712 
L 176.625 273.984 
L 178.36875 269.9136 
L 180.1125 266.6112 
L 181.85625 231.6672 
L 183.6 257.7792 
L 185.34375 235.3536 
L 187.0875 257.9328 
L 188.83125 233.5104 
L 190.575 257.856 
L 192.31875 250.56 
L 194.0625 260.2368 
L 195.80625 253.1712 
L 197.55 266.4576 
L 199.29375 257.3952 
L 201.0375 275.5968 
L 202.78125 274.2912 
L 204.525 268.5312 
L 206.26875 276.9792 
L 208.0125 277.824 
L 209.75625 271.7568 
L 211.5 283.5072 
L 213.24375 270.144 
L 214.9875 290.6496 
L 216.73125 265.4592 
L 218.475 284.0448 
L 220.21875 275.52 
L 221.9625 272.6016 
L 223.70625 270.7584 
L 225.45 249.5616 
L 227.19375 245.7216 
L 228.9375 259.6992 
L 230.68125 244.032 
L 232.425 222.144 
L 234.16875 242.3424 
L 235.9125 234.5856 
L 237.65625 239.1936 
L 239.4 210.24 
L 241.14375 227.9808 
L 242.8875 257.2416 
L 244.63125 228.7488 
L 246.375 260.544 
L 248.11875 249.7152 
L 249.8625 256.704 
L 251.60625 254.9376 
L 253.35 265.6896 
L 255.09375 258.7776 
L 256.8375 282.3552 
L 260.325 262.9248 
L 262.06875 270.3744 
L 263.8125 266.8416 
L 265.55625 270.528 
L 267.3 251.7888 
L 269.04375 254.3232 
L 270.7875 279.36 
L 272.53125 247.7952 
L 274.275 265.6128 
L 276.01875 268.608 
L 277.7625 267.3792 
L 279.50625 273.0624 
L 281.25 253.4784 
L 282.99375 252.9408 
L 284.7375 277.5936 
L 288.225 245.0304 
L 289.96875 241.8048 
L 291.7125 247.1808 
L 293.45625 227.2896 
L 295.2 240.96 
L 296.94375 233.4336 
L 298.6875 249.7152 
L 300.43125 219.3792 
L 302.175 242.3424 
L 305.6625 233.2032 
L 307.40625 227.8272 
L 309.15 232.7424 
L 310.89375 232.9728 
L 312.6375 255.936 
L 314.38125 265.3824 
L 316.125 260.8512 
L 317.86875 277.1328 
L 319.6125 285.8112 
L 321.35625 284.8128 
L 323.1 293.0304 
L 324.84375 295.6416 
L 326.5875 316.4544 
L 328.33125 300.3264 
L 330.075 317.2992 
L 331.81875 305.856 
L 333.5625 313.4592 
L 335.30625 319.3728 
L 337.05 311.5392 
L 338.79375 311.7696 
L 340.5375 326.2848 
L 342.28125 328.9728 
L 344.025 323.6736 
L 345.76875 326.0544 
L 347.5125 330.7392 
L 349.25625 325.2096 
L 351 335.808 
L 352.74375 335.3472 
L 354.4875 344.3328 
L 356.23125 341.0304 
L 357.975 349.3248 
L 359.71875 348.2496 
L 361.4625 350.4768 
L 363.20625 349.9392 
L 364.95 354.24 
L 366.69375 350.0928 
L 368.4375 357.0048 
L 370.18125 351.7056 
L 371.925 350.0928 
L 373.66875 352.4736 
L 375.4125 352.3968 
L 377.15625 354.0864 
L 378.9 341.1072 
L 380.64375 343.7184 
L 382.3875 349.4784 
L 384.13125 341.8752 
L 385.875 338.7264 
L 387.61875 333.2736 
L 389.3625 339.264 
L 391.10625 338.4192 
L 392.85 323.52 
L 394.59375 329.1264 
L 396.3375 333.504 
L 398.08125 333.5808 
L 399.825 326.4384 
L 401.56875 331.8912 
L 403.3125 339.1872 
L 405.05625 334.8096 
L 406.8 329.0496 
L 408.54375 329.8944 
L 410.2875 341.8752 
L 412.03125 327.36 
L 413.775 335.1168 
L 415.51875 327.744 
L 417.2625 328.8192 
L 419.00625 325.056 
L 420.75 326.1312 
L 422.49375 318.7584 
L 424.2375 324.0576 
L 425.98125 323.4432 
L 427.725 323.7504 
L 429.46875 328.2816 
L 431.2125 336.0384 
L 432.95625 335.04 
L 434.7 344.7936 
L 436.44375 350.4768 
L 438.1875 359.8464 
L 439.93125 359.0016 
L 441.675 366.6816 
L 443.41875 366.2208 
L 445.1625 370.2912 
L 446.90625 373.3632 
L 448.65 375.8976 
L 450.39375 375.9744 
L 452.1375 379.2 
L 455.625 380.9664 
L 457.36875 380.5056 
L 459.1125 383.5776 
L 460.85625 384.4224 
L 462.6 384.6528 
L 464.34375 385.0368 
L 466.0875 387.5712 
L 467.83125 387.4176 
L 469.575 388.032 
L 473.0625 388.416 
L 474.80625 388.1088 
L 476.55 388.6464 
L 481.78125 388.8 
L 483.525 388.6464 
L 485.26875 388.8 
L 497.475 388.8 
L 499.21875 388.6464 
L 500.9625 388.8 
L 516.65625 388.8 
L 516.65625 388.8 
" style="fill:none;stroke:#008000;stroke-linecap:square;"/>
   </g>
   <g id="line2d_3">
    <path clip-path="url(#p3c51d13ea6)" d="M 72 388.8 
L 173.1375 388.7232 
L 174.88125 388.1856 
L 176.625 388.3392 
L 178.36875 388.032 
L 180.1125 388.1088 
L 181.85625 387.264 
L 183.6 385.9584 
L 185.34375 386.3424 
L 187.0875 385.6512 
L 188.83125 384.7296 
L 190.575 383.1168 
L 194.0625 378.6624 
L 195.80625 375.0528 
L 197.55 373.9776 
L 199.29375 370.2144 
L 201.0375 370.5216 
L 202.78125 362.9952 
L 204.525 359.1552 
L 206.26875 357.7728 
L 208.0125 351.7056 
L 209.75625 342.1824 
L 211.5 340.5696 
L 213.24375 329.5872 
L 214.9875 328.512 
L 216.73125 311.9232 
L 218.475 310.7712 
L 220.21875 298.4064 
L 221.9625 291.3408 
L 223.70625 286.5024 
L 225.45 277.7472 
L 227.19375 274.5984 
L 228.9375 276.9024 
L 230.68125 267.9168 
L 232.425 267.072 
L 234.16875 266.6112 
L 235.9125 269.2224 
L 237.65625 268.3008 
L 239.4 261.312 
L 241.14375 262.2336 
L 242.8875 279.744 
L 244.63125 269.0688 
L 246.375 279.8976 
L 248.11875 282.5088 
L 249.8625 287.5008 
L 251.60625 285.7344 
L 253.35 300.0192 
L 255.09375 302.784 
L 256.8375 315.456 
L 258.58125 314.3808 
L 260.325 325.2096 
L 262.06875 328.7424 
L 263.8125 331.0464 
L 265.55625 332.1984 
L 269.04375 335.04 
L 270.7875 340.5696 
L 272.53125 337.1136 
L 274.275 343.7184 
L 276.01875 341.4144 
L 277.7625 341.952 
L 279.50625 343.3344 
L 281.25 346.0224 
L 282.99375 343.2576 
L 284.7375 346.4064 
L 286.48125 345.3312 
L 288.225 344.1024 
L 289.96875 345.8688 
L 291.7125 344.9472 
L 293.45625 348.864 
L 295.2 337.8048 
L 296.94375 338.88 
L 298.6875 341.3376 
L 300.43125 332.736 
L 302.175 343.1808 
L 303.91875 337.5744 
L 305.6625 336.96 
L 307.40625 336.192 
L 309.15 329.5872 
L 310.89375 333.888 
L 312.6375 337.5744 
L 314.38125 331.968 
L 316.125 331.6608 
L 317.86875 329.9712 
L 319.6125 330.048 
L 321.35625 329.5104 
L 323.1 326.0544 
L 324.84375 326.0544 
L 326.5875 331.6608 
L 328.33125 326.8992 
L 330.075 330.432 
L 331.81875 329.1264 
L 333.5625 326.4384 
L 335.30625 327.5904 
L 337.05 327.4368 
L 338.79375 322.6752 
L 340.5375 326.2848 
L 342.28125 318.912 
L 344.025 319.1424 
L 345.76875 318.2976 
L 347.5125 320.6016 
L 349.25625 311.1552 
L 351 321.2928 
L 352.74375 312.3072 
L 354.4875 318.7584 
L 356.23125 315.6864 
L 357.975 320.9088 
L 359.71875 306.3168 
L 361.4625 313.7664 
L 363.20625 306.3936 
L 364.95 308.928 
L 366.69375 295.4112 
L 368.4375 292.8 
L 370.18125 281.0496 
L 371.925 270.9888 
L 373.66875 262.9248 
L 375.4125 259.6224 
L 378.9 244.8768 
L 380.64375 252.9408 
L 382.3875 267.3024 
L 384.13125 254.9376 
L 385.875 278.1312 
L 387.61875 275.3664 
L 389.3625 274.9056 
L 391.10625 280.5888 
L 392.85 278.4384 
L 394.59375 277.5168 
L 396.3375 282.1248 
L 398.08125 275.2128 
L 399.825 266.5344 
L 401.56875 261.696 
L 403.3125 261.5424 
L 405.05625 260.8512 
L 406.8 246.1824 
L 408.54375 243.1872 
L 410.2875 249.5616 
L 412.03125 236.8128 
L 413.775 249.4848 
L 415.51875 238.5792 
L 417.2625 240.7296 
L 419.00625 230.976 
L 420.75 234.2784 
L 422.49375 211.9296 
L 424.2375 209.6256 
L 425.98125 183.744 
L 427.725 174.7584 
L 429.46875 140.5824 
L 431.2125 146.5728 
L 432.95625 121.8432 
L 434.7 125.8368 
L 436.44375 118.7712 
L 438.1875 150.5664 
L 439.93125 144.8832 
L 441.675 174.7584 
L 443.41875 167.232 
L 445.1625 186.816 
L 446.90625 179.0592 
L 448.65 184.2048 
L 450.39375 161.856 
L 452.1375 161.856 
L 453.88125 130.752 
L 455.625 115.8528 
L 457.36875 71.0016 
L 459.1125 82.5984 
L 460.85625 77.2224 
L 462.6 56.4864 
L 464.34375 103.6416 
L 466.0875 144.192 
L 467.83125 163.8528 
L 469.575 192.8832 
L 471.31875 202.0224 
L 473.0625 220.224 
L 474.80625 215.5392 
L 476.55 238.272 
L 478.29375 225.5232 
L 480.0375 220.9152 
L 481.78125 214.848 
L 483.525 203.1744 
L 485.26875 201.024 
L 487.0125 213.5424 
L 488.75625 248.5632 
L 490.5 237.3504 
L 492.24375 276.9792 
L 493.9875 301.4784 
L 495.73125 313.0752 
L 497.475 331.3536 
L 499.21875 331.2768 
L 502.70625 344.1024 
L 504.45 355.9296 
L 506.19375 361.3824 
L 507.9375 364.7616 
L 509.68125 365.6064 
L 513.16875 375.1296 
L 514.9125 383.6544 
L 516.65625 380.1984 
L 516.65625 380.1984 
" style="fill:none;stroke:#ff0000;stroke-linecap:square;"/>
   </g>
   <g id="patch_3">
    <path d="M 72 43.2 
L 518.4 43.2 
" style="fill:none;stroke:#000000;stroke-linecap:square;stroke-linejoin:miter;"/>
   </g>
   <g id="patch_4">
    <path d="M 518.4 388.8 
L 518.4 43.2 
" style="fill:none;stroke:#000000;stroke-linecap:square;stroke-linejoin:miter;"/>
   </g>
   <g id="patch_5">
    <path d="M 72 388.8 
L 518.4 388.8 
" style="fill:none;stroke:#000000;stroke-linecap:square;stroke-linejoin:miter;"/>
   </g>
   <g id="patch_6">
    <path d="M 72 388.8 
L 72 43.2 
" style="fill:none;stroke:#000000;stroke-linecap:square;stroke-linejoin:miter;"/>
   </g>
   <g id="matplotlib.axis_1">
    <g id="xtick_1">
     <g id="line2d_4">
      <defs>
       <path d="M 0 0 
L 0 -4 
" id="m17231a5063" style="stroke:#000000;stroke-width:0.5;"/>
      </defs>
      <g>
       <use style="stroke:#000000;stroke-width:0.5;" x="72.0" xlink:href="#m17231a5063" y="388.8"/>
      </g>
     </g>
     <g id="line2d_5">
      <defs>
       <path d="M 0 0 
L 0 4 
" id="m55c7f58d41" style="stroke:#000000;stroke-width:0.5;"/>
      </defs>
      <g>
       <use style="stroke:#000000;stroke-width:0.5;" x="72.0" xlink:href="#m55c7f58d41" y="43.19999999999999"/>
      </g>
     </g>
     <g id="text_1">
      <!-- 0 -->
      <defs>
       <path d="M 31.78125 66.40625 
Q 24.171875 66.40625 20.328125 58.90625 
Q 16.5 51.421875 16.5 36.375 
Q 16.5 21.390625 20.328125 13.890625 
Q 24.171875 6.390625 31.78125 6.390625 
Q 39.453125 6.390625 43.28125 13.890625 
Q 47.125 21.390625 47.125 36.375 
Q 47.125 51.421875 43.28125 58.90625 
Q 39.453125 66.40625 31.78125 66.40625 
M 31.78125 74.21875 
Q 44.046875 74.21875 50.515625 64.515625 
Q 56.984375 54.828125 56.984375 36.375 
Q 56.984375 17.96875 50.515625 8.265625 
Q 44.046875 -1.421875 31.78125 -1.421875 
Q 19.53125 -1.421875 13.0625 8.265625 
Q 6.59375 17.96875 6.59375 36.375 
Q 6.59375 54.828125 13.0625 64.515625 
Q 19.53125 74.21875 31.78125 74.21875 
" id="BitstreamVeraSans-Roman-30"/>
      </defs>
      <g transform="translate(68.1825 401.91812500000003)scale(0.12 -0.12)">
       <use xlink:href="#BitstreamVeraSans-Roman-30"/>
      </g>
     </g>
    </g>
    <g id="xtick_2">
     <g id="line2d_6">
      <g>
       <use style="stroke:#000000;stroke-width:0.5;" x="159.1875" xlink:href="#m17231a5063" y="388.8"/>
      </g>
     </g>
     <g id="line2d_7">
      <g>
       <use style="stroke:#000000;stroke-width:0.5;" x="159.1875" xlink:href="#m55c7f58d41" y="43.19999999999999"/>
      </g>
     </g>
     <g id="text_2">
      <!-- 50 -->
      <defs>
       <path d="M 10.796875 72.90625 
L 49.515625 72.90625 
L 49.515625 64.59375 
L 19.828125 64.59375 
L 19.828125 46.734375 
Q 21.96875 47.46875 24.109375 47.828125 
Q 26.265625 48.1875 28.421875 48.1875 
Q 40.625 48.1875 47.75 41.5 
Q 54.890625 34.8125 54.890625 23.390625 
Q 54.890625 11.625 47.5625 5.09375 
Q 40.234375 -1.421875 26.90625 -1.421875 
Q 22.3125 -1.421875 17.546875 -0.640625 
Q 12.796875 0.140625 7.71875 1.703125 
L 7.71875 11.625 
Q 12.109375 9.234375 16.796875 8.0625 
Q 21.484375 6.890625 26.703125 6.890625 
Q 35.15625 6.890625 40.078125 11.328125 
Q 45.015625 15.765625 45.015625 23.390625 
Q 45.015625 31 40.078125 35.4375 
Q 35.15625 39.890625 26.703125 39.890625 
Q 22.75 39.890625 18.8125 39.015625 
Q 14.890625 38.140625 10.796875 36.28125 
z
" id="BitstreamVeraSans-Roman-35"/>
      </defs>
      <g transform="translate(151.5525 401.91812500000003)scale(0.12 -0.12)">
       <use xlink:href="#BitstreamVeraSans-Roman-35"/>
       <use x="63.623046875" xlink:href="#BitstreamVeraSans-Roman-30"/>
      </g>
     </g>
    </g>
    <g id="xtick_3">
     <g id="line2d_8">
      <g>
       <use style="stroke:#000000;stroke-width:0.5;" x="246.375" xlink:href="#m17231a5063" y="388.8"/>
      </g>
     </g>
     <g id="line2d_9">
      <g>
       <use style="stroke:#000000;stroke-width:0.5;" x="246.375" xlink:href="#m55c7f58d41" y="43.19999999999999"/>
      </g>
     </g>
     <g id="text_3">
      <!-- 100 -->
      <defs>
       <path d="M 12.40625 8.296875 
L 28.515625 8.296875 
L 28.515625 63.921875 
L 10.984375 60.40625 
L 10.984375 69.390625 
L 28.421875 72.90625 
L 38.28125 72.90625 
L 38.28125 8.296875 
L 54.390625 8.296875 
L 54.390625 0 
L 12.40625 0 
z
" id="BitstreamVeraSans-Roman-31"/>
      </defs>
      <g transform="translate(234.9225 401.91812500000003)scale(0.12 -0.12)">
       <use xlink:href="#BitstreamVeraSans-Roman-31"/>
       <use x="63.623046875" xlink:href="#BitstreamVeraSans-Roman-30"/>
       <use x="127.24609375" xlink:href="#BitstreamVeraSans-Roman-30"/>
      </g>
     </g>
    </g>
    <g id="xtick_4">
     <g id="line2d_10">
      <g>
       <use style="stroke:#000000;stroke-width:0.5;" x="333.5625" xlink:href="#m17231a5063" y="388.8"/>
      </g>
     </g>
     <g id="line2d_11">
      <g>
       <use style="stroke:#000000;stroke-width:0.5;" x="333.5625" xlink:href="#m55c7f58d41" y="43.19999999999999"/>
      </g>
     </g>
     <g id="text_4">
      <!-- 150 -->
      <g transform="translate(322.11 401.91812500000003)scale(0.12 -0.12)">
       <use xlink:href="#BitstreamVeraSans-Roman-31"/>
       <use x="63.623046875" xlink:href="#BitstreamVeraSans-Roman-35"/>
       <use x="127.24609375" xlink:href="#BitstreamVeraSans-Roman-30"/>
      </g>
     </g>
    </g>
    <g id="xtick_5">
     <g id="line2d_12">
      <g>
       <use style="stroke:#000000;stroke-width:0.5;" x="420.75" xlink:href="#m17231a5063" y="388.8"/>
      </g>
     </g>
     <g id="line2d_13">
      <g>
       <use style="stroke:#000000;stroke-width:0.5;" x="420.75" xlink:href="#m55c7f58d41" y="43.19999999999999"/>
      </g>
     </g>
     <g id="text_5">
      <!-- 200 -->
      <defs>
       <path d="M 19.1875 8.296875 
L 53.609375 8.296875 
L 53.609375 0 
L 7.328125 0 
L 7.328125 8.296875 
Q 12.9375 14.109375 22.625 23.890625 
Q 32.328125 33.6875 34.8125 36.53125 
Q 39.546875 41.84375 41.421875 45.53125 
Q 43.3125 49.21875 43.3125 52.78125 
Q 43.3125 58.59375 39.234375 62.25 
Q 35.15625 65.921875 28.609375 65.921875 
Q 23.96875 65.921875 18.8125 64.3125 
Q 13.671875 62.703125 7.8125 59.421875 
L 7.8125 69.390625 
Q 13.765625 71.78125 18.9375 73 
Q 24.125 74.21875 28.421875 74.21875 
Q 39.75 74.21875 46.484375 68.546875 
Q 53.21875 62.890625 53.21875 53.421875 
Q 53.21875 48.921875 51.53125 44.890625 
Q 49.859375 40.875 45.40625 35.40625 
Q 44.1875 33.984375 37.640625 27.21875 
Q 31.109375 20.453125 19.1875 8.296875 
" id="BitstreamVeraSans-Roman-32"/>
      </defs>
      <g transform="translate(409.2975 401.91812500000003)scale(0.12 -0.12)">
       <use xlink:href="#BitstreamVeraSans-Roman-32"/>
       <use x="63.623046875" xlink:href="#BitstreamVeraSans-Roman-30"/>
       <use x="127.24609375" xlink:href="#BitstreamVeraSans-Roman-30"/>
      </g>
     </g>
    </g>
    <g id="xtick_6">
     <g id="line2d_14">
      <g>
       <use style="stroke:#000000;stroke-width:0.5;" x="507.9375" xlink:href="#m17231a5063" y="388.8"/>
      </g>
     </g>
     <g id="line2d_15">
      <g>
       <use style="stroke:#000000;stroke-width:0.5;" x="507.9375" xlink:href="#m55c7f58d41" y="43.19999999999999"/>
      </g>
     </g>
     <g id="text_6">
      <!-- 250 -->
      <g transform="translate(496.485 401.91812500000003)scale(0.12 -0.12)">
       <use xlink:href="#BitstreamVeraSans-Roman-32"/>
       <use x="63.623046875" xlink:href="#BitstreamVeraSans-Roman-35"/>
       <use x="127.24609375" xlink:href="#BitstreamVeraSans-Roman-30"/>
      </g>
     </g>
    </g>
   </g>
   <g id="matplotlib.axis_2">
    <g id="ytick_1">
     <g id="line2d_16">
      <defs>
       <path d="M 0 0 
L 4 0 
" id="m89bca333d6" style="stroke:#000000;stroke-width:0.5;"/>
      </defs>
      <g>
       <use style="stroke:#000000;stroke-width:0.5;" x="72.0" xlink:href="#m89bca333d6" y="388.8"/>
      </g>
     </g>
     <g id="line2d_17">
      <defs>
       <path d="M 0 0 
L -4 0 
" id="m5a8a44014a" style="stroke:#000000;stroke-width:0.5;"/>
      </defs>
      <g>
       <use style="stroke:#000000;stroke-width:0.5;" x="518.4" xlink:href="#m5a8a44014a" y="388.8"/>
      </g>
     </g>
     <g id="text_7">
      <!-- 0 -->
      <g transform="translate(60.365 392.11125000000004)scale(0.12 -0.12)">
       <use xlink:href="#BitstreamVeraSans-Roman-30"/>
      </g>
     </g>
    </g>
    <g id="ytick_2">
     <g id="line2d_18">
      <g>
       <use style="stroke:#000000;stroke-width:0.5;" x="72.0" xlink:href="#m89bca333d6" y="350.4"/>
      </g>
     </g>
     <g id="line2d_19">
      <g>
       <use style="stroke:#000000;stroke-width:0.5;" x="518.4" xlink:href="#m5a8a44014a" y="350.4"/>
      </g>
     </g>
     <g id="text_8">
      <!-- 500 -->
      <g transform="translate(45.095 353.71125)scale(0.12 -0.12)">
       <use xlink:href="#BitstreamVeraSans-Roman-35"/>
       <use x="63.623046875" xlink:href="#BitstreamVeraSans-Roman-30"/>
       <use x="127.24609375" xlink:href="#BitstreamVeraSans-Roman-30"/>
      </g>
     </g>
    </g>
    <g id="ytick_3">
     <g id="line2d_20">
      <g>
       <use style="stroke:#000000;stroke-width:0.5;" x="72.0" xlink:href="#m89bca333d6" y="312.0"/>
      </g>
     </g>
     <g id="line2d_21">
      <g>
       <use style="stroke:#000000;stroke-width:0.5;" x="518.4" xlink:href="#m5a8a44014a" y="312.0"/>
      </g>
     </g>
     <g id="text_9">
      <!-- 1000 -->
      <g transform="translate(37.46 315.31125)scale(0.12 -0.12)">
       <use xlink:href="#BitstreamVeraSans-Roman-31"/>
       <use x="63.623046875" xlink:href="#BitstreamVeraSans-Roman-30"/>
       <use x="127.24609375" xlink:href="#BitstreamVeraSans-Roman-30"/>
       <use x="190.869140625" xlink:href="#BitstreamVeraSans-Roman-30"/>
      </g>
     </g>
    </g>
    <g id="ytick_4">
     <g id="line2d_22">
      <g>
       <use style="stroke:#000000;stroke-width:0.5;" x="72.0" xlink:href="#m89bca333d6" y="273.6"/>
      </g>
     </g>
     <g id="line2d_23">
      <g>
       <use style="stroke:#000000;stroke-width:0.5;" x="518.4" xlink:href="#m5a8a44014a" y="273.6"/>
      </g>
     </g>
     <g id="text_10">
      <!-- 1500 -->
      <g transform="translate(37.46 276.91125)scale(0.12 -0.12)">
       <use xlink:href="#BitstreamVeraSans-Roman-31"/>
       <use x="63.623046875" xlink:href="#BitstreamVeraSans-Roman-35"/>
       <use x="127.24609375" xlink:href="#BitstreamVeraSans-Roman-30"/>
       <use x="190.869140625" xlink:href="#BitstreamVeraSans-Roman-30"/>
      </g>
     </g>
    </g>
    <g id="ytick_5">
     <g id="line2d_24">
      <g>
       <use style="stroke:#000000;stroke-width:0.5;" x="72.0" xlink:href="#m89bca333d6" y="235.2"/>
      </g>
     </g>
     <g id="line2d_25">
      <g>
       <use style="stroke:#000000;stroke-width:0.5;" x="518.4" xlink:href="#m5a8a44014a" y="235.2"/>
      </g>
     </g>
     <g id="text_11">
      <!-- 2000 -->
      <g transform="translate(37.46 238.51125)scale(0.12 -0.12)">
       <use xlink:href="#BitstreamVeraSans-Roman-32"/>
       <use x="63.623046875" xlink:href="#BitstreamVeraSans-Roman-30"/>
       <use x="127.24609375" xlink:href="#BitstreamVeraSans-Roman-30"/>
       <use x="190.869140625" xlink:href="#BitstreamVeraSans-Roman-30"/>
      </g>
     </g>
    </g>
    <g id="ytick_6">
     <g id="line2d_26">
      <g>
       <use style="stroke:#000000;stroke-width:0.5;" x="72.0" xlink:href="#m89bca333d6" y="196.79999999999998"/>
      </g>
     </g>
     <g id="line2d_27">
      <g>
       <use style="stroke:#000000;stroke-width:0.5;" x="518.4" xlink:href="#m5a8a44014a" y="196.79999999999998"/>
      </g>
     </g>
     <g id="text_12">
      <!-- 2500 -->
      <g transform="translate(37.46 200.11124999999998)scale(0.12 -0.12)">
       <use xlink:href="#BitstreamVeraSans-Roman-32"/>
       <use x="63.623046875" xlink:href="#BitstreamVeraSans-Roman-35"/>
       <use x="127.24609375" xlink:href="#BitstreamVeraSans-Roman-30"/>
       <use x="190.869140625" xlink:href="#BitstreamVeraSans-Roman-30"/>
      </g>
     </g>
    </g>
    <g id="ytick_7">
     <g id="line2d_28">
      <g>
       <use style="stroke:#000000;stroke-width:0.5;" x="72.0" xlink:href="#m89bca333d6" y="158.39999999999998"/>
      </g>
     </g>
     <g id="line2d_29">
      <g>
       <use style="stroke:#000000;stroke-width:0.5;" x="518.4" xlink:href="#m5a8a44014a" y="158.39999999999998"/>
      </g>
     </g>
     <g id="text_13">
      <!-- 3000 -->
      <defs>
       <path d="M 40.578125 39.3125 
Q 47.65625 37.796875 51.625 33 
Q 55.609375 28.21875 55.609375 21.1875 
Q 55.609375 10.40625 48.1875 4.484375 
Q 40.765625 -1.421875 27.09375 -1.421875 
Q 22.515625 -1.421875 17.65625 -0.515625 
Q 12.796875 0.390625 7.625 2.203125 
L 7.625 11.71875 
Q 11.71875 9.328125 16.59375 8.109375 
Q 21.484375 6.890625 26.8125 6.890625 
Q 36.078125 6.890625 40.9375 10.546875 
Q 45.796875 14.203125 45.796875 21.1875 
Q 45.796875 27.640625 41.28125 31.265625 
Q 36.765625 34.90625 28.71875 34.90625 
L 20.21875 34.90625 
L 20.21875 43.015625 
L 29.109375 43.015625 
Q 36.375 43.015625 40.234375 45.921875 
Q 44.09375 48.828125 44.09375 54.296875 
Q 44.09375 59.90625 40.109375 62.90625 
Q 36.140625 65.921875 28.71875 65.921875 
Q 24.65625 65.921875 20.015625 65.03125 
Q 15.375 64.15625 9.8125 62.3125 
L 9.8125 71.09375 
Q 15.4375 72.65625 20.34375 73.4375 
Q 25.25 74.21875 29.59375 74.21875 
Q 40.828125 74.21875 47.359375 69.109375 
Q 53.90625 64.015625 53.90625 55.328125 
Q 53.90625 49.265625 50.4375 45.09375 
Q 46.96875 40.921875 40.578125 39.3125 
" id="BitstreamVeraSans-Roman-33"/>
      </defs>
      <g transform="translate(37.46 161.71124999999995)scale(0.12 -0.12)">
       <use xlink:href="#BitstreamVeraSans-Roman-33"/>
       <use x="63.623046875" xlink:href="#BitstreamVeraSans-Roman-30"/>
       <use x="127.24609375" xlink:href="#BitstreamVeraSans-Roman-30"/>
       <use x="190.869140625" xlink:href="#BitstreamVeraSans-Roman-30"/>
      </g>
     </g>
    </g>
    <g id="ytick_8">
     <g id="line2d_30">
      <g>
       <use style="stroke:#000000;stroke-width:0.5;" x="72.0" xlink:href="#m89bca333d6" y="120.0"/>
      </g>
     </g>
     <g id="line2d_31">
      <g>
       <use style="stroke:#000000;stroke-width:0.5;" x="518.4" xlink:href="#m5a8a44014a" y="120.0"/>
      </g>
     </g>
     <g id="text_14">
      <!-- 3500 -->
      <g transform="translate(37.46 123.31124999999997)scale(0.12 -0.12)">
       <use xlink:href="#BitstreamVeraSans-Roman-33"/>
       <use x="63.623046875" xlink:href="#BitstreamVeraSans-Roman-35"/>
       <use x="127.24609375" xlink:href="#BitstreamVeraSans-Roman-30"/>
       <use x="190.869140625" xlink:href="#BitstreamVeraSans-Roman-30"/>
      </g>
     </g>
    </g>
    <g id="ytick_9">
     <g id="line2d_32">
      <g>
       <use style="stroke:#000000;stroke-width:0.5;" x="72.0" xlink:href="#m89bca333d6" y="81.59999999999997"/>
      </g>
     </g>
     <g id="line2d_33">
      <g>
       <use style="stroke:#000000;stroke-width:0.5;" x="518.4" xlink:href="#m5a8a44014a" y="81.59999999999997"/>
      </g>
     </g>
     <g id="text_15">
      <!-- 4000 -->
      <defs>
       <path d="M 37.796875 64.3125 
L 12.890625 25.390625 
L 37.796875 25.390625 
z
M 35.203125 72.90625 
L 47.609375 72.90625 
L 47.609375 25.390625 
L 58.015625 25.390625 
L 58.015625 17.1875 
L 47.609375 17.1875 
L 47.609375 0 
L 37.796875 0 
L 37.796875 17.1875 
L 4.890625 17.1875 
L 4.890625 26.703125 
z
" id="BitstreamVeraSans-Roman-34"/>
      </defs>
      <g transform="translate(37.46 84.91124999999994)scale(0.12 -0.12)">
       <use xlink:href="#BitstreamVeraSans-Roman-34"/>
       <use x="63.623046875" xlink:href="#BitstreamVeraSans-Roman-30"/>
       <use x="127.24609375" xlink:href="#BitstreamVeraSans-Roman-30"/>
       <use x="190.869140625" xlink:href="#BitstreamVeraSans-Roman-30"/>
      </g>
     </g>
    </g>
    <g id="ytick_10">
     <g id="line2d_34">
      <g>
       <use style="stroke:#000000;stroke-width:0.5;" x="72.0" xlink:href="#m89bca333d6" y="43.19999999999999"/>
      </g>
     </g>
     <g id="line2d_35">
      <g>
       <use style="stroke:#000000;stroke-width:0.5;" x="518.4" xlink:href="#m5a8a44014a" y="43.19999999999999"/>
      </g>
     </g>
     <g id="text_16">
      <!-- 4500 -->
      <g transform="translate(37.46 46.51124999999996)scale(0.12 -0.12)">
       <use xlink:href="#BitstreamVeraSans-Roman-34"/>
       <use x="63.623046875" xlink:href="#BitstreamVeraSans-Roman-35"/>
       <use x="127.24609375" xlink:href="#BitstreamVeraSans-Roman-30"/>
       <use x="190.869140625" xlink:href="#BitstreamVeraSans-Roman-30"/>
      </g>
     </g>
    </g>
   </g>
  </g>
 </g>
 <defs>
  <clipPath id="p3c51d13ea6">
   <rect height="345.6" width="446.4" x="72.0" y="43.19999999999999"/>
  </clipPath>
 </defs>
</svg>
