<?xml version="1.0" encoding="utf-8" standalone="no"?>
<!DOCTYPE svg PUBLIC "-//W3C//DTD SVG 1.1//EN"
  "http://www.w3.org/Graphics/SVG/1.1/DTD/svg11.dtd">
<!-- Created with matplotlib (http://matplotlib.org/) -->
<svg height="432pt" version="1.1" viewBox="0 0 576 432" width="576pt" xmlns="http://www.w3.org/2000/svg" xmlns:xlink="http://www.w3.org/1999/xlink">
 <defs>
  <style type="text/css">
*{stroke-linecap:butt;stroke-linejoin:round;stroke-miterlimit:100000;}
  </style>
 </defs>
 <g id="figure_1">
  <g id="patch_1">
   <path d="M 0 432 
L 576 432 
L 576 0 
L 0 0 
z
" style="fill:#ffffff;"/>
  </g>
  <g id="axes_1">
   <g id="patch_2">
    <path d="M 72 388.8 
L 518.4 388.8 
L 518.4 43.2 
L 72 43.2 
z
" style="fill:#ffffff;"/>
   </g>
   <g id="line2d_1">
    <path clip-path="url(#pbbfb3a01fd)" d="M 72 388.8 
L 84.20625 388.8 
L 85.95 388.5312 
L 87.69375 388.8 
L 141.75 388.8 
L 143.49375 388.6848 
L 145.2375 388.7232 
L 148.725 388.2624 
L 150.46875 387.8784 
L 153.95625 386.2272 
L 155.7 384.6528 
L 157.44375 383.5392 
L 159.1875 379.0464 
L 160.93125 375.4752 
L 164.41875 364.7616 
L 166.1625 358.656 
L 167.90625 345.216 
L 169.65 340.3392 
L 171.39375 326.1696 
L 173.1375 321.3696 
L 174.88125 304.2816 
L 178.36875 292.2624 
L 180.1125 282.5472 
L 181.85625 275.7888 
L 183.6 275.2128 
L 185.34375 276.6336 
L 187.0875 278.3616 
L 188.83125 277.1712 
L 190.575 278.6304 
L 192.31875 278.4768 
L 194.0625 277.4784 
L 195.80625 271.9488 
L 197.55 276.7104 
L 199.29375 272.0256 
L 201.0375 269.4912 
L 202.78125 264.4608 
L 204.525 264.9984 
L 206.26875 268.224 
L 208.0125 265.2288 
L 209.75625 266.3424 
L 211.5 273.4464 
L 213.24375 272.448 
L 214.9875 270.6048 
L 216.73125 273.2928 
L 218.475 281.7792 
L 220.21875 279.9744 
L 221.9625 275.136 
L 223.70625 275.0592 
L 225.45 275.904 
L 227.19375 277.0176 
L 228.9375 275.5584 
L 230.68125 269.4912 
L 232.425 274.2528 
L 234.16875 276.5952 
L 235.9125 271.872 
L 237.65625 272.9472 
L 239.4 283.6608 
L 241.14375 280.2816 
L 242.8875 285.12 
L 244.63125 280.5888 
L 246.375 284.736 
L 248.11875 288.2688 
L 249.8625 290.5344 
L 251.60625 282.1632 
L 253.35 288.5376 
L 255.09375 287.3088 
L 256.8375 289.0752 
L 258.58125 289.6512 
L 260.325 288.1152 
L 262.06875 290.496 
L 263.8125 291.3408 
L 265.55625 290.5728 
L 267.3 291.6096 
L 269.04375 292.1472 
L 270.7875 286.656 
L 272.53125 287.3856 
L 276.01875 278.7072 
L 277.7625 278.5152 
L 279.50625 271.0656 
L 281.25 276.9792 
L 282.99375 273.1776 
L 284.7375 280.7808 
L 286.48125 277.0944 
L 288.225 282.048 
L 289.96875 283.392 
L 291.7125 291.7632 
L 293.45625 308.2752 
L 295.2 304.2432 
L 296.94375 312.6144 
L 298.6875 317.6064 
L 300.43125 321.3696 
L 302.175 331.2384 
L 303.91875 337.6896 
L 307.40625 344.7936 
L 309.15 349.3632 
L 310.89375 349.824 
L 312.6375 355.2384 
L 314.38125 354.048 
L 316.125 356.5824 
L 317.86875 355.5456 
L 319.6125 357.7728 
L 321.35625 356.1984 
L 323.1 358.0416 
L 324.84375 355.392 
L 326.5875 358.4256 
L 328.33125 358.0416 
L 330.075 358.2336 
L 331.81875 359.232 
L 333.5625 359.7312 
L 335.30625 354.6624 
L 337.05 356.6208 
L 338.79375 355.6608 
L 340.5375 353.7024 
L 342.28125 355.4688 
L 344.025 356.3904 
L 345.76875 355.008 
L 347.5125 351.6672 
L 349.25625 351.4752 
L 351 356.6592 
L 352.74375 353.3184 
L 354.4875 354.2016 
L 356.23125 353.3184 
L 357.975 356.928 
L 359.71875 357.7344 
L 361.4625 357.3504 
L 363.20625 354.3552 
L 364.95 358.1952 
L 366.69375 358.0032 
L 368.4375 358.1952 
L 370.18125 358.6944 
L 371.925 360.1536 
L 373.66875 361.1136 
L 375.4125 360.96 
L 377.15625 362.9568 
L 378.9 362.9184 
L 380.64375 364.6464 
L 382.3875 364.4928 
L 384.13125 364.1856 
L 385.875 364.5312 
L 387.61875 363.7632 
L 389.3625 366.528 
L 391.10625 365.7984 
L 392.85 366.72 
L 394.59375 366.4128 
L 396.3375 366.528 
L 398.08125 369.1776 
L 399.825 368.64 
L 403.3125 372.6336 
L 405.05625 373.7088 
L 406.8 377.3952 
L 408.54375 376.128 
L 412.03125 380.3904 
L 413.775 381.4656 
L 415.51875 381.7728 
L 419.00625 382.9632 
L 420.75 384.6144 
L 422.49375 384.6528 
L 424.2375 385.92 
L 425.98125 385.3056 
L 427.725 386.2272 
L 429.46875 386.2272 
L 432.95625 386.6496 
L 434.7 387.3792 
L 436.44375 387.648 
L 441.675 388.0704 
L 443.41875 387.8784 
L 445.1625 388.1088 
L 446.90625 388.4928 
L 450.39375 388.6464 
L 455.625 388.8 
L 459.1125 388.8 
L 460.85625 388.6848 
L 464.34375 388.7616 
L 469.575 388.8 
L 516.65625 388.8 
L 516.65625 388.8 
" style="fill:none;stroke:#0000ff;stroke-linecap:square;"/>
   </g>
   <g id="line2d_2">
    <path clip-path="url(#pbbfb3a01fd)" d="M 72 388.8 
L 73.74375 388.8 
L 75.4875 388.8 
L 77.23125 388.3776 
L 78.975 386.304 
L 80.71875 384.5376 
L 82.4625 382.5024 
L 84.20625 378.7776 
L 85.95 376.9728 
L 87.69375 372.2496 
L 89.4375 368.1792 
L 91.18125 362.6112 
L 92.925 356.3136 
L 94.66875 353.7792 
L 96.4125 347.5584 
L 98.15625 336.96 
L 99.9 331.968 
L 101.64375 324.2496 
L 103.3875 326.5536 
L 105.13125 309.5424 
L 106.875 318.336 
L 108.61875 310.1568 
L 110.3625 312.4224 
L 112.10625 315.4176 
L 113.85 302.0928 
L 115.59375 307.0464 
L 117.3375 321.6768 
L 119.08125 320.6016 
L 120.825 317.76 
L 122.56875 324.0192 
L 124.3125 327.168 
L 126.05625 325.0176 
L 127.8 336.768 
L 129.54375 336.576 
L 131.2875 343.1424 
L 133.03125 339.7248 
L 134.775 348.0192 
L 136.51875 349.3632 
L 138.2625 348.4032 
L 140.00625 347.1744 
L 141.75 349.9008 
L 143.49375 349.4016 
L 145.2375 353.664 
L 146.98125 353.2416 
L 148.725 349.2864 
L 150.46875 349.9008 
L 152.2125 349.5168 
L 153.95625 355.2 
L 155.7 346.176 
L 157.44375 348.2112 
L 159.1875 355.6992 
L 160.93125 345.792 
L 162.675 353.2032 
L 164.41875 347.5968 
L 166.1625 347.7504 
L 167.90625 350.2464 
L 169.65 339.84 
L 171.39375 339.8784 
L 173.1375 345.4464 
L 174.88125 340.1856 
L 176.625 331.392 
L 178.36875 329.3568 
L 180.1125 327.7056 
L 181.85625 310.2336 
L 183.6 323.2896 
L 185.34375 312.0768 
L 187.0875 323.3664 
L 188.83125 311.1552 
L 190.575 323.328 
L 192.31875 319.68 
L 194.0625 324.5184 
L 195.80625 320.9856 
L 197.55 327.6288 
L 199.29375 323.0976 
L 201.0375 332.1984 
L 202.78125 331.5456 
L 204.525 328.6656 
L 206.26875 332.8896 
L 208.0125 333.312 
L 209.75625 330.2784 
L 211.5 336.1536 
L 213.24375 329.472 
L 214.9875 339.7248 
L 216.73125 327.1296 
L 218.475 336.4224 
L 220.21875 332.16 
L 221.9625 330.7008 
L 223.70625 329.7792 
L 225.45 319.1808 
L 227.19375 317.2608 
L 228.9375 324.2496 
L 230.68125 316.416 
L 232.425 305.472 
L 234.16875 315.5712 
L 235.9125 311.6928 
L 237.65625 313.9968 
L 239.4 299.52 
L 241.14375 308.3904 
L 242.8875 323.0208 
L 244.63125 308.7744 
L 246.375 324.672 
L 248.11875 319.2576 
L 249.8625 322.752 
L 251.60625 321.8688 
L 253.35 327.2448 
L 255.09375 323.7888 
L 256.8375 335.5776 
L 260.325 325.8624 
L 262.06875 329.5872 
L 263.8125 327.8208 
L 265.55625 329.664 
L 267.3 320.2944 
L 269.04375 321.5616 
L 270.7875 334.08 
L 272.53125 318.2976 
L 274.275 327.2064 
L 276.01875 328.704 
L 277.7625 328.0896 
L 279.50625 330.9312 
L 281.25 321.1392 
L 282.99375 320.8704 
L 284.7375 333.1968 
L 288.225 316.9152 
L 289.96875 315.3024 
L 291.7125 317.9904 
L 293.45625 308.0448 
L 295.2 314.88 
L 296.94375 311.1168 
L 298.6875 319.2576 
L 300.43125 304.0896 
L 302.175 315.5712 
L 305.6625 311.0016 
L 307.40625 308.3136 
L 309.15 310.7712 
L 310.89375 310.8864 
L 312.6375 322.368 
L 314.38125 327.0912 
L 316.125 324.8256 
L 317.86875 332.9664 
L 319.6125 337.3056 
L 321.35625 336.8064 
L 323.1 340.9152 
L 324.84375 342.2208 
L 326.5875 352.6272 
L 328.33125 344.5632 
L 330.075 353.0496 
L 331.81875 347.328 
L 333.5625 351.1296 
L 335.30625 354.0864 
L 337.05 350.1696 
L 338.79375 350.2848 
L 340.5375 357.5424 
L 342.28125 358.8864 
L 344.025 356.2368 
L 345.76875 357.4272 
L 347.5125 359.7696 
L 349.25625 357.0048 
L 351 362.304 
L 352.74375 362.0736 
L 354.4875 366.5664 
L 356.23125 364.9152 
L 357.975 369.0624 
L 359.71875 368.5248 
L 361.4625 369.6384 
L 363.20625 369.3696 
L 364.95 371.52 
L 366.69375 369.4464 
L 368.4375 372.9024 
L 370.18125 370.2528 
L 371.925 369.4464 
L 373.66875 370.6368 
L 375.4125 370.5984 
L 377.15625 371.4432 
L 378.9 364.9536 
L 380.64375 366.2592 
L 382.3875 369.1392 
L 384.13125 365.3376 
L 385.875 363.7632 
L 387.61875 361.0368 
L 389.3625 364.032 
L 391.10625 363.6096 
L 392.85 356.16 
L 394.59375 358.9632 
L 396.3375 361.152 
L 398.08125 361.1904 
L 399.825 357.6192 
L 401.56875 360.3456 
L 403.3125 363.9936 
L 405.05625 361.8048 
L 406.8 358.9248 
L 408.54375 359.3472 
L 410.2875 365.3376 
L 412.03125 358.08 
L 413.775 361.9584 
L 415.51875 358.272 
L 417.2625 358.8096 
L 419.00625 356.928 
L 420.75 357.4656 
L 422.49375 353.7792 
L 424.2375 356.4288 
L 425.98125 356.1216 
L 427.725 356.2752 
L 429.46875 358.5408 
L 431.2125 362.4192 
L 432.95625 361.92 
L 434.7 366.7968 
L 436.44375 369.6384 
L 438.1875 374.3232 
L 439.93125 373.9008 
L 441.675 377.7408 
L 443.41875 377.5104 
L 445.1625 379.5456 
L 446.90625 381.0816 
L 448.65 382.3488 
L 450.39375 382.3872 
L 452.1375 384 
L 455.625 384.8832 
L 457.36875 384.6528 
L 459.1125 386.1888 
L 460.85625 386.6112 
L 464.34375 386.9184 
L 466.0875 388.1856 
L 467.83125 388.1088 
L 469.575 388.416 
L 473.0625 388.608 
L 474.80625 388.4544 
L 476.55 388.7232 
L 481.78125 388.8 
L 483.525 388.7232 
L 487.0125 388.8 
L 516.65625 388.8 
L 516.65625 388.8 
" style="fill:none;stroke:#008000;stroke-linecap:square;"/>
   </g>
   <g id="line2d_3">
    <path clip-path="url(#pbbfb3a01fd)" d="M 72 388.8 
L 141.75 388.7616 
L 143.49375 388.4544 
L 145.2375 388.5696 
L 146.98125 388.416 
L 148.725 387.6864 
L 150.46875 387.3792 
L 152.2125 385.9968 
L 153.95625 386.7648 
L 155.7 385.9584 
L 157.44375 379.776 
L 159.1875 381.9264 
L 160.93125 372.096 
L 162.675 379.6608 
L 164.41875 375.8976 
L 166.1625 358.464 
L 167.90625 370.2528 
L 169.65 341.376 
L 171.39375 359.1936 
L 173.1375 358.656 
L 174.88125 311.3472 
L 176.625 343.6032 
L 178.36875 288.9216 
L 180.1125 333.2736 
L 181.85625 331.6992 
L 183.6 272.4096 
L 185.34375 327.936 
L 187.0875 267.9168 
L 188.83125 328.5504 
L 190.575 325.056 
L 192.31875 270.9888 
L 194.0625 328.9344 
L 195.80625 281.2032 
L 197.55 338.1504 
L 199.29375 292.8768 
L 201.0375 345.792 
L 202.78125 352.128 
L 204.525 319.7952 
L 206.26875 358.7712 
L 208.0125 331.6224 
L 209.75625 361.1904 
L 211.5 361.92 
L 213.24375 338.8416 
L 214.9875 366.2592 
L 216.73125 341.6832 
L 218.475 366.0672 
L 220.21875 367.4112 
L 221.9625 344.832 
L 223.70625 367.0656 
L 225.45 344.9856 
L 227.19375 366.8736 
L 228.9375 368.832 
L 230.68125 338.3424 
L 232.425 365.0688 
L 234.16875 337.9584 
L 235.9125 363.1872 
L 237.65625 362.88 
L 239.4 332.8896 
L 241.14375 361.344 
L 242.8875 334.7712 
L 244.63125 360.2304 
L 246.375 359.3856 
L 248.11875 329.7792 
L 249.8625 357.4272 
L 251.60625 328.8576 
L 253.35 357.8496 
L 255.09375 359.616 
L 256.8375 327.7824 
L 258.58125 358.1952 
L 260.325 325.056 
L 262.06875 357.5424 
L 263.8125 319.0272 
L 265.55625 353.5488 
L 267.3 354.7008 
L 269.04375 316.224 
L 270.7875 350.5536 
L 272.53125 317.2224 
L 274.275 354.8544 
L 276.01875 347.5584 
L 277.7625 310.08 
L 279.50625 348.864 
L 281.25 294.1056 
L 282.99375 334.9248 
L 284.7375 329.8944 
L 286.48125 261.2736 
L 288.225 320.6016 
L 289.96875 248.9088 
L 291.7125 328.0512 
L 293.45625 321.8688 
L 295.2 276.7488 
L 296.94375 331.8528 
L 298.6875 279.5136 
L 300.43125 333.1584 
L 302.175 335.4624 
L 303.91875 270.8736 
L 305.6625 325.248 
L 307.40625 261.1968 
L 309.15 317.4912 
L 310.89375 315.9936 
L 312.6375 243.1872 
L 314.38125 319.1424 
L 316.125 239.6544 
L 317.86875 309.888 
L 319.6125 311.5392 
L 321.35625 210.7776 
L 323.1 286.272 
L 324.84375 157.6704 
L 326.5875 267.6864 
L 328.33125 123.84 
L 330.075 253.7856 
L 331.81875 269.6832 
L 333.5625 159.8208 
L 335.30625 278.016 
L 337.05 182.9376 
L 338.79375 286.5024 
L 340.5375 275.328 
L 342.28125 146.304 
L 344.025 252.3264 
L 345.76875 76.8 
L 347.5125 233.0112 
L 349.25625 222.6432 
L 351 123.9168 
L 352.74375 276.3264 
L 354.4875 197.4528 
L 356.23125 304.512 
L 357.975 302.1696 
L 359.71875 231.8976 
L 361.4625 304.8576 
L 363.20625 209.0112 
L 364.95 294.912 
L 366.69375 301.1712 
L 368.4375 242.9568 
L 370.18125 332.8896 
L 371.925 307.2768 
L 373.66875 360.0768 
L 375.4125 360.0384 
L 377.15625 340.8384 
L 378.9 372.3648 
L 380.64375 363.072 
L 382.3875 377.2032 
L 384.13125 379.5072 
L 385.875 379.392 
L 387.61875 384.4992 
L 389.3625 388.8 
L 516.65625 388.8 
L 516.65625 388.8 
" style="fill:none;stroke:#ff0000;stroke-linecap:square;"/>
   </g>
   <g id="patch_3">
    <path d="M 72 43.2 
L 518.4 43.2 
" style="fill:none;stroke:#000000;stroke-linecap:square;stroke-linejoin:miter;"/>
   </g>
   <g id="patch_4">
    <path d="M 518.4 388.8 
L 518.4 43.2 
" style="fill:none;stroke:#000000;stroke-linecap:square;stroke-linejoin:miter;"/>
   </g>
   <g id="patch_5">
    <path d="M 72 388.8 
L 518.4 388.8 
" style="fill:none;stroke:#000000;stroke-linecap:square;stroke-linejoin:miter;"/>
   </g>
   <g id="patch_6">
    <path d="M 72 388.8 
L 72 43.2 
" style="fill:none;stroke:#000000;stroke-linecap:square;stroke-linejoin:miter;"/>
   </g>
   <g id="matplotlib.axis_1">
    <g id="xtick_1">
     <g id="line2d_4">
      <defs>
       <path d="M 0 0 
L 0 -4 
" id="m11b766b884" style="stroke:#000000;stroke-width:0.5;"/>
      </defs>
      <g>
       <use style="stroke:#000000;stroke-width:0.5;" x="72.0" xlink:href="#m11b766b884" y="388.8"/>
      </g>
     </g>
     <g id="line2d_5">
      <defs>
       <path d="M 0 0 
L 0 4 
" id="mdd2f2b8eda" style="stroke:#000000;stroke-width:0.5;"/>
      </defs>
      <g>
       <use style="stroke:#000000;stroke-width:0.5;" x="72.0" xlink:href="#mdd2f2b8eda" y="43.19999999999999"/>
      </g>
     </g>
     <g id="text_1">
      <!-- 0 -->
      <defs>
       <path d="M 31.78125 66.40625 
Q 24.171875 66.40625 20.328125 58.90625 
Q 16.5 51.421875 16.5 36.375 
Q 16.5 21.390625 20.328125 13.890625 
Q 24.171875 6.390625 31.78125 6.390625 
Q 39.453125 6.390625 43.28125 13.890625 
Q 47.125 21.390625 47.125 36.375 
Q 47.125 51.421875 43.28125 58.90625 
Q 39.453125 66.40625 31.78125 66.40625 
M 31.78125 74.21875 
Q 44.046875 74.21875 50.515625 64.515625 
Q 56.984375 54.828125 56.984375 36.375 
Q 56.984375 17.96875 50.515625 8.265625 
Q 44.046875 -1.421875 31.78125 -1.421875 
Q 19.53125 -1.421875 13.0625 8.265625 
Q 6.59375 17.96875 6.59375 36.375 
Q 6.59375 54.828125 13.0625 64.515625 
Q 19.53125 74.21875 31.78125 74.21875 
" id="BitstreamVeraSans-Roman-30"/>
      </defs>
      <g transform="translate(68.1825 401.91812500000003)scale(0.12 -0.12)">
       <use xlink:href="#BitstreamVeraSans-Roman-30"/>
      </g>
     </g>
    </g>
    <g id="xtick_2">
     <g id="line2d_6">
      <g>
       <use style="stroke:#000000;stroke-width:0.5;" x="159.1875" xlink:href="#m11b766b884" y="388.8"/>
      </g>
     </g>
     <g id="line2d_7">
      <g>
       <use style="stroke:#000000;stroke-width:0.5;" x="159.1875" xlink:href="#mdd2f2b8eda" y="43.19999999999999"/>
      </g>
     </g>
     <g id="text_2">
      <!-- 50 -->
      <defs>
       <path d="M 10.796875 72.90625 
L 49.515625 72.90625 
L 49.515625 64.59375 
L 19.828125 64.59375 
L 19.828125 46.734375 
Q 21.96875 47.46875 24.109375 47.828125 
Q 26.265625 48.1875 28.421875 48.1875 
Q 40.625 48.1875 47.75 41.5 
Q 54.890625 34.8125 54.890625 23.390625 
Q 54.890625 11.625 47.5625 5.09375 
Q 40.234375 -1.421875 26.90625 -1.421875 
Q 22.3125 -1.421875 17.546875 -0.640625 
Q 12.796875 0.140625 7.71875 1.703125 
L 7.71875 11.625 
Q 12.109375 9.234375 16.796875 8.0625 
Q 21.484375 6.890625 26.703125 6.890625 
Q 35.15625 6.890625 40.078125 11.328125 
Q 45.015625 15.765625 45.015625 23.390625 
Q 45.015625 31 40.078125 35.4375 
Q 35.15625 39.890625 26.703125 39.890625 
Q 22.75 39.890625 18.8125 39.015625 
Q 14.890625 38.140625 10.796875 36.28125 
z
" id="BitstreamVeraSans-Roman-35"/>
      </defs>
      <g transform="translate(151.5525 401.91812500000003)scale(0.12 -0.12)">
       <use xlink:href="#BitstreamVeraSans-Roman-35"/>
       <use x="63.623046875" xlink:href="#BitstreamVeraSans-Roman-30"/>
      </g>
     </g>
    </g>
    <g id="xtick_3">
     <g id="line2d_8">
      <g>
       <use style="stroke:#000000;stroke-width:0.5;" x="246.375" xlink:href="#m11b766b884" y="388.8"/>
      </g>
     </g>
     <g id="line2d_9">
      <g>
       <use style="stroke:#000000;stroke-width:0.5;" x="246.375" xlink:href="#mdd2f2b8eda" y="43.19999999999999"/>
      </g>
     </g>
     <g id="text_3">
      <!-- 100 -->
      <defs>
       <path d="M 12.40625 8.296875 
L 28.515625 8.296875 
L 28.515625 63.921875 
L 10.984375 60.40625 
L 10.984375 69.390625 
L 28.421875 72.90625 
L 38.28125 72.90625 
L 38.28125 8.296875 
L 54.390625 8.296875 
L 54.390625 0 
L 12.40625 0 
z
" id="BitstreamVeraSans-Roman-31"/>
      </defs>
      <g transform="translate(234.9225 401.91812500000003)scale(0.12 -0.12)">
       <use xlink:href="#BitstreamVeraSans-Roman-31"/>
       <use x="63.623046875" xlink:href="#BitstreamVeraSans-Roman-30"/>
       <use x="127.24609375" xlink:href="#BitstreamVeraSans-Roman-30"/>
      </g>
     </g>
    </g>
    <g id="xtick_4">
     <g id="line2d_10">
      <g>
       <use style="stroke:#000000;stroke-width:0.5;" x="333.5625" xlink:href="#m11b766b884" y="388.8"/>
      </g>
     </g>
     <g id="line2d_11">
      <g>
       <use style="stroke:#000000;stroke-width:0.5;" x="333.5625" xlink:href="#mdd2f2b8eda" y="43.19999999999999"/>
      </g>
     </g>
     <g id="text_4">
      <!-- 150 -->
      <g transform="translate(322.11 401.91812500000003)scale(0.12 -0.12)">
       <use xlink:href="#BitstreamVeraSans-Roman-31"/>
       <use x="63.623046875" xlink:href="#BitstreamVeraSans-Roman-35"/>
       <use x="127.24609375" xlink:href="#BitstreamVeraSans-Roman-30"/>
      </g>
     </g>
    </g>
    <g id="xtick_5">
     <g id="line2d_12">
      <g>
       <use style="stroke:#000000;stroke-width:0.5;" x="420.75" xlink:href="#m11b766b884" y="388.8"/>
      </g>
     </g>
     <g id="line2d_13">
      <g>
       <use style="stroke:#000000;stroke-width:0.5;" x="420.75" xlink:href="#mdd2f2b8eda" y="43.19999999999999"/>
      </g>
     </g>
     <g id="text_5">
      <!-- 200 -->
      <defs>
       <path d="M 19.1875 8.296875 
L 53.609375 8.296875 
L 53.609375 0 
L 7.328125 0 
L 7.328125 8.296875 
Q 12.9375 14.109375 22.625 23.890625 
Q 32.328125 33.6875 34.8125 36.53125 
Q 39.546875 41.84375 41.421875 45.53125 
Q 43.3125 49.21875 43.3125 52.78125 
Q 43.3125 58.59375 39.234375 62.25 
Q 35.15625 65.921875 28.609375 65.921875 
Q 23.96875 65.921875 18.8125 64.3125 
Q 13.671875 62.703125 7.8125 59.421875 
L 7.8125 69.390625 
Q 13.765625 71.78125 18.9375 73 
Q 24.125 74.21875 28.421875 74.21875 
Q 39.75 74.21875 46.484375 68.546875 
Q 53.21875 62.890625 53.21875 53.421875 
Q 53.21875 48.921875 51.53125 44.890625 
Q 49.859375 40.875 45.40625 35.40625 
Q 44.1875 33.984375 37.640625 27.21875 
Q 31.109375 20.453125 19.1875 8.296875 
" id="BitstreamVeraSans-Roman-32"/>
      </defs>
      <g transform="translate(409.2975 401.91812500000003)scale(0.12 -0.12)">
       <use xlink:href="#BitstreamVeraSans-Roman-32"/>
       <use x="63.623046875" xlink:href="#BitstreamVeraSans-Roman-30"/>
       <use x="127.24609375" xlink:href="#BitstreamVeraSans-Roman-30"/>
      </g>
     </g>
    </g>
    <g id="xtick_6">
     <g id="line2d_14">
      <g>
       <use style="stroke:#000000;stroke-width:0.5;" x="507.9375" xlink:href="#m11b766b884" y="388.8"/>
      </g>
     </g>
     <g id="line2d_15">
      <g>
       <use style="stroke:#000000;stroke-width:0.5;" x="507.9375" xlink:href="#mdd2f2b8eda" y="43.19999999999999"/>
      </g>
     </g>
     <g id="text_6">
      <!-- 250 -->
      <g transform="translate(496.485 401.91812500000003)scale(0.12 -0.12)">
       <use xlink:href="#BitstreamVeraSans-Roman-32"/>
       <use x="63.623046875" xlink:href="#BitstreamVeraSans-Roman-35"/>
       <use x="127.24609375" xlink:href="#BitstreamVeraSans-Roman-30"/>
      </g>
     </g>
    </g>
   </g>
   <g id="matplotlib.axis_2">
    <g id="ytick_1">
     <g id="line2d_16">
      <defs>
       <path d="M 0 0 
L 4 0 
" id="m5bae6a4b39" style="stroke:#000000;stroke-width:0.5;"/>
      </defs>
      <g>
       <use style="stroke:#000000;stroke-width:0.5;" x="72.0" xlink:href="#m5bae6a4b39" y="388.8"/>
      </g>
     </g>
     <g id="line2d_17">
      <defs>
       <path d="M 0 0 
L -4 0 
" id="m674b3ee6dd" style="stroke:#000000;stroke-width:0.5;"/>
      </defs>
      <g>
       <use style="stroke:#000000;stroke-width:0.5;" x="518.4" xlink:href="#m674b3ee6dd" y="388.8"/>
      </g>
     </g>
     <g id="text_7">
      <!-- 0 -->
      <g transform="translate(60.365 392.11125000000004)scale(0.12 -0.12)">
       <use xlink:href="#BitstreamVeraSans-Roman-30"/>
      </g>
     </g>
    </g>
    <g id="ytick_2">
     <g id="line2d_18">
      <g>
       <use style="stroke:#000000;stroke-width:0.5;" x="72.0" xlink:href="#m5bae6a4b39" y="350.4"/>
      </g>
     </g>
     <g id="line2d_19">
      <g>
       <use style="stroke:#000000;stroke-width:0.5;" x="518.4" xlink:href="#m674b3ee6dd" y="350.4"/>
      </g>
     </g>
     <g id="text_8">
      <!-- 1000 -->
      <g transform="translate(37.46 353.71125)scale(0.12 -0.12)">
       <use xlink:href="#BitstreamVeraSans-Roman-31"/>
       <use x="63.623046875" xlink:href="#BitstreamVeraSans-Roman-30"/>
       <use x="127.24609375" xlink:href="#BitstreamVeraSans-Roman-30"/>
       <use x="190.869140625" xlink:href="#BitstreamVeraSans-Roman-30"/>
      </g>
     </g>
    </g>
    <g id="ytick_3">
     <g id="line2d_20">
      <g>
       <use style="stroke:#000000;stroke-width:0.5;" x="72.0" xlink:href="#m5bae6a4b39" y="312.0"/>
      </g>
     </g>
     <g id="line2d_21">
      <g>
       <use style="stroke:#000000;stroke-width:0.5;" x="518.4" xlink:href="#m674b3ee6dd" y="312.0"/>
      </g>
     </g>
     <g id="text_9">
      <!-- 2000 -->
      <g transform="translate(37.46 315.31125)scale(0.12 -0.12)">
       <use xlink:href="#BitstreamVeraSans-Roman-32"/>
       <use x="63.623046875" xlink:href="#BitstreamVeraSans-Roman-30"/>
       <use x="127.24609375" xlink:href="#BitstreamVeraSans-Roman-30"/>
       <use x="190.869140625" xlink:href="#BitstreamVeraSans-Roman-30"/>
      </g>
     </g>
    </g>
    <g id="ytick_4">
     <g id="line2d_22">
      <g>
       <use style="stroke:#000000;stroke-width:0.5;" x="72.0" xlink:href="#m5bae6a4b39" y="273.6"/>
      </g>
     </g>
     <g id="line2d_23">
      <g>
       <use style="stroke:#000000;stroke-width:0.5;" x="518.4" xlink:href="#m674b3ee6dd" y="273.6"/>
      </g>
     </g>
     <g id="text_10">
      <!-- 3000 -->
      <defs>
       <path d="M 40.578125 39.3125 
Q 47.65625 37.796875 51.625 33 
Q 55.609375 28.21875 55.609375 21.1875 
Q 55.609375 10.40625 48.1875 4.484375 
Q 40.765625 -1.421875 27.09375 -1.421875 
Q 22.515625 -1.421875 17.65625 -0.515625 
Q 12.796875 0.390625 7.625 2.203125 
L 7.625 11.71875 
Q 11.71875 9.328125 16.59375 8.109375 
Q 21.484375 6.890625 26.8125 6.890625 
Q 36.078125 6.890625 40.9375 10.546875 
Q 45.796875 14.203125 45.796875 21.1875 
Q 45.796875 27.640625 41.28125 31.265625 
Q 36.765625 34.90625 28.71875 34.90625 
L 20.21875 34.90625 
L 20.21875 43.015625 
L 29.109375 43.015625 
Q 36.375 43.015625 40.234375 45.921875 
Q 44.09375 48.828125 44.09375 54.296875 
Q 44.09375 59.90625 40.109375 62.90625 
Q 36.140625 65.921875 28.71875 65.921875 
Q 24.65625 65.921875 20.015625 65.03125 
Q 15.375 64.15625 9.8125 62.3125 
L 9.8125 71.09375 
Q 15.4375 72.65625 20.34375 73.4375 
Q 25.25 74.21875 29.59375 74.21875 
Q 40.828125 74.21875 47.359375 69.109375 
Q 53.90625 64.015625 53.90625 55.328125 
Q 53.90625 49.265625 50.4375 45.09375 
Q 46.96875 40.921875 40.578125 39.3125 
" id="BitstreamVeraSans-Roman-33"/>
      </defs>
      <g transform="translate(37.46 276.91125)scale(0.12 -0.12)">
       <use xlink:href="#BitstreamVeraSans-Roman-33"/>
       <use x="63.623046875" xlink:href="#BitstreamVeraSans-Roman-30"/>
       <use x="127.24609375" xlink:href="#BitstreamVeraSans-Roman-30"/>
       <use x="190.869140625" xlink:href="#BitstreamVeraSans-Roman-30"/>
      </g>
     </g>
    </g>
    <g id="ytick_5">
     <g id="line2d_24">
      <g>
       <use style="stroke:#000000;stroke-width:0.5;" x="72.0" xlink:href="#m5bae6a4b39" y="235.2"/>
      </g>
     </g>
     <g id="line2d_25">
      <g>
       <use style="stroke:#000000;stroke-width:0.5;" x="518.4" xlink:href="#m674b3ee6dd" y="235.2"/>
      </g>
     </g>
     <g id="text_11">
      <!-- 4000 -->
      <defs>
       <path d="M 37.796875 64.3125 
L 12.890625 25.390625 
L 37.796875 25.390625 
z
M 35.203125 72.90625 
L 47.609375 72.90625 
L 47.609375 25.390625 
L 58.015625 25.390625 
L 58.015625 17.1875 
L 47.609375 17.1875 
L 47.609375 0 
L 37.796875 0 
L 37.796875 17.1875 
L 4.890625 17.1875 
L 4.890625 26.703125 
z
" id="BitstreamVeraSans-Roman-34"/>
      </defs>
      <g transform="translate(37.46 238.51125)scale(0.12 -0.12)">
       <use xlink:href="#BitstreamVeraSans-Roman-34"/>
       <use x="63.623046875" xlink:href="#BitstreamVeraSans-Roman-30"/>
       <use x="127.24609375" xlink:href="#BitstreamVeraSans-Roman-30"/>
       <use x="190.869140625" xlink:href="#BitstreamVeraSans-Roman-30"/>
      </g>
     </g>
    </g>
    <g id="ytick_6">
     <g id="line2d_26">
      <g>
       <use style="stroke:#000000;stroke-width:0.5;" x="72.0" xlink:href="#m5bae6a4b39" y="196.79999999999998"/>
      </g>
     </g>
     <g id="line2d_27">
      <g>
       <use style="stroke:#000000;stroke-width:0.5;" x="518.4" xlink:href="#m674b3ee6dd" y="196.79999999999998"/>
      </g>
     </g>
     <g id="text_12">
      <!-- 5000 -->
      <g transform="translate(37.46 200.11124999999998)scale(0.12 -0.12)">
       <use xlink:href="#BitstreamVeraSans-Roman-35"/>
       <use x="63.623046875" xlink:href="#BitstreamVeraSans-Roman-30"/>
       <use x="127.24609375" xlink:href="#BitstreamVeraSans-Roman-30"/>
       <use x="190.869140625" xlink:href="#BitstreamVeraSans-Roman-30"/>
      </g>
     </g>
    </g>
    <g id="ytick_7">
     <g id="line2d_28">
      <g>
       <use style="stroke:#000000;stroke-width:0.5;" x="72.0" xlink:href="#m5bae6a4b39" y="158.39999999999998"/>
      </g>
     </g>
     <g id="line2d_29">
      <g>
       <use style="stroke:#000000;stroke-width:0.5;" x="518.4" xlink:href="#m674b3ee6dd" y="158.39999999999998"/>
      </g>
     </g>
     <g id="text_13">
      <!-- 6000 -->
      <defs>
       <path d="M 33.015625 40.375 
Q 26.375 40.375 22.484375 35.828125 
Q 18.609375 31.296875 18.609375 23.390625 
Q 18.609375 15.53125 22.484375 10.953125 
Q 26.375 6.390625 33.015625 6.390625 
Q 39.65625 6.390625 43.53125 10.953125 
Q 47.40625 15.53125 47.40625 23.390625 
Q 47.40625 31.296875 43.53125 35.828125 
Q 39.65625 40.375 33.015625 40.375 
M 52.59375 71.296875 
L 52.59375 62.3125 
Q 48.875 64.0625 45.09375 64.984375 
Q 41.3125 65.921875 37.59375 65.921875 
Q 27.828125 65.921875 22.671875 59.328125 
Q 17.53125 52.734375 16.796875 39.40625 
Q 19.671875 43.65625 24.015625 45.921875 
Q 28.375 48.1875 33.59375 48.1875 
Q 44.578125 48.1875 50.953125 41.515625 
Q 57.328125 34.859375 57.328125 23.390625 
Q 57.328125 12.15625 50.6875 5.359375 
Q 44.046875 -1.421875 33.015625 -1.421875 
Q 20.359375 -1.421875 13.671875 8.265625 
Q 6.984375 17.96875 6.984375 36.375 
Q 6.984375 53.65625 15.1875 63.9375 
Q 23.390625 74.21875 37.203125 74.21875 
Q 40.921875 74.21875 44.703125 73.484375 
Q 48.484375 72.75 52.59375 71.296875 
" id="BitstreamVeraSans-Roman-36"/>
      </defs>
      <g transform="translate(37.46 161.71124999999995)scale(0.12 -0.12)">
       <use xlink:href="#BitstreamVeraSans-Roman-36"/>
       <use x="63.623046875" xlink:href="#BitstreamVeraSans-Roman-30"/>
       <use x="127.24609375" xlink:href="#BitstreamVeraSans-Roman-30"/>
       <use x="190.869140625" xlink:href="#BitstreamVeraSans-Roman-30"/>
      </g>
     </g>
    </g>
    <g id="ytick_8">
     <g id="line2d_30">
      <g>
       <use style="stroke:#000000;stroke-width:0.5;" x="72.0" xlink:href="#m5bae6a4b39" y="120.0"/>
      </g>
     </g>
     <g id="line2d_31">
      <g>
       <use style="stroke:#000000;stroke-width:0.5;" x="518.4" xlink:href="#m674b3ee6dd" y="120.0"/>
      </g>
     </g>
     <g id="text_14">
      <!-- 7000 -->
      <defs>
       <path d="M 8.203125 72.90625 
L 55.078125 72.90625 
L 55.078125 68.703125 
L 28.609375 0 
L 18.3125 0 
L 43.21875 64.59375 
L 8.203125 64.59375 
z
" id="BitstreamVeraSans-Roman-37"/>
      </defs>
      <g transform="translate(37.46 123.31124999999997)scale(0.12 -0.12)">
       <use xlink:href="#BitstreamVeraSans-Roman-37"/>
       <use x="63.623046875" xlink:href="#BitstreamVeraSans-Roman-30"/>
       <use x="127.24609375" xlink:href="#BitstreamVeraSans-Roman-30"/>
       <use x="190.869140625" xlink:href="#BitstreamVeraSans-Roman-30"/>
      </g>
     </g>
    </g>
    <g id="ytick_9">
     <g id="line2d_32">
      <g>
       <use style="stroke:#000000;stroke-width:0.5;" x="72.0" xlink:href="#m5bae6a4b39" y="81.59999999999997"/>
      </g>
     </g>
     <g id="line2d_33">
      <g>
       <use style="stroke:#000000;stroke-width:0.5;" x="518.4" xlink:href="#m674b3ee6dd" y="81.59999999999997"/>
      </g>
     </g>
     <g id="text_15">
      <!-- 8000 -->
      <defs>
       <path d="M 31.78125 34.625 
Q 24.75 34.625 20.71875 30.859375 
Q 16.703125 27.09375 16.703125 20.515625 
Q 16.703125 13.921875 20.71875 10.15625 
Q 24.75 6.390625 31.78125 6.390625 
Q 38.8125 6.390625 42.859375 10.171875 
Q 46.921875 13.96875 46.921875 20.515625 
Q 46.921875 27.09375 42.890625 30.859375 
Q 38.875 34.625 31.78125 34.625 
M 21.921875 38.8125 
Q 15.578125 40.375 12.03125 44.71875 
Q 8.5 49.078125 8.5 55.328125 
Q 8.5 64.0625 14.71875 69.140625 
Q 20.953125 74.21875 31.78125 74.21875 
Q 42.671875 74.21875 48.875 69.140625 
Q 55.078125 64.0625 55.078125 55.328125 
Q 55.078125 49.078125 51.53125 44.71875 
Q 48 40.375 41.703125 38.8125 
Q 48.828125 37.15625 52.796875 32.3125 
Q 56.78125 27.484375 56.78125 20.515625 
Q 56.78125 9.90625 50.3125 4.234375 
Q 43.84375 -1.421875 31.78125 -1.421875 
Q 19.734375 -1.421875 13.25 4.234375 
Q 6.78125 9.90625 6.78125 20.515625 
Q 6.78125 27.484375 10.78125 32.3125 
Q 14.796875 37.15625 21.921875 38.8125 
M 18.3125 54.390625 
Q 18.3125 48.734375 21.84375 45.5625 
Q 25.390625 42.390625 31.78125 42.390625 
Q 38.140625 42.390625 41.71875 45.5625 
Q 45.3125 48.734375 45.3125 54.390625 
Q 45.3125 60.0625 41.71875 63.234375 
Q 38.140625 66.40625 31.78125 66.40625 
Q 25.390625 66.40625 21.84375 63.234375 
Q 18.3125 60.0625 18.3125 54.390625 
" id="BitstreamVeraSans-Roman-38"/>
      </defs>
      <g transform="translate(37.46 84.91124999999994)scale(0.12 -0.12)">
       <use xlink:href="#BitstreamVeraSans-Roman-38"/>
       <use x="63.623046875" xlink:href="#BitstreamVeraSans-Roman-30"/>
       <use x="127.24609375" xlink:href="#BitstreamVeraSans-Roman-30"/>
       <use x="190.869140625" xlink:href="#BitstreamVeraSans-Roman-30"/>
      </g>
     </g>
    </g>
    <g id="ytick_10">
     <g id="line2d_34">
      <g>
       <use style="stroke:#000000;stroke-width:0.5;" x="72.0" xlink:href="#m5bae6a4b39" y="43.19999999999999"/>
      </g>
     </g>
     <g id="line2d_35">
      <g>
       <use style="stroke:#000000;stroke-width:0.5;" x="518.4" xlink:href="#m674b3ee6dd" y="43.19999999999999"/>
      </g>
     </g>
     <g id="text_16">
      <!-- 9000 -->
      <defs>
       <path d="M 10.984375 1.515625 
L 10.984375 10.5 
Q 14.703125 8.734375 18.5 7.8125 
Q 22.3125 6.890625 25.984375 6.890625 
Q 35.75 6.890625 40.890625 13.453125 
Q 46.046875 20.015625 46.78125 33.40625 
Q 43.953125 29.203125 39.59375 26.953125 
Q 35.25 24.703125 29.984375 24.703125 
Q 19.046875 24.703125 12.671875 31.3125 
Q 6.296875 37.9375 6.296875 49.421875 
Q 6.296875 60.640625 12.9375 67.421875 
Q 19.578125 74.21875 30.609375 74.21875 
Q 43.265625 74.21875 49.921875 64.515625 
Q 56.59375 54.828125 56.59375 36.375 
Q 56.59375 19.140625 48.40625 8.859375 
Q 40.234375 -1.421875 26.421875 -1.421875 
Q 22.703125 -1.421875 18.890625 -0.6875 
Q 15.09375 0.046875 10.984375 1.515625 
M 30.609375 32.421875 
Q 37.25 32.421875 41.125 36.953125 
Q 45.015625 41.5 45.015625 49.421875 
Q 45.015625 57.28125 41.125 61.84375 
Q 37.25 66.40625 30.609375 66.40625 
Q 23.96875 66.40625 20.09375 61.84375 
Q 16.21875 57.28125 16.21875 49.421875 
Q 16.21875 41.5 20.09375 36.953125 
Q 23.96875 32.421875 30.609375 32.421875 
" id="BitstreamVeraSans-Roman-39"/>
      </defs>
      <g transform="translate(37.46 46.51124999999996)scale(0.12 -0.12)">
       <use xlink:href="#BitstreamVeraSans-Roman-39"/>
       <use x="63.623046875" xlink:href="#BitstreamVeraSans-Roman-30"/>
       <use x="127.24609375" xlink:href="#BitstreamVeraSans-Roman-30"/>
       <use x="190.869140625" xlink:href="#BitstreamVeraSans-Roman-30"/>
      </g>
     </g>
    </g>
   </g>
  </g>
 </g>
 <defs>
  <clipPath id="pbbfb3a01fd">
   <rect height="345.6" width="446.4" x="72.0" y="43.19999999999999"/>
  </clipPath>
 </defs>
</svg>
