<?xml version="1.0" encoding="utf-8" standalone="no"?>
<!DOCTYPE svg PUBLIC "-//W3C//DTD SVG 1.1//EN"
  "http://www.w3.org/Graphics/SVG/1.1/DTD/svg11.dtd">
<!-- Created with matplotlib (http://matplotlib.org/) -->
<svg height="432pt" version="1.1" viewBox="0 0 576 432" width="576pt" xmlns="http://www.w3.org/2000/svg" xmlns:xlink="http://www.w3.org/1999/xlink">
 <defs>
  <style type="text/css">
*{stroke-linecap:butt;stroke-linejoin:round;stroke-miterlimit:100000;}
  </style>
 </defs>
 <g id="figure_1">
  <g id="patch_1">
   <path d="M 0 432 
L 576 432 
L 576 0 
L 0 0 
z
" style="fill:#ffffff;"/>
  </g>
  <g id="axes_1">
   <g id="patch_2">
    <path d="M 72 388.8 
L 518.4 388.8 
L 518.4 43.2 
L 72 43.2 
z
" style="fill:#ffffff;"/>
   </g>
   <g id="line2d_1">
    <path clip-path="url(#p4e6991b89b)" d="M 72 388.8 
L 85.95 388.8 
L 87.69375 388.6272 
L 89.4375 388.8 
L 160.93125 388.750629 
L 164.41875 388.4544 
L 166.1625 388.207543 
L 167.90625 387.664457 
L 169.65 388.8 
L 171.39375 387.146057 
L 173.1375 386.133943 
L 174.88125 385.418057 
L 176.625 382.529829 
L 178.36875 388.8 
L 180.1125 380.234057 
L 183.6 373.346743 
L 185.34375 369.421714 
L 187.0875 360.781714 
L 188.83125 388.8 
L 190.575 357.646629 
L 192.31875 348.5376 
L 194.0625 345.451886 
L 195.80625 334.466743 
L 197.55 330.665143 
L 199.29375 388.8 
L 201.0375 326.740114 
L 202.78125 320.494629 
L 204.525 316.149943 
L 206.26875 315.779657 
L 208.0125 388.8 
L 209.75625 316.693029 
L 211.5 317.803886 
L 213.24375 317.038629 
L 214.9875 317.976686 
L 216.73125 317.877943 
L 218.475 388.8 
L 220.21875 317.236114 
L 221.9625 313.681371 
L 223.70625 316.7424 
L 225.45 313.730743 
L 227.19375 388.8 
L 228.9375 312.101486 
L 230.68125 308.867657 
L 232.425 309.213257 
L 234.16875 311.286857 
L 235.9125 309.361371 
L 237.65625 388.8 
L 239.4 310.077257 
L 241.14375 314.644114 
L 242.8875 314.002286 
L 244.63125 312.817371 
L 246.375 314.545371 
L 248.11875 388.8 
L 249.8625 320.000914 
L 251.60625 318.840686 
L 253.35 315.730286 
L 255.09375 315.680914 
L 256.8375 388.8 
L 258.58125 316.224 
L 260.325 316.939886 
L 262.06875 316.001829 
L 263.8125 312.101486 
L 265.55625 315.162514 
L 267.3 388.8 
L 269.04375 316.668343 
L 270.7875 313.632 
L 272.53125 314.3232 
L 274.275 321.210514 
L 276.01875 319.038171 
L 277.7625 388.8 
L 279.50625 322.148571 
L 281.25 319.235657 
L 282.99375 321.901714 
L 284.7375 324.1728 
L 286.48125 388.8 
L 288.225 325.629257 
L 289.96875 320.247771 
L 291.7125 324.3456 
L 293.45625 323.555657 
L 295.2 324.6912 
L 296.94375 388.8 
L 298.6875 325.061486 
L 300.43125 324.074057 
L 302.175 325.604571 
L 303.91875 326.147657 
L 305.6625 388.8 
L 307.40625 325.653943 
L 309.15 326.320457 
L 310.89375 326.666057 
L 312.6375 323.136 
L 314.38125 323.605029 
L 316.125 388.8 
L 317.86875 320.766171 
L 319.6125 318.026057 
L 321.35625 317.902629 
L 323.1 313.1136 
L 324.84375 316.9152 
L 326.5875 388.8 
L 328.33125 314.471314 
L 330.075 319.359086 
L 331.81875 316.989257 
L 333.5625 320.173714 
L 335.30625 388.8 
L 337.05 321.037714 
L 338.79375 326.4192 
L 340.5375 337.034057 
L 342.28125 334.442057 
L 344.025 339.823543 
L 345.76875 388.8 
L 347.5125 343.032686 
L 349.25625 345.451886 
L 351 351.796114 
L 352.74375 355.943314 
L 354.4875 388.8 
L 356.23125 358.263771 
L 357.975 360.510171 
L 359.71875 363.447771 
L 361.4625 363.744 
L 363.20625 367.224686 
L 364.95 388.8 
L 366.69375 366.459429 
L 368.4375 368.088686 
L 370.18125 367.422171 
L 371.925 368.853943 
L 373.66875 367.841829 
L 375.4125 388.8 
L 377.15625 369.026743 
L 378.9 367.323429 
L 380.64375 369.2736 
L 382.3875 369.026743 
L 384.13125 388.8 
L 385.875 369.150171 
L 387.61875 369.792 
L 389.3625 370.112914 
L 391.10625 366.8544 
L 392.85 368.113371 
L 394.59375 388.8 
L 396.3375 367.496229 
L 398.08125 366.237257 
L 399.825 367.3728 
L 401.56875 367.965257 
L 403.3125 367.076571 
L 405.05625 388.8 
L 406.8 364.928914 
L 408.54375 364.805486 
L 410.2875 368.138057 
L 412.03125 365.9904 
L 413.775 388.8 
L 415.51875 366.558171 
L 417.2625 365.9904 
L 419.00625 368.310857 
L 420.75 368.829257 
L 422.49375 368.5824 
L 424.2375 388.8 
L 425.98125 366.656914 
L 427.725 369.125486 
L 429.46875 369.002057 
L 431.2125 369.125486 
L 432.95625 388.8 
L 434.7 369.4464 
L 436.44375 370.384457 
L 438.1875 371.0016 
L 439.93125 370.902857 
L 441.675 372.186514 
L 443.41875 388.8 
L 445.1625 372.161829 
L 446.90625 373.272686 
L 450.39375 372.976457 
L 452.1375 373.198629 
L 453.88125 388.8 
L 455.625 372.704914 
L 457.36875 374.482286 
L 459.1125 374.013257 
L 460.85625 374.605714 
L 462.6 388.8 
L 464.34375 374.408229 
L 466.0875 374.482286 
L 467.83125 376.1856 
L 469.575 375.84 
L 471.31875 377.173029 
L 473.0625 388.8 
L 474.80625 378.407314 
L 476.55 379.098514 
L 478.29375 381.468343 
L 480.0375 380.653714 
L 481.78125 382.036114 
L 483.525 388.8 
L 485.26875 383.393829 
L 487.0125 384.085029 
L 488.75625 384.282514 
L 490.5 384.702171 
L 492.24375 388.8 
L 493.9875 385.047771 
L 495.73125 386.109257 
L 497.475 386.133943 
L 499.21875 386.948571 
L 500.9625 386.5536 
L 502.70625 388.8 
L 504.45 387.146057 
L 506.19375 387.146057 
L 509.68125 387.4176 
L 511.425 388.8 
L 513.16875 387.886629 
L 514.9125 388.059429 
L 516.65625 385.393371 
L 516.65625 385.393371 
" style="fill:none;stroke:#0000ff;stroke-linecap:square;"/>
   </g>
   <g id="line2d_2">
    <path clip-path="url(#p4e6991b89b)" d="M 72 388.8 
L 73.74375 388.8 
L 75.4875 388.8 
L 77.23125 388.528457 
L 78.975 388.8 
L 80.71875 387.195429 
L 82.4625 386.059886 
L 84.20625 384.751543 
L 85.95 388.8 
L 87.69375 382.357029 
L 89.4375 381.1968 
L 91.18125 378.160457 
L 92.925 375.543771 
L 94.66875 388.8 
L 96.4125 371.964343 
L 98.15625 367.915886 
L 99.9 366.286629 
L 101.64375 388.8 
L 103.3875 362.287543 
L 105.13125 355.474286 
L 106.875 352.265143 
L 108.61875 388.8 
L 110.3625 347.303314 
L 112.10625 348.784457 
L 113.85 337.848686 
L 115.59375 343.501714 
L 117.3375 388.8 
L 119.08125 338.243657 
L 120.825 339.700114 
L 122.56875 341.6256 
L 124.3125 388.8 
L 126.05625 333.059657 
L 127.8 336.244114 
L 129.54375 345.649371 
L 131.2875 344.958171 
L 133.03125 388.8 
L 134.775 343.131429 
L 136.51875 347.1552 
L 138.2625 349.179429 
L 140.00625 388.8 
L 141.75 347.797029 
L 143.49375 355.350857 
L 145.2375 355.227429 
L 146.98125 388.8 
L 148.725 359.448686 
L 150.46875 357.251657 
L 152.2125 362.583771 
L 153.95625 363.447771 
L 155.7 388.8 
L 157.44375 362.830629 
L 159.1875 362.040686 
L 160.93125 363.793371 
L 162.675 388.8 
L 164.41875 363.472457 
L 166.1625 366.212571 
L 167.90625 365.941029 
L 169.65 363.3984 
L 171.39375 388.8 
L 173.1375 363.793371 
L 174.88125 363.546514 
L 176.625 367.2 
L 178.36875 388.8 
L 180.1125 361.398857 
L 181.85625 362.7072 
L 183.6 367.520914 
L 185.34375 388.8 
L 187.0875 361.152 
L 188.83125 365.916343 
L 190.575 362.312229 
L 192.31875 362.410971 
L 194.0625 388.8 
L 195.80625 364.015543 
L 197.55 357.325714 
L 199.29375 357.3504 
L 201.0375 388.8 
L 202.78125 360.929829 
L 204.525 357.547886 
L 206.26875 351.894857 
L 208.0125 350.586514 
L 209.75625 388.8 
L 211.5 349.525029 
L 213.24375 338.293029 
L 214.9875 346.686171 
L 216.73125 388.8 
L 218.475 339.477943 
L 220.21875 346.735543 
L 221.9625 338.885486 
L 223.70625 388.8 
L 225.45 346.710857 
L 227.19375 344.365714 
L 228.9375 347.476114 
L 230.68125 345.205029 
L 232.425 388.8 
L 234.16875 349.475657 
L 235.9125 346.562743 
L 237.65625 352.413257 
L 239.4 388.8 
L 241.14375 351.9936 
L 242.8875 350.142171 
L 244.63125 352.8576 
L 246.375 353.129143 
L 248.11875 388.8 
L 249.8625 351.178971 
L 251.60625 354.955886 
L 253.35 350.660571 
L 255.09375 388.8 
L 256.8375 357.251657 
L 258.58125 349.154743 
L 260.325 355.128686 
L 262.06875 388.8 
L 263.8125 352.388571 
L 265.55625 351.450514 
L 267.3 350.858057 
L 269.04375 344.0448 
L 270.7875 388.8 
L 272.53125 342.810514 
L 274.275 347.303314 
L 276.01875 342.267429 
L 277.7625 388.8 
L 279.50625 335.232 
L 281.25 341.724343 
L 282.99375 339.231086 
L 284.7375 340.712229 
L 286.48125 388.8 
L 288.225 331.405714 
L 289.96875 337.108114 
L 291.7125 346.513371 
L 293.45625 388.8 
L 295.2 337.354971 
L 296.94375 347.574857 
L 298.6875 344.094171 
L 300.43125 388.8 
L 302.175 346.340571 
L 303.91875 345.7728 
L 305.6625 349.2288 
L 307.40625 347.007086 
L 309.15 388.8 
L 310.89375 354.5856 
L 314.38125 348.340114 
L 316.125 388.8 
L 317.86875 350.734629 
L 319.6125 349.599086 
L 321.35625 350.784 
L 323.1 344.760686 
L 324.84375 388.8 
L 326.5875 345.575314 
L 328.33125 353.622857 
L 330.075 343.477029 
L 331.81875 388.8 
L 333.5625 349.204114 
L 335.30625 350.166857 
L 337.05 349.771886 
L 338.79375 388.8 
L 340.5375 351.598629 
L 342.28125 345.303771 
L 344.025 345.130971 
L 345.76875 353.055086 
L 347.5125 388.8 
L 349.25625 347.969829 
L 351 342.588343 
L 352.74375 341.551543 
L 354.4875 388.8 
L 356.23125 343.279543 
L 357.975 336.885943 
L 359.71875 341.28 
L 361.4625 338.8608 
L 363.20625 388.8 
L 364.95 344.094171 
L 366.69375 334.343314 
L 368.4375 341.724343 
L 370.18125 388.8 
L 371.925 340.218514 
L 373.66875 338.786743 
L 375.4125 337.058743 
L 377.15625 388.8 
L 378.9 338.638629 
L 380.64375 338.712686 
L 382.3875 346.093714 
L 384.13125 349.130057 
L 385.875 388.8 
L 387.61875 347.6736 
L 389.3625 352.906971 
L 391.10625 355.696457 
L 392.85 388.8 
L 394.59375 355.375543 
L 396.3375 358.016914 
L 398.08125 358.856229 
L 399.825 388.8 
L 401.56875 365.546057 
L 403.3125 360.362057 
L 405.05625 365.8176 
L 406.8 362.139429 
L 408.54375 388.8 
L 410.2875 364.583314 
L 412.03125 366.484114 
L 413.775 363.966171 
L 415.51875 388.8 
L 417.2625 364.040229 
L 419.00625 368.705829 
L 420.75 369.569829 
L 422.49375 367.866514 
L 424.2375 388.8 
L 425.98125 368.631771 
L 427.725 370.1376 
L 429.46875 368.360229 
L 431.2125 388.8 
L 432.95625 371.766857 
L 434.7 371.618743 
L 436.44375 374.506971 
L 438.1875 388.8 
L 439.93125 373.445486 
L 441.675 376.111543 
L 443.41875 375.765943 
L 445.1625 376.481829 
L 446.90625 388.8 
L 448.65 376.309029 
L 450.39375 377.691429 
L 452.1375 376.3584 
L 453.88125 388.8 
L 455.625 378.580114 
L 457.36875 376.8768 
L 459.1125 376.3584 
L 460.85625 377.123657 
L 462.6 388.8 
L 464.34375 377.098971 
L 466.0875 377.642057 
L 467.83125 373.470171 
L 469.575 388.8 
L 471.31875 374.309486 
L 473.0625 376.160914 
L 474.80625 373.717029 
L 476.55 388.8 
L 478.29375 372.704914 
L 480.0375 370.952229 
L 481.78125 372.877714 
L 483.525 372.606171 
L 485.26875 388.8 
L 487.0125 367.817143 
L 488.75625 369.6192 
L 490.5 371.026286 
L 492.24375 388.8 
L 493.9875 371.050971 
L 495.73125 368.7552 
L 497.475 370.507886 
L 499.21875 372.853029 
L 500.9625 388.8 
L 502.70625 371.445943 
L 504.45 369.594514 
L 506.19375 369.866057 
L 507.9375 388.8 
L 509.68125 373.717029 
L 511.425 369.051429 
L 513.16875 371.544686 
L 514.9125 388.8 
L 516.65625 72.872229 
L 516.65625 72.872229 
" style="fill:none;stroke:#008000;stroke-linecap:square;"/>
   </g>
   <g id="line2d_3">
    <path clip-path="url(#p4e6991b89b)" d="M 72 388.8 
L 141.75 388.775314 
L 143.49375 388.577829 
L 145.2375 388.651886 
L 146.98125 388.553143 
L 148.725 388.084114 
L 150.46875 387.886629 
L 152.2125 386.997943 
L 153.95625 387.491657 
L 155.7 386.973257 
L 157.44375 382.998857 
L 159.1875 384.381257 
L 160.93125 378.061714 
L 162.675 382.9248 
L 164.41875 380.5056 
L 166.1625 369.298286 
L 167.90625 376.8768 
L 169.65 358.313143 
L 171.39375 369.767314 
L 173.1375 369.421714 
L 174.88125 339.008914 
L 176.625 359.744914 
L 178.36875 324.592457 
L 180.1125 353.104457 
L 181.85625 352.092343 
L 183.6 313.9776 
L 185.34375 349.673143 
L 187.0875 311.089371 
L 188.83125 350.068114 
L 190.575 347.821714 
L 192.31875 313.064229 
L 194.0625 350.314971 
L 195.80625 319.630629 
L 197.55 356.239543 
L 199.29375 327.135086 
L 201.0375 361.152 
L 202.78125 365.225143 
L 204.525 344.439771 
L 206.26875 369.495771 
L 208.0125 352.042971 
L 209.75625 371.050971 
L 211.5 371.52 
L 213.24375 356.683886 
L 214.9875 374.309486 
L 216.73125 358.510629 
L 218.475 374.186057 
L 220.21875 375.050057 
L 221.9625 360.534857 
L 223.70625 374.827886 
L 225.45 360.6336 
L 227.19375 374.704457 
L 228.9375 375.963429 
L 230.68125 356.362971 
L 232.425 373.544229 
L 234.16875 356.116114 
L 235.9125 372.334629 
L 237.65625 372.137143 
L 239.4 352.8576 
L 241.14375 371.149714 
L 242.8875 354.0672 
L 244.63125 370.433829 
L 246.375 369.890743 
L 248.11875 350.858057 
L 249.8625 368.631771 
L 251.60625 350.2656 
L 253.35 368.903314 
L 255.09375 370.038857 
L 256.8375 349.5744 
L 258.58125 369.125486 
L 260.325 347.821714 
L 262.06875 368.705829 
L 263.8125 343.946057 
L 265.55625 366.138514 
L 267.3 366.879086 
L 269.04375 342.144 
L 270.7875 364.213029 
L 272.53125 342.785829 
L 274.275 366.977829 
L 276.01875 362.287543 
L 277.7625 338.194286 
L 279.50625 363.126857 
L 281.25 327.925029 
L 282.99375 354.165943 
L 284.7375 350.932114 
L 286.48125 306.818743 
L 288.225 344.958171 
L 289.96875 298.869943 
L 291.7125 349.7472 
L 293.45625 345.7728 
L 295.2 316.767086 
L 296.94375 352.191086 
L 298.6875 318.544457 
L 300.43125 353.0304 
L 302.175 354.511543 
L 303.91875 312.990171 
L 305.6625 347.945143 
L 307.40625 306.769371 
L 309.15 342.958629 
L 310.89375 341.995886 
L 312.6375 295.191771 
L 314.38125 344.020114 
L 316.125 292.920686 
L 317.86875 338.070857 
L 319.6125 339.132343 
L 321.35625 274.357029 
L 323.1 322.889143 
L 324.84375 240.216686 
L 326.5875 310.941257 
L 328.33125 218.468571 
L 330.075 302.005029 
L 331.81875 312.224914 
L 333.5625 241.599086 
L 335.30625 317.581714 
L 337.05 256.459886 
L 338.79375 323.037257 
L 340.5375 315.853714 
L 342.28125 232.909714 
L 344.025 301.066971 
L 345.76875 188.228571 
L 347.5125 288.650057 
L 349.25625 281.984914 
L 351 218.517943 
L 352.74375 316.495543 
L 354.4875 265.791086 
L 356.23125 334.614857 
L 357.975 333.109029 
L 359.71875 287.934171 
L 361.4625 334.837029 
L 363.20625 273.221486 
L 364.95 328.443429 
L 366.69375 332.4672 
L 368.4375 295.043657 
L 370.18125 352.8576 
L 371.925 336.392229 
L 373.66875 370.335086 
L 375.4125 370.3104 
L 377.15625 357.967543 
L 378.9 378.234514 
L 380.64375 372.260571 
L 382.3875 381.344914 
L 384.13125 382.826057 
L 385.875 382.752 
L 387.61875 386.0352 
L 389.3625 388.8 
L 516.65625 388.8 
L 516.65625 388.8 
" style="fill:none;stroke:#ff0000;stroke-linecap:square;"/>
   </g>
   <g id="patch_3">
    <path d="M 72 43.2 
L 518.4 43.2 
" style="fill:none;stroke:#000000;stroke-linecap:square;stroke-linejoin:miter;"/>
   </g>
   <g id="patch_4">
    <path d="M 518.4 388.8 
L 518.4 43.2 
" style="fill:none;stroke:#000000;stroke-linecap:square;stroke-linejoin:miter;"/>
   </g>
   <g id="patch_5">
    <path d="M 72 388.8 
L 518.4 388.8 
" style="fill:none;stroke:#000000;stroke-linecap:square;stroke-linejoin:miter;"/>
   </g>
   <g id="patch_6">
    <path d="M 72 388.8 
L 72 43.2 
" style="fill:none;stroke:#000000;stroke-linecap:square;stroke-linejoin:miter;"/>
   </g>
   <g id="matplotlib.axis_1">
    <g id="xtick_1">
     <g id="line2d_4">
      <defs>
       <path d="M 0 0 
L 0 -4 
" id="m3609036d4b" style="stroke:#000000;stroke-width:0.5;"/>
      </defs>
      <g>
       <use style="stroke:#000000;stroke-width:0.5;" x="72.0" xlink:href="#m3609036d4b" y="388.8"/>
      </g>
     </g>
     <g id="line2d_5">
      <defs>
       <path d="M 0 0 
L 0 4 
" id="mca337f219b" style="stroke:#000000;stroke-width:0.5;"/>
      </defs>
      <g>
       <use style="stroke:#000000;stroke-width:0.5;" x="72.0" xlink:href="#mca337f219b" y="43.19999999999999"/>
      </g>
     </g>
     <g id="text_1">
      <!-- 0 -->
      <defs>
       <path d="M 31.78125 66.40625 
Q 24.171875 66.40625 20.328125 58.90625 
Q 16.5 51.421875 16.5 36.375 
Q 16.5 21.390625 20.328125 13.890625 
Q 24.171875 6.390625 31.78125 6.390625 
Q 39.453125 6.390625 43.28125 13.890625 
Q 47.125 21.390625 47.125 36.375 
Q 47.125 51.421875 43.28125 58.90625 
Q 39.453125 66.40625 31.78125 66.40625 
M 31.78125 74.21875 
Q 44.046875 74.21875 50.515625 64.515625 
Q 56.984375 54.828125 56.984375 36.375 
Q 56.984375 17.96875 50.515625 8.265625 
Q 44.046875 -1.421875 31.78125 -1.421875 
Q 19.53125 -1.421875 13.0625 8.265625 
Q 6.59375 17.96875 6.59375 36.375 
Q 6.59375 54.828125 13.0625 64.515625 
Q 19.53125 74.21875 31.78125 74.21875 
" id="BitstreamVeraSans-Roman-30"/>
      </defs>
      <g transform="translate(68.1825 401.91812500000003)scale(0.12 -0.12)">
       <use xlink:href="#BitstreamVeraSans-Roman-30"/>
      </g>
     </g>
    </g>
    <g id="xtick_2">
     <g id="line2d_6">
      <g>
       <use style="stroke:#000000;stroke-width:0.5;" x="159.1875" xlink:href="#m3609036d4b" y="388.8"/>
      </g>
     </g>
     <g id="line2d_7">
      <g>
       <use style="stroke:#000000;stroke-width:0.5;" x="159.1875" xlink:href="#mca337f219b" y="43.19999999999999"/>
      </g>
     </g>
     <g id="text_2">
      <!-- 50 -->
      <defs>
       <path d="M 10.796875 72.90625 
L 49.515625 72.90625 
L 49.515625 64.59375 
L 19.828125 64.59375 
L 19.828125 46.734375 
Q 21.96875 47.46875 24.109375 47.828125 
Q 26.265625 48.1875 28.421875 48.1875 
Q 40.625 48.1875 47.75 41.5 
Q 54.890625 34.8125 54.890625 23.390625 
Q 54.890625 11.625 47.5625 5.09375 
Q 40.234375 -1.421875 26.90625 -1.421875 
Q 22.3125 -1.421875 17.546875 -0.640625 
Q 12.796875 0.140625 7.71875 1.703125 
L 7.71875 11.625 
Q 12.109375 9.234375 16.796875 8.0625 
Q 21.484375 6.890625 26.703125 6.890625 
Q 35.15625 6.890625 40.078125 11.328125 
Q 45.015625 15.765625 45.015625 23.390625 
Q 45.015625 31 40.078125 35.4375 
Q 35.15625 39.890625 26.703125 39.890625 
Q 22.75 39.890625 18.8125 39.015625 
Q 14.890625 38.140625 10.796875 36.28125 
z
" id="BitstreamVeraSans-Roman-35"/>
      </defs>
      <g transform="translate(151.5525 401.91812500000003)scale(0.12 -0.12)">
       <use xlink:href="#BitstreamVeraSans-Roman-35"/>
       <use x="63.623046875" xlink:href="#BitstreamVeraSans-Roman-30"/>
      </g>
     </g>
    </g>
    <g id="xtick_3">
     <g id="line2d_8">
      <g>
       <use style="stroke:#000000;stroke-width:0.5;" x="246.375" xlink:href="#m3609036d4b" y="388.8"/>
      </g>
     </g>
     <g id="line2d_9">
      <g>
       <use style="stroke:#000000;stroke-width:0.5;" x="246.375" xlink:href="#mca337f219b" y="43.19999999999999"/>
      </g>
     </g>
     <g id="text_3">
      <!-- 100 -->
      <defs>
       <path d="M 12.40625 8.296875 
L 28.515625 8.296875 
L 28.515625 63.921875 
L 10.984375 60.40625 
L 10.984375 69.390625 
L 28.421875 72.90625 
L 38.28125 72.90625 
L 38.28125 8.296875 
L 54.390625 8.296875 
L 54.390625 0 
L 12.40625 0 
z
" id="BitstreamVeraSans-Roman-31"/>
      </defs>
      <g transform="translate(234.9225 401.91812500000003)scale(0.12 -0.12)">
       <use xlink:href="#BitstreamVeraSans-Roman-31"/>
       <use x="63.623046875" xlink:href="#BitstreamVeraSans-Roman-30"/>
       <use x="127.24609375" xlink:href="#BitstreamVeraSans-Roman-30"/>
      </g>
     </g>
    </g>
    <g id="xtick_4">
     <g id="line2d_10">
      <g>
       <use style="stroke:#000000;stroke-width:0.5;" x="333.5625" xlink:href="#m3609036d4b" y="388.8"/>
      </g>
     </g>
     <g id="line2d_11">
      <g>
       <use style="stroke:#000000;stroke-width:0.5;" x="333.5625" xlink:href="#mca337f219b" y="43.19999999999999"/>
      </g>
     </g>
     <g id="text_4">
      <!-- 150 -->
      <g transform="translate(322.11 401.91812500000003)scale(0.12 -0.12)">
       <use xlink:href="#BitstreamVeraSans-Roman-31"/>
       <use x="63.623046875" xlink:href="#BitstreamVeraSans-Roman-35"/>
       <use x="127.24609375" xlink:href="#BitstreamVeraSans-Roman-30"/>
      </g>
     </g>
    </g>
    <g id="xtick_5">
     <g id="line2d_12">
      <g>
       <use style="stroke:#000000;stroke-width:0.5;" x="420.75" xlink:href="#m3609036d4b" y="388.8"/>
      </g>
     </g>
     <g id="line2d_13">
      <g>
       <use style="stroke:#000000;stroke-width:0.5;" x="420.75" xlink:href="#mca337f219b" y="43.19999999999999"/>
      </g>
     </g>
     <g id="text_5">
      <!-- 200 -->
      <defs>
       <path d="M 19.1875 8.296875 
L 53.609375 8.296875 
L 53.609375 0 
L 7.328125 0 
L 7.328125 8.296875 
Q 12.9375 14.109375 22.625 23.890625 
Q 32.328125 33.6875 34.8125 36.53125 
Q 39.546875 41.84375 41.421875 45.53125 
Q 43.3125 49.21875 43.3125 52.78125 
Q 43.3125 58.59375 39.234375 62.25 
Q 35.15625 65.921875 28.609375 65.921875 
Q 23.96875 65.921875 18.8125 64.3125 
Q 13.671875 62.703125 7.8125 59.421875 
L 7.8125 69.390625 
Q 13.765625 71.78125 18.9375 73 
Q 24.125 74.21875 28.421875 74.21875 
Q 39.75 74.21875 46.484375 68.546875 
Q 53.21875 62.890625 53.21875 53.421875 
Q 53.21875 48.921875 51.53125 44.890625 
Q 49.859375 40.875 45.40625 35.40625 
Q 44.1875 33.984375 37.640625 27.21875 
Q 31.109375 20.453125 19.1875 8.296875 
" id="BitstreamVeraSans-Roman-32"/>
      </defs>
      <g transform="translate(409.2975 401.91812500000003)scale(0.12 -0.12)">
       <use xlink:href="#BitstreamVeraSans-Roman-32"/>
       <use x="63.623046875" xlink:href="#BitstreamVeraSans-Roman-30"/>
       <use x="127.24609375" xlink:href="#BitstreamVeraSans-Roman-30"/>
      </g>
     </g>
    </g>
    <g id="xtick_6">
     <g id="line2d_14">
      <g>
       <use style="stroke:#000000;stroke-width:0.5;" x="507.9375" xlink:href="#m3609036d4b" y="388.8"/>
      </g>
     </g>
     <g id="line2d_15">
      <g>
       <use style="stroke:#000000;stroke-width:0.5;" x="507.9375" xlink:href="#mca337f219b" y="43.19999999999999"/>
      </g>
     </g>
     <g id="text_6">
      <!-- 250 -->
      <g transform="translate(496.485 401.91812500000003)scale(0.12 -0.12)">
       <use xlink:href="#BitstreamVeraSans-Roman-32"/>
       <use x="63.623046875" xlink:href="#BitstreamVeraSans-Roman-35"/>
       <use x="127.24609375" xlink:href="#BitstreamVeraSans-Roman-30"/>
      </g>
     </g>
    </g>
   </g>
   <g id="matplotlib.axis_2">
    <g id="ytick_1">
     <g id="line2d_16">
      <defs>
       <path d="M 0 0 
L 4 0 
" id="md83637426a" style="stroke:#000000;stroke-width:0.5;"/>
      </defs>
      <g>
       <use style="stroke:#000000;stroke-width:0.5;" x="72.0" xlink:href="#md83637426a" y="388.8"/>
      </g>
     </g>
     <g id="line2d_17">
      <defs>
       <path d="M 0 0 
L -4 0 
" id="m7cfca5a560" style="stroke:#000000;stroke-width:0.5;"/>
      </defs>
      <g>
       <use style="stroke:#000000;stroke-width:0.5;" x="518.4" xlink:href="#m7cfca5a560" y="388.8"/>
      </g>
     </g>
     <g id="text_7">
      <!-- 0 -->
      <g transform="translate(60.365 392.11125000000004)scale(0.12 -0.12)">
       <use xlink:href="#BitstreamVeraSans-Roman-30"/>
      </g>
     </g>
    </g>
    <g id="ytick_2">
     <g id="line2d_18">
      <g>
       <use style="stroke:#000000;stroke-width:0.5;" x="72.0" xlink:href="#md83637426a" y="339.42857142857144"/>
      </g>
     </g>
     <g id="line2d_19">
      <g>
       <use style="stroke:#000000;stroke-width:0.5;" x="518.4" xlink:href="#m7cfca5a560" y="339.42857142857144"/>
      </g>
     </g>
     <g id="text_8">
      <!-- 2000 -->
      <g transform="translate(37.46 342.7398214285714)scale(0.12 -0.12)">
       <use xlink:href="#BitstreamVeraSans-Roman-32"/>
       <use x="63.623046875" xlink:href="#BitstreamVeraSans-Roman-30"/>
       <use x="127.24609375" xlink:href="#BitstreamVeraSans-Roman-30"/>
       <use x="190.869140625" xlink:href="#BitstreamVeraSans-Roman-30"/>
      </g>
     </g>
    </g>
    <g id="ytick_3">
     <g id="line2d_20">
      <g>
       <use style="stroke:#000000;stroke-width:0.5;" x="72.0" xlink:href="#md83637426a" y="290.0571428571428"/>
      </g>
     </g>
     <g id="line2d_21">
      <g>
       <use style="stroke:#000000;stroke-width:0.5;" x="518.4" xlink:href="#m7cfca5a560" y="290.0571428571428"/>
      </g>
     </g>
     <g id="text_9">
      <!-- 4000 -->
      <defs>
       <path d="M 37.796875 64.3125 
L 12.890625 25.390625 
L 37.796875 25.390625 
z
M 35.203125 72.90625 
L 47.609375 72.90625 
L 47.609375 25.390625 
L 58.015625 25.390625 
L 58.015625 17.1875 
L 47.609375 17.1875 
L 47.609375 0 
L 37.796875 0 
L 37.796875 17.1875 
L 4.890625 17.1875 
L 4.890625 26.703125 
z
" id="BitstreamVeraSans-Roman-34"/>
      </defs>
      <g transform="translate(37.46 293.36839285714285)scale(0.12 -0.12)">
       <use xlink:href="#BitstreamVeraSans-Roman-34"/>
       <use x="63.623046875" xlink:href="#BitstreamVeraSans-Roman-30"/>
       <use x="127.24609375" xlink:href="#BitstreamVeraSans-Roman-30"/>
       <use x="190.869140625" xlink:href="#BitstreamVeraSans-Roman-30"/>
      </g>
     </g>
    </g>
    <g id="ytick_4">
     <g id="line2d_22">
      <g>
       <use style="stroke:#000000;stroke-width:0.5;" x="72.0" xlink:href="#md83637426a" y="240.68571428571428"/>
      </g>
     </g>
     <g id="line2d_23">
      <g>
       <use style="stroke:#000000;stroke-width:0.5;" x="518.4" xlink:href="#m7cfca5a560" y="240.68571428571428"/>
      </g>
     </g>
     <g id="text_10">
      <!-- 6000 -->
      <defs>
       <path d="M 33.015625 40.375 
Q 26.375 40.375 22.484375 35.828125 
Q 18.609375 31.296875 18.609375 23.390625 
Q 18.609375 15.53125 22.484375 10.953125 
Q 26.375 6.390625 33.015625 6.390625 
Q 39.65625 6.390625 43.53125 10.953125 
Q 47.40625 15.53125 47.40625 23.390625 
Q 47.40625 31.296875 43.53125 35.828125 
Q 39.65625 40.375 33.015625 40.375 
M 52.59375 71.296875 
L 52.59375 62.3125 
Q 48.875 64.0625 45.09375 64.984375 
Q 41.3125 65.921875 37.59375 65.921875 
Q 27.828125 65.921875 22.671875 59.328125 
Q 17.53125 52.734375 16.796875 39.40625 
Q 19.671875 43.65625 24.015625 45.921875 
Q 28.375 48.1875 33.59375 48.1875 
Q 44.578125 48.1875 50.953125 41.515625 
Q 57.328125 34.859375 57.328125 23.390625 
Q 57.328125 12.15625 50.6875 5.359375 
Q 44.046875 -1.421875 33.015625 -1.421875 
Q 20.359375 -1.421875 13.671875 8.265625 
Q 6.984375 17.96875 6.984375 36.375 
Q 6.984375 53.65625 15.1875 63.9375 
Q 23.390625 74.21875 37.203125 74.21875 
Q 40.921875 74.21875 44.703125 73.484375 
Q 48.484375 72.75 52.59375 71.296875 
" id="BitstreamVeraSans-Roman-36"/>
      </defs>
      <g transform="translate(37.46 243.99696428571428)scale(0.12 -0.12)">
       <use xlink:href="#BitstreamVeraSans-Roman-36"/>
       <use x="63.623046875" xlink:href="#BitstreamVeraSans-Roman-30"/>
       <use x="127.24609375" xlink:href="#BitstreamVeraSans-Roman-30"/>
       <use x="190.869140625" xlink:href="#BitstreamVeraSans-Roman-30"/>
      </g>
     </g>
    </g>
    <g id="ytick_5">
     <g id="line2d_24">
      <g>
       <use style="stroke:#000000;stroke-width:0.5;" x="72.0" xlink:href="#md83637426a" y="191.3142857142857"/>
      </g>
     </g>
     <g id="line2d_25">
      <g>
       <use style="stroke:#000000;stroke-width:0.5;" x="518.4" xlink:href="#m7cfca5a560" y="191.3142857142857"/>
      </g>
     </g>
     <g id="text_11">
      <!-- 8000 -->
      <defs>
       <path d="M 31.78125 34.625 
Q 24.75 34.625 20.71875 30.859375 
Q 16.703125 27.09375 16.703125 20.515625 
Q 16.703125 13.921875 20.71875 10.15625 
Q 24.75 6.390625 31.78125 6.390625 
Q 38.8125 6.390625 42.859375 10.171875 
Q 46.921875 13.96875 46.921875 20.515625 
Q 46.921875 27.09375 42.890625 30.859375 
Q 38.875 34.625 31.78125 34.625 
M 21.921875 38.8125 
Q 15.578125 40.375 12.03125 44.71875 
Q 8.5 49.078125 8.5 55.328125 
Q 8.5 64.0625 14.71875 69.140625 
Q 20.953125 74.21875 31.78125 74.21875 
Q 42.671875 74.21875 48.875 69.140625 
Q 55.078125 64.0625 55.078125 55.328125 
Q 55.078125 49.078125 51.53125 44.71875 
Q 48 40.375 41.703125 38.8125 
Q 48.828125 37.15625 52.796875 32.3125 
Q 56.78125 27.484375 56.78125 20.515625 
Q 56.78125 9.90625 50.3125 4.234375 
Q 43.84375 -1.421875 31.78125 -1.421875 
Q 19.734375 -1.421875 13.25 4.234375 
Q 6.78125 9.90625 6.78125 20.515625 
Q 6.78125 27.484375 10.78125 32.3125 
Q 14.796875 37.15625 21.921875 38.8125 
M 18.3125 54.390625 
Q 18.3125 48.734375 21.84375 45.5625 
Q 25.390625 42.390625 31.78125 42.390625 
Q 38.140625 42.390625 41.71875 45.5625 
Q 45.3125 48.734375 45.3125 54.390625 
Q 45.3125 60.0625 41.71875 63.234375 
Q 38.140625 66.40625 31.78125 66.40625 
Q 25.390625 66.40625 21.84375 63.234375 
Q 18.3125 60.0625 18.3125 54.390625 
" id="BitstreamVeraSans-Roman-38"/>
      </defs>
      <g transform="translate(37.46 194.6255357142857)scale(0.12 -0.12)">
       <use xlink:href="#BitstreamVeraSans-Roman-38"/>
       <use x="63.623046875" xlink:href="#BitstreamVeraSans-Roman-30"/>
       <use x="127.24609375" xlink:href="#BitstreamVeraSans-Roman-30"/>
       <use x="190.869140625" xlink:href="#BitstreamVeraSans-Roman-30"/>
      </g>
     </g>
    </g>
    <g id="ytick_6">
     <g id="line2d_26">
      <g>
       <use style="stroke:#000000;stroke-width:0.5;" x="72.0" xlink:href="#md83637426a" y="141.94285714285712"/>
      </g>
     </g>
     <g id="line2d_27">
      <g>
       <use style="stroke:#000000;stroke-width:0.5;" x="518.4" xlink:href="#m7cfca5a560" y="141.94285714285712"/>
      </g>
     </g>
     <g id="text_12">
      <!-- 10000 -->
      <g transform="translate(29.825000000000003 145.2541071428571)scale(0.12 -0.12)">
       <use xlink:href="#BitstreamVeraSans-Roman-31"/>
       <use x="63.623046875" xlink:href="#BitstreamVeraSans-Roman-30"/>
       <use x="127.24609375" xlink:href="#BitstreamVeraSans-Roman-30"/>
       <use x="190.869140625" xlink:href="#BitstreamVeraSans-Roman-30"/>
       <use x="254.4921875" xlink:href="#BitstreamVeraSans-Roman-30"/>
      </g>
     </g>
    </g>
    <g id="ytick_7">
     <g id="line2d_28">
      <g>
       <use style="stroke:#000000;stroke-width:0.5;" x="72.0" xlink:href="#md83637426a" y="92.57142857142856"/>
      </g>
     </g>
     <g id="line2d_29">
      <g>
       <use style="stroke:#000000;stroke-width:0.5;" x="518.4" xlink:href="#m7cfca5a560" y="92.57142857142856"/>
      </g>
     </g>
     <g id="text_13">
      <!-- 12000 -->
      <g transform="translate(29.825000000000003 95.88267857142853)scale(0.12 -0.12)">
       <use xlink:href="#BitstreamVeraSans-Roman-31"/>
       <use x="63.623046875" xlink:href="#BitstreamVeraSans-Roman-32"/>
       <use x="127.24609375" xlink:href="#BitstreamVeraSans-Roman-30"/>
       <use x="190.869140625" xlink:href="#BitstreamVeraSans-Roman-30"/>
       <use x="254.4921875" xlink:href="#BitstreamVeraSans-Roman-30"/>
      </g>
     </g>
    </g>
    <g id="ytick_8">
     <g id="line2d_30">
      <g>
       <use style="stroke:#000000;stroke-width:0.5;" x="72.0" xlink:href="#md83637426a" y="43.19999999999993"/>
      </g>
     </g>
     <g id="line2d_31">
      <g>
       <use style="stroke:#000000;stroke-width:0.5;" x="518.4" xlink:href="#m7cfca5a560" y="43.19999999999993"/>
      </g>
     </g>
     <g id="text_14">
      <!-- 14000 -->
      <g transform="translate(29.825000000000003 46.511249999999905)scale(0.12 -0.12)">
       <use xlink:href="#BitstreamVeraSans-Roman-31"/>
       <use x="63.623046875" xlink:href="#BitstreamVeraSans-Roman-34"/>
       <use x="127.24609375" xlink:href="#BitstreamVeraSans-Roman-30"/>
       <use x="190.869140625" xlink:href="#BitstreamVeraSans-Roman-30"/>
       <use x="254.4921875" xlink:href="#BitstreamVeraSans-Roman-30"/>
      </g>
     </g>
    </g>
   </g>
  </g>
 </g>
 <defs>
  <clipPath id="p4e6991b89b">
   <rect height="345.6" width="446.4" x="72.0" y="43.19999999999999"/>
  </clipPath>
 </defs>
</svg>
