<?xml version="1.0" encoding="utf-8" standalone="no"?>
<!DOCTYPE svg PUBLIC "-//W3C//DTD SVG 1.1//EN"
  "http://www.w3.org/Graphics/SVG/1.1/DTD/svg11.dtd">
<!-- Created with matplotlib (http://matplotlib.org/) -->
<svg height="432pt" version="1.1" viewBox="0 0 576 432" width="576pt" xmlns="http://www.w3.org/2000/svg" xmlns:xlink="http://www.w3.org/1999/xlink">
 <defs>
  <style type="text/css">
*{stroke-linecap:butt;stroke-linejoin:round;stroke-miterlimit:100000;}
  </style>
 </defs>
 <g id="figure_1">
  <g id="patch_1">
   <path d="M 0 432 
L 576 432 
L 576 0 
L 0 0 
z
" style="fill:#ffffff;"/>
  </g>
  <g id="axes_1">
   <g id="patch_2">
    <path d="M 72 388.8 
L 518.4 388.8 
L 518.4 43.2 
L 72 43.2 
z
" style="fill:#ffffff;"/>
   </g>
   <g id="line2d_1">
    <path clip-path="url(#p6e79a05991)" d="M 72 388.8 
L 80.736364 388.8 
L 82.483636 388.637022 
L 84.230909 388.8 
L 131.407273 388.753435 
L 134.901818 388.474045 
L 136.649091 388.241219 
L 140.143636 387.240071 
L 141.890909 386.285487 
L 143.638182 385.610294 
L 145.385455 374.807202 
L 147.132727 377.55454 
L 148.88 374.225139 
L 150.627273 370.523217 
L 152.374545 362.374333 
L 154.121818 359.417452 
L 155.869091 350.8262 
L 157.616364 347.915884 
L 159.363636 337.55516 
L 162.858182 330.267729 
L 164.605455 324.37725 
L 166.352727 320.279525 
L 168.1 319.930287 
L 169.847273 320.791741 
L 171.594545 321.839454 
L 173.341818 254.320128 
L 175.089091 321.909302 
L 176.836364 321.303956 
L 178.583636 317.951272 
L 180.330909 320.838306 
L 182.078182 317.997837 
L 183.825455 316.461191 
L 185.572727 313.41118 
L 187.32 313.737135 
L 189.067273 315.692867 
L 190.814545 313.87683 
L 192.561818 314.552024 
L 194.309091 318.859291 
L 196.056364 318.253945 
L 197.803636 317.136384 
L 199.550909 318.766161 
L 201.298182 323.911599 
L 203.045455 322.81732 
L 204.792727 319.883722 
L 206.54 319.837157 
L 208.287273 320.349373 
L 210.034545 321.024566 
L 211.781818 388.8 
L 213.529091 320.13983 
L 215.276364 316.461191 
L 217.023636 319.348224 
L 218.770909 320.768458 
L 220.518182 317.904707 
L 222.265455 318.556618 
L 224.012727 325.052443 
L 225.76 323.003581 
L 227.507273 325.937179 
L 229.254545 323.189841 
L 231.001818 325.704354 
L 232.749091 327.846346 
L 234.496364 329.220015 
L 236.243636 324.144424 
L 237.990909 328.009324 
L 239.738182 327.264283 
L 241.485455 328.335279 
L 243.232727 388.8 
L 244.98 328.684517 
L 246.727273 327.753216 
L 248.474545 329.196733 
L 250.221818 329.708948 
L 251.969091 329.243298 
L 253.716364 329.871926 
L 255.463636 330.197881 
L 257.210909 326.86848 
L 258.958182 327.310848 
L 260.705455 324.633357 
L 262.452727 388.8 
L 264.2 322.048997 
L 265.947273 321.932584 
L 267.694545 317.415774 
L 269.441818 321.001283 
L 271.189091 318.696313 
L 272.936364 323.306253 
L 274.683636 321.071131 
L 276.430909 324.074577 
L 278.178182 388.8 
L 279.925455 324.889465 
L 281.672727 329.965056 
L 283.42 339.976542 
L 285.167273 337.531877 
L 286.914545 342.607468 
L 288.661818 345.634196 
L 290.409091 347.915884 
L 292.156364 388.8 
L 293.903636 353.899493 
L 295.650909 357.810957 
L 299.145455 362.118225 
L 300.892727 364.888845 
L 302.64 365.168236 
L 304.387273 388.8 
L 306.134545 368.451072 
L 307.881818 367.729314 
L 309.629091 369.26596 
L 311.376364 368.637332 
L 313.123636 369.987719 
L 314.870909 388.8 
L 316.618182 369.033135 
L 318.365455 370.150696 
L 320.112727 368.544202 
L 321.86 370.383522 
L 323.607273 370.150696 
L 325.354545 388.8 
L 327.101818 370.267109 
L 328.849091 370.872455 
L 330.596364 371.175128 
L 332.343636 368.101834 
L 334.090909 369.289243 
L 335.838182 388.8 
L 337.585455 368.70718 
L 339.332727 367.519771 
L 341.08 368.590767 
L 342.827273 369.149548 
L 344.574545 388.8 
L 346.321818 368.311377 
L 348.069091 366.285797 
L 349.816364 366.169384 
L 351.563636 369.312525 
L 353.310909 388.8 
L 355.058182 367.286946 
L 356.805455 367.822444 
L 358.552727 367.286946 
L 360.3 369.475503 
L 362.047273 388.8 
L 363.794545 369.964436 
L 365.541818 369.731611 
L 367.289091 367.915574 
L 369.036364 370.243827 
L 370.783636 388.8 
L 372.530909 370.127414 
L 374.278182 370.243827 
L 376.025455 370.546499 
L 377.772727 371.431235 
L 379.52 388.8 
L 381.267273 372.013299 
L 383.014545 371.920168 
L 384.761818 373.13086 
L 386.509091 388.8 
L 388.256364 373.107577 
L 390.003636 374.155291 
L 393.498182 373.875901 
L 395.245455 388.8 
L 396.992727 374.085443 
L 398.74 373.619793 
L 400.487273 375.296135 
L 402.234545 388.8 
L 403.981818 374.853767 
L 405.729091 375.412547 
L 407.476364 375.226287 
L 409.223636 388.8 
L 410.970909 375.296135 
L 412.718182 376.902629 
L 414.465455 376.576674 
L 416.212727 388.8 
L 417.96 377.83393 
L 419.707273 378.998056 
L 421.454545 379.649967 
L 423.201818 388.8 
L 424.949091 381.88509 
L 426.696364 381.116766 
L 428.443636 382.420588 
L 430.190909 388.8 
L 431.938182 383.701127 
L 433.685455 384.353037 
L 435.432727 384.539298 
L 437.18 388.8 
L 438.927273 384.935101 
L 440.674545 385.261056 
L 442.421818 386.262205 
L 444.169091 388.8 
L 445.916364 386.285487 
L 447.663636 387.053811 
L 449.410909 388.8 
L 451.158182 386.68129 
L 452.905455 387.240071 
L 454.652727 387.240071 
L 456.4 388.8 
L 458.147273 387.379766 
L 459.894545 387.496179 
L 461.641818 387.938547 
L 463.389091 388.8 
L 465.136364 388.101524 
L 466.883636 388.171372 
L 468.630909 388.8 
L 470.378182 388.264502 
L 472.125455 388.357632 
L 473.872727 388.241219 
L 475.62 388.8 
L 477.367273 388.380915 
L 480.861818 388.8 
L 482.609091 388.637022 
L 487.850909 388.753435 
L 498.334545 388.8 
L 500.081818 388.730152 
L 505.323636 388.776717 
L 514.06 388.8 
L 517.554545 388.8 
L 517.554545 388.8 
" style="fill:none;stroke:#0000ff;stroke-linecap:square;"/>
   </g>
   <g id="line2d_2">
    <path clip-path="url(#p6e79a05991)" d="M 72 388.8 
L 73.747273 388.8 
L 75.494545 388.8 
L 77.241818 388.543892 
L 78.989091 387.286636 
L 80.736364 386.21564 
L 82.483636 384.981666 
L 84.230909 382.723261 
L 85.978182 381.628982 
L 87.725455 378.765231 
L 89.472727 376.297283 
L 91.22 372.921317 
L 92.967273 369.102983 
L 94.714545 367.566336 
L 96.461818 363.794567 
L 98.209091 357.368589 
L 99.956364 354.341861 
L 101.703636 349.662073 
L 103.450909 351.059025 
L 105.198182 340.744866 
L 106.945455 346.076564 
L 108.692727 341.117386 
L 110.44 342.491055 
L 112.187273 344.307092 
L 113.934545 336.228056 
L 115.681818 339.231501 
L 117.429091 348.102144 
L 119.176364 347.450233 
L 120.923636 345.727326 
L 122.670909 349.522378 
L 124.418182 351.431545 
L 126.165455 350.127724 
L 127.912727 357.252177 
L 129.66 357.135764 
L 131.407273 361.117076 
L 133.154545 359.044931 
L 134.901818 364.073957 
L 136.649091 364.888845 
L 138.396364 364.306782 
L 140.143636 363.561741 
L 141.890909 365.214801 
L 143.638182 364.912128 
L 145.385455 367.496488 
L 147.132727 367.240381 
L 148.88 364.84228 
L 150.627273 365.214801 
L 152.374545 364.981976 
L 154.121818 368.427789 
L 155.869091 362.956396 
L 157.616364 364.19037 
L 159.363636 368.730462 
L 161.110909 362.723571 
L 162.858182 367.217098 
L 164.605455 363.817849 
L 166.352727 363.910979 
L 168.1 365.424344 
L 169.847273 359.114779 
L 171.594545 359.138061 
L 173.341818 362.514028 
L 175.089091 359.324322 
L 176.836364 353.992623 
L 178.583636 352.758649 
L 180.330909 351.757501 
L 182.078182 341.163951 
L 183.825455 349.08001 
L 185.572727 342.281512 
L 187.32 349.126575 
L 189.067273 341.722732 
L 190.814545 349.103293 
L 192.561818 346.891453 
L 194.309091 349.825051 
L 196.056364 347.683059 
L 197.803636 351.710936 
L 199.550909 348.963597 
L 201.298182 354.481556 
L 203.045455 354.085753 
L 204.792727 352.339564 
L 206.54 354.900642 
L 208.287273 355.156749 
L 210.034545 353.31743 
L 211.781818 356.879656 
L 213.529091 352.828497 
L 215.276364 359.044931 
L 217.023636 351.408263 
L 218.770909 357.042634 
L 220.518182 354.458274 
L 222.265455 353.573538 
L 224.012727 353.014757 
L 225.76 346.58878 
L 227.507273 345.424653 
L 229.254545 349.662073 
L 231.001818 344.912438 
L 232.749091 338.276918 
L 234.496364 344.400222 
L 236.243636 342.048687 
L 237.990909 343.445639 
L 239.738182 334.668126 
L 241.485455 340.04639 
L 243.232727 348.917032 
L 244.98 340.279215 
L 246.727273 349.918181 
L 248.474545 346.635345 
L 250.221818 348.754055 
L 251.969091 348.218557 
L 253.716364 351.47811 
L 255.463636 349.382683 
L 257.210909 356.530419 
L 260.705455 350.639939 
L 262.452727 352.898344 
L 264.2 351.827348 
L 265.947273 352.944909 
L 267.694545 347.263973 
L 269.441818 348.032296 
L 271.189091 355.6224 
L 272.936364 346.053282 
L 274.683636 351.454828 
L 276.430909 352.362846 
L 278.178182 351.990326 
L 279.925455 353.713233 
L 281.672727 347.776189 
L 283.42 347.613211 
L 285.167273 355.086902 
L 288.661818 345.215111 
L 290.409091 344.237245 
L 292.156364 345.867021 
L 293.903636 339.836847 
L 295.650909 343.981137 
L 297.398182 341.699449 
L 299.145455 346.635345 
L 300.892727 337.438747 
L 302.64 344.400222 
L 307.881818 339.999825 
L 309.629091 341.489907 
L 311.376364 341.559754 
L 313.123636 348.521229 
L 314.870909 351.38498 
L 316.618182 350.011311 
L 318.365455 354.947207 
L 320.112727 357.578132 
L 321.86 357.275459 
L 323.607273 359.76669 
L 325.354545 360.558296 
L 327.101818 366.86786 
L 328.849091 361.97853 
L 330.596364 367.123968 
L 332.343636 363.654872 
L 334.090909 365.959842 
L 335.838182 367.752596 
L 337.585455 365.377779 
L 339.332727 365.447626 
L 341.08 369.848024 
L 342.827273 370.662912 
L 344.574545 369.056418 
L 346.321818 369.778176 
L 348.069091 371.19841 
L 349.816364 369.522068 
L 351.563636 372.735057 
L 353.310909 372.595362 
L 355.058182 375.319417 
L 356.805455 374.318269 
L 358.552727 376.832781 
L 360.3 376.506826 
L 362.047273 377.182019 
L 363.794545 377.019042 
L 365.541818 378.322863 
L 367.289091 377.065607 
L 369.036364 379.161034 
L 370.783636 377.55454 
L 372.530909 377.065607 
L 374.278182 377.787365 
L 376.025455 377.764083 
L 377.772727 378.276298 
L 379.52 374.341551 
L 381.267273 375.133157 
L 383.014545 376.879347 
L 384.761818 374.574376 
L 386.509091 373.619793 
L 388.256364 371.966733 
L 390.003636 373.782771 
L 391.750909 373.526663 
L 393.498182 369.009853 
L 395.245455 370.709477 
L 396.992727 372.036581 
L 398.74 372.059864 
L 400.487273 369.894589 
L 402.234545 371.547648 
L 403.981818 373.759488 
L 405.729091 372.432384 
L 407.476364 370.686195 
L 409.223636 370.942302 
L 410.970909 374.574376 
L 412.718182 370.173979 
L 414.465455 372.525514 
L 416.212727 370.290392 
L 417.96 370.616347 
L 419.707273 369.475503 
L 421.454545 369.801459 
L 423.201818 367.566336 
L 424.949091 369.17283 
L 426.696364 368.98657 
L 428.443636 369.0797 
L 430.190909 370.453369 
L 431.938182 372.804904 
L 433.685455 372.502232 
L 435.432727 375.459112 
L 437.18 377.182019 
L 438.927273 380.022488 
L 440.674545 379.76638 
L 442.421818 382.094632 
L 444.169091 381.954937 
L 445.916364 383.188911 
L 447.663636 384.120212 
L 449.410909 384.888536 
L 451.158182 384.911818 
L 452.905455 385.889684 
L 456.4 386.425182 
L 458.147273 386.285487 
L 459.894545 387.216788 
L 461.641818 387.472896 
L 465.136364 387.659156 
L 466.883636 388.42748 
L 468.630909 388.380915 
L 470.378182 388.567175 
L 473.872727 388.683587 
L 475.62 388.590457 
L 477.367273 388.753435 
L 487.850909 388.8 
L 517.554545 388.8 
L 517.554545 388.8 
" style="fill:none;stroke:#008000;stroke-linecap:square;"/>
   </g>
   <g id="line2d_3">
    <path clip-path="url(#p6e79a05991)" d="M 73.12033 -1 
L 73.747273 375.133157 
L 75.494545 374.434681 
L 77.241818 374.597659 
L 78.989091 375.016744 
L 80.736364 375.831633 
L 82.483636 362.141507 
L 84.230909 375.62209 
L 85.978182 375.24957 
L 87.725455 375.785068 
L 89.472727 375.505677 
L 91.22 376.693086 
L 92.967273 373.340403 
L 94.714545 373.666358 
L 96.461818 374.411399 
L 98.209091 371.803756 
L 99.956364 374.970179 
L 101.703636 373.270555 
L 105.198182 372.851469 
L 106.945455 370.849172 
L 108.692727 372.152994 
L 110.44 388.8 
L 112.187273 373.270555 
L 113.934545 371.570931 
L 115.681818 371.4778 
L 117.429091 370.965585 
L 119.176364 370.988867 
L 120.923636 370.82589 
L 122.670909 369.778176 
L 124.418182 388.8 
L 126.165455 369.778176 
L 127.912727 371.4778 
L 129.66 370.034284 
L 131.407273 371.10528 
L 133.154545 388.8 
L 134.901818 370.709477 
L 136.649091 369.894589 
L 138.396364 370.243827 
L 140.143636 388.8 
L 141.890909 370.197261 
L 143.638182 368.753745 
L 145.385455 369.848024 
L 147.132727 388.8 
L 148.88 367.612901 
L 150.627273 367.682749 
L 152.374545 367.426641 
L 154.121818 388.8 
L 155.869091 368.125117 
L 157.616364 365.261366 
L 159.363636 368.334659 
L 161.110909 388.8 
L 162.858182 365.610604 
L 164.605455 367.566336 
L 166.352727 388.8 
L 168.1 366.635035 
L 169.847273 368.218247 
L 171.594545 388.8 
L 173.341818 363.794567 
L 175.089091 366.052972 
L 176.836364 388.8 
L 178.583636 363.817849 
L 180.330909 364.586173 
L 182.078182 388.8 
L 183.825455 360.488448 
L 185.572727 359.696842 
L 187.32 388.8 
L 189.067273 356.134616 
L 190.814545 353.084605 
L 192.561818 388.8 
L 194.309091 350.639939 
L 196.056364 388.8 
L 197.803636 349.638791 
L 199.550909 347.450233 
L 201.298182 388.8 
L 203.045455 345.168546 
L 204.792727 388.8 
L 206.54 347.613211 
L 208.287273 351.967043 
L 210.034545 388.8 
L 211.781818 348.218557 
L 213.529091 388.8 
L 215.276364 355.24988 
L 217.023636 354.411709 
L 218.770909 388.8 
L 220.518182 354.272013 
L 222.265455 388.8 
L 224.012727 355.99492 
L 225.76 355.34301 
L 227.507273 388.8 
L 229.254545 355.063619 
L 231.001818 388.8 
L 232.749091 356.460571 
L 234.496364 388.8 
L 236.243636 354.365144 
L 237.990909 388.8 
L 239.738182 351.734218 
L 241.485455 350.267419 
L 243.232727 388.8 
L 244.98 350.220854 
L 246.727273 388.8 
L 248.474545 350.011311 
L 250.221818 388.8 
L 251.969091 345.564349 
L 253.716364 388.8 
L 255.463636 344.65633 
L 257.210909 388.8 
L 258.958182 346.58878 
L 260.705455 388.8 
L 262.452727 342.72388 
L 264.2 346.565497 
L 265.947273 388.8 
L 267.694545 343.259379 
L 269.441818 388.8 
L 271.189091 343.911289 
L 272.936364 388.8 
L 274.683636 340.954408 
L 276.430909 388.8 
L 278.178182 341.955557 
L 279.925455 388.8 
L 281.672727 335.180342 
L 283.42 388.8 
L 285.167273 334.481866 
L 286.914545 388.8 
L 288.661818 326.635655 
L 290.409091 388.8 
L 292.156364 323.911599 
L 293.903636 388.8 
L 295.650909 313.550875 
L 297.398182 388.8 
L 299.145455 315.366912 
L 300.892727 388.8 
L 302.64 307.869939 
L 304.387273 388.8 
L 306.134545 309.08063 
L 307.881818 388.8 
L 309.629091 388.8 
L 311.376364 306.938637 
L 313.123636 388.8 
L 314.870909 316.577603 
L 316.618182 388.8 
L 318.365455 314.854696 
L 320.112727 388.8 
L 321.86 323.911599 
L 323.607273 388.8 
L 325.354545 321.629912 
L 327.101818 388.8 
L 328.849091 327.566956 
L 330.596364 388.8 
L 332.343636 325.215421 
L 334.090909 388.8 
L 335.838182 388.8 
L 337.585455 326.77535 
L 339.332727 388.8 
L 341.08 320.000135 
L 342.827273 388.8 
L 344.574545 320.000135 
L 346.321818 388.8 
L 348.069091 310.570712 
L 349.816364 388.8 
L 351.563636 306.053901 
L 353.310909 388.8 
L 355.058182 388.8 
L 356.805455 292.456906 
L 358.552727 388.8 
L 360.3 295.972568 
L 362.047273 388.8 
L 363.794545 294.342791 
L 365.541818 388.8 
L 367.289091 388.8 
L 369.036364 288.056509 
L 370.783636 388.8 
L 372.530909 302.35198 
L 374.278182 388.8 
L 376.025455 314.645154 
L 377.772727 388.8 
L 379.52 388.8 
L 381.267273 320.60548 
L 383.014545 388.8 
L 384.761818 329.406275 
L 386.509091 388.8 
L 388.256364 332.176896 
L 390.003636 388.8 
L 391.750909 388.8 
L 393.498182 337.694855 
L 395.245455 388.8 
L 396.992727 336.274621 
L 398.74 388.8 
L 400.487273 343.166248 
L 402.234545 388.8 
L 403.981818 388.8 
L 405.729091 339.301349 
L 407.476364 388.8 
L 409.223636 337.904397 
L 410.970909 388.8 
L 412.718182 388.8 
L 414.465455 336.065078 
L 416.212727 388.8 
L 417.96 332.526134 
L 419.707273 388.8 
L 421.454545 388.8 
L 423.201818 331.874223 
L 424.949091 388.8 
L 426.696364 335.669275 
L 428.443636 388.8 
L 430.190909 388.8 
L 431.938182 346.286107 
L 433.685455 388.8 
L 435.432727 342.886858 
L 437.18 388.8 
L 438.927273 388.8 
L 440.674545 354.900642 
L 442.421818 388.8 
L 444.169091 362.327768 
L 445.916364 388.8 
L 447.663636 388.8 
L 449.410909 365.843429 
L 451.158182 388.8 
L 452.905455 371.38467 
L 454.652727 388.8 
L 456.4 388.8 
L 458.147273 371.361388 
L 459.894545 388.8 
L 461.641818 388.8 
L 463.389091 373.270555 
L 465.136364 388.8 
L 466.883636 375.24957 
L 468.630909 388.8 
L 470.378182 388.8 
L 472.125455 378.835079 
L 473.872727 388.8 
L 475.62 380.488138 
L 477.367273 388.8 
L 479.114545 388.8 
L 480.861818 381.512569 
L 482.609091 388.8 
L 484.356364 388.8 
L 486.103636 381.768677 
L 487.850909 388.8 
L 489.598182 383.165629 
L 491.345455 388.8 
L 493.092727 388.8 
L 494.84 384.65571 
L 496.587273 388.8 
L 498.334545 388.8 
L 500.081818 387.240071 
L 501.829091 388.8 
L 503.576364 388.8 
L 505.323636 386.192357 
L 507.070909 388.8 
L 517.554545 388.8 
L 517.554545 388.8 
" style="fill:none;stroke:#ff0000;stroke-linecap:square;"/>
   </g>
   <g id="patch_3">
    <path d="M 72 43.2 
L 518.4 43.2 
" style="fill:none;stroke:#000000;stroke-linecap:square;stroke-linejoin:miter;"/>
   </g>
   <g id="patch_4">
    <path d="M 518.4 388.8 
L 518.4 43.2 
" style="fill:none;stroke:#000000;stroke-linecap:square;stroke-linejoin:miter;"/>
   </g>
   <g id="patch_5">
    <path d="M 72 388.8 
L 518.4 388.8 
" style="fill:none;stroke:#000000;stroke-linecap:square;stroke-linejoin:miter;"/>
   </g>
   <g id="patch_6">
    <path d="M 72 388.8 
L 72 43.2 
" style="fill:none;stroke:#000000;stroke-linecap:square;stroke-linejoin:miter;"/>
   </g>
   <g id="matplotlib.axis_1">
    <g id="xtick_1">
     <g id="line2d_4">
      <defs>
       <path d="M 0 0 
L 0 -4 
" id="m3c7e1edb65" style="stroke:#000000;stroke-width:0.5;"/>
      </defs>
      <g>
       <use style="stroke:#000000;stroke-width:0.5;" x="72.0" xlink:href="#m3c7e1edb65" y="388.8"/>
      </g>
     </g>
     <g id="line2d_5">
      <defs>
       <path d="M 0 0 
L 0 4 
" id="me0fcd57dd8" style="stroke:#000000;stroke-width:0.5;"/>
      </defs>
      <g>
       <use style="stroke:#000000;stroke-width:0.5;" x="72.0" xlink:href="#me0fcd57dd8" y="43.19999999999999"/>
      </g>
     </g>
     <g id="text_1">
      <!-- 0 -->
      <defs>
       <path d="M 31.78125 66.40625 
Q 24.171875 66.40625 20.328125 58.90625 
Q 16.5 51.421875 16.5 36.375 
Q 16.5 21.390625 20.328125 13.890625 
Q 24.171875 6.390625 31.78125 6.390625 
Q 39.453125 6.390625 43.28125 13.890625 
Q 47.125 21.390625 47.125 36.375 
Q 47.125 51.421875 43.28125 58.90625 
Q 39.453125 66.40625 31.78125 66.40625 
M 31.78125 74.21875 
Q 44.046875 74.21875 50.515625 64.515625 
Q 56.984375 54.828125 56.984375 36.375 
Q 56.984375 17.96875 50.515625 8.265625 
Q 44.046875 -1.421875 31.78125 -1.421875 
Q 19.53125 -1.421875 13.0625 8.265625 
Q 6.59375 17.96875 6.59375 36.375 
Q 6.59375 54.828125 13.0625 64.515625 
Q 19.53125 74.21875 31.78125 74.21875 
" id="BitstreamVeraSans-Roman-30"/>
      </defs>
      <g transform="translate(68.1825 401.91812500000003)scale(0.12 -0.12)">
       <use xlink:href="#BitstreamVeraSans-Roman-30"/>
      </g>
     </g>
    </g>
    <g id="xtick_2">
     <g id="line2d_6">
      <g>
       <use style="stroke:#000000;stroke-width:0.5;" x="159.36363636363637" xlink:href="#m3c7e1edb65" y="388.8"/>
      </g>
     </g>
     <g id="line2d_7">
      <g>
       <use style="stroke:#000000;stroke-width:0.5;" x="159.36363636363637" xlink:href="#me0fcd57dd8" y="43.19999999999999"/>
      </g>
     </g>
     <g id="text_2">
      <!-- 50 -->
      <defs>
       <path d="M 10.796875 72.90625 
L 49.515625 72.90625 
L 49.515625 64.59375 
L 19.828125 64.59375 
L 19.828125 46.734375 
Q 21.96875 47.46875 24.109375 47.828125 
Q 26.265625 48.1875 28.421875 48.1875 
Q 40.625 48.1875 47.75 41.5 
Q 54.890625 34.8125 54.890625 23.390625 
Q 54.890625 11.625 47.5625 5.09375 
Q 40.234375 -1.421875 26.90625 -1.421875 
Q 22.3125 -1.421875 17.546875 -0.640625 
Q 12.796875 0.140625 7.71875 1.703125 
L 7.71875 11.625 
Q 12.109375 9.234375 16.796875 8.0625 
Q 21.484375 6.890625 26.703125 6.890625 
Q 35.15625 6.890625 40.078125 11.328125 
Q 45.015625 15.765625 45.015625 23.390625 
Q 45.015625 31 40.078125 35.4375 
Q 35.15625 39.890625 26.703125 39.890625 
Q 22.75 39.890625 18.8125 39.015625 
Q 14.890625 38.140625 10.796875 36.28125 
z
" id="BitstreamVeraSans-Roman-35"/>
      </defs>
      <g transform="translate(151.72863636363638 401.91812500000003)scale(0.12 -0.12)">
       <use xlink:href="#BitstreamVeraSans-Roman-35"/>
       <use x="63.623046875" xlink:href="#BitstreamVeraSans-Roman-30"/>
      </g>
     </g>
    </g>
    <g id="xtick_3">
     <g id="line2d_8">
      <g>
       <use style="stroke:#000000;stroke-width:0.5;" x="246.72727272727272" xlink:href="#m3c7e1edb65" y="388.8"/>
      </g>
     </g>
     <g id="line2d_9">
      <g>
       <use style="stroke:#000000;stroke-width:0.5;" x="246.72727272727272" xlink:href="#me0fcd57dd8" y="43.19999999999999"/>
      </g>
     </g>
     <g id="text_3">
      <!-- 100 -->
      <defs>
       <path d="M 12.40625 8.296875 
L 28.515625 8.296875 
L 28.515625 63.921875 
L 10.984375 60.40625 
L 10.984375 69.390625 
L 28.421875 72.90625 
L 38.28125 72.90625 
L 38.28125 8.296875 
L 54.390625 8.296875 
L 54.390625 0 
L 12.40625 0 
z
" id="BitstreamVeraSans-Roman-31"/>
      </defs>
      <g transform="translate(235.27477272727273 401.91812500000003)scale(0.12 -0.12)">
       <use xlink:href="#BitstreamVeraSans-Roman-31"/>
       <use x="63.623046875" xlink:href="#BitstreamVeraSans-Roman-30"/>
       <use x="127.24609375" xlink:href="#BitstreamVeraSans-Roman-30"/>
      </g>
     </g>
    </g>
    <g id="xtick_4">
     <g id="line2d_10">
      <g>
       <use style="stroke:#000000;stroke-width:0.5;" x="334.0909090909091" xlink:href="#m3c7e1edb65" y="388.8"/>
      </g>
     </g>
     <g id="line2d_11">
      <g>
       <use style="stroke:#000000;stroke-width:0.5;" x="334.0909090909091" xlink:href="#me0fcd57dd8" y="43.19999999999999"/>
      </g>
     </g>
     <g id="text_4">
      <!-- 150 -->
      <g transform="translate(322.63840909090914 401.91812500000003)scale(0.12 -0.12)">
       <use xlink:href="#BitstreamVeraSans-Roman-31"/>
       <use x="63.623046875" xlink:href="#BitstreamVeraSans-Roman-35"/>
       <use x="127.24609375" xlink:href="#BitstreamVeraSans-Roman-30"/>
      </g>
     </g>
    </g>
    <g id="xtick_5">
     <g id="line2d_12">
      <g>
       <use style="stroke:#000000;stroke-width:0.5;" x="421.45454545454544" xlink:href="#m3c7e1edb65" y="388.8"/>
      </g>
     </g>
     <g id="line2d_13">
      <g>
       <use style="stroke:#000000;stroke-width:0.5;" x="421.45454545454544" xlink:href="#me0fcd57dd8" y="43.19999999999999"/>
      </g>
     </g>
     <g id="text_5">
      <!-- 200 -->
      <defs>
       <path d="M 19.1875 8.296875 
L 53.609375 8.296875 
L 53.609375 0 
L 7.328125 0 
L 7.328125 8.296875 
Q 12.9375 14.109375 22.625 23.890625 
Q 32.328125 33.6875 34.8125 36.53125 
Q 39.546875 41.84375 41.421875 45.53125 
Q 43.3125 49.21875 43.3125 52.78125 
Q 43.3125 58.59375 39.234375 62.25 
Q 35.15625 65.921875 28.609375 65.921875 
Q 23.96875 65.921875 18.8125 64.3125 
Q 13.671875 62.703125 7.8125 59.421875 
L 7.8125 69.390625 
Q 13.765625 71.78125 18.9375 73 
Q 24.125 74.21875 28.421875 74.21875 
Q 39.75 74.21875 46.484375 68.546875 
Q 53.21875 62.890625 53.21875 53.421875 
Q 53.21875 48.921875 51.53125 44.890625 
Q 49.859375 40.875 45.40625 35.40625 
Q 44.1875 33.984375 37.640625 27.21875 
Q 31.109375 20.453125 19.1875 8.296875 
" id="BitstreamVeraSans-Roman-32"/>
      </defs>
      <g transform="translate(410.00204545454545 401.91812500000003)scale(0.12 -0.12)">
       <use xlink:href="#BitstreamVeraSans-Roman-32"/>
       <use x="63.623046875" xlink:href="#BitstreamVeraSans-Roman-30"/>
       <use x="127.24609375" xlink:href="#BitstreamVeraSans-Roman-30"/>
      </g>
     </g>
    </g>
    <g id="xtick_6">
     <g id="line2d_14">
      <g>
       <use style="stroke:#000000;stroke-width:0.5;" x="508.8181818181818" xlink:href="#m3c7e1edb65" y="388.8"/>
      </g>
     </g>
     <g id="line2d_15">
      <g>
       <use style="stroke:#000000;stroke-width:0.5;" x="508.8181818181818" xlink:href="#me0fcd57dd8" y="43.19999999999999"/>
      </g>
     </g>
     <g id="text_6">
      <!-- 250 -->
      <g transform="translate(497.3656818181818 401.91812500000003)scale(0.12 -0.12)">
       <use xlink:href="#BitstreamVeraSans-Roman-32"/>
       <use x="63.623046875" xlink:href="#BitstreamVeraSans-Roman-35"/>
       <use x="127.24609375" xlink:href="#BitstreamVeraSans-Roman-30"/>
      </g>
     </g>
    </g>
   </g>
   <g id="matplotlib.axis_2">
    <g id="ytick_1">
     <g id="line2d_16">
      <defs>
       <path d="M 0 0 
L 4 0 
" id="m1dc4d28f38" style="stroke:#000000;stroke-width:0.5;"/>
      </defs>
      <g>
       <use style="stroke:#000000;stroke-width:0.5;" x="72.0" xlink:href="#m1dc4d28f38" y="388.8"/>
      </g>
     </g>
     <g id="line2d_17">
      <defs>
       <path d="M 0 0 
L -4 0 
" id="mf6aebb971a" style="stroke:#000000;stroke-width:0.5;"/>
      </defs>
      <g>
       <use style="stroke:#000000;stroke-width:0.5;" x="518.4" xlink:href="#mf6aebb971a" y="388.8"/>
      </g>
     </g>
     <g id="text_7">
      <!-- 0 -->
      <g transform="translate(60.365 392.11125000000004)scale(0.12 -0.12)">
       <use xlink:href="#BitstreamVeraSans-Roman-30"/>
      </g>
     </g>
    </g>
    <g id="ytick_2">
     <g id="line2d_18">
      <g>
       <use style="stroke:#000000;stroke-width:0.5;" x="72.0" xlink:href="#m1dc4d28f38" y="342.23494736842105"/>
      </g>
     </g>
     <g id="line2d_19">
      <g>
       <use style="stroke:#000000;stroke-width:0.5;" x="518.4" xlink:href="#mf6aebb971a" y="342.23494736842105"/>
      </g>
     </g>
     <g id="text_8">
      <!-- 2000 -->
      <g transform="translate(37.46 345.5461973684211)scale(0.12 -0.12)">
       <use xlink:href="#BitstreamVeraSans-Roman-32"/>
       <use x="63.623046875" xlink:href="#BitstreamVeraSans-Roman-30"/>
       <use x="127.24609375" xlink:href="#BitstreamVeraSans-Roman-30"/>
       <use x="190.869140625" xlink:href="#BitstreamVeraSans-Roman-30"/>
      </g>
     </g>
    </g>
    <g id="ytick_3">
     <g id="line2d_20">
      <g>
       <use style="stroke:#000000;stroke-width:0.5;" x="72.0" xlink:href="#m1dc4d28f38" y="295.66989473684214"/>
      </g>
     </g>
     <g id="line2d_21">
      <g>
       <use style="stroke:#000000;stroke-width:0.5;" x="518.4" xlink:href="#mf6aebb971a" y="295.66989473684214"/>
      </g>
     </g>
     <g id="text_9">
      <!-- 4000 -->
      <defs>
       <path d="M 37.796875 64.3125 
L 12.890625 25.390625 
L 37.796875 25.390625 
z
M 35.203125 72.90625 
L 47.609375 72.90625 
L 47.609375 25.390625 
L 58.015625 25.390625 
L 58.015625 17.1875 
L 47.609375 17.1875 
L 47.609375 0 
L 37.796875 0 
L 37.796875 17.1875 
L 4.890625 17.1875 
L 4.890625 26.703125 
z
" id="BitstreamVeraSans-Roman-34"/>
      </defs>
      <g transform="translate(37.46 298.9811447368421)scale(0.12 -0.12)">
       <use xlink:href="#BitstreamVeraSans-Roman-34"/>
       <use x="63.623046875" xlink:href="#BitstreamVeraSans-Roman-30"/>
       <use x="127.24609375" xlink:href="#BitstreamVeraSans-Roman-30"/>
       <use x="190.869140625" xlink:href="#BitstreamVeraSans-Roman-30"/>
      </g>
     </g>
    </g>
    <g id="ytick_4">
     <g id="line2d_22">
      <g>
       <use style="stroke:#000000;stroke-width:0.5;" x="72.0" xlink:href="#m1dc4d28f38" y="249.10484210526317"/>
      </g>
     </g>
     <g id="line2d_23">
      <g>
       <use style="stroke:#000000;stroke-width:0.5;" x="518.4" xlink:href="#mf6aebb971a" y="249.10484210526317"/>
      </g>
     </g>
     <g id="text_10">
      <!-- 6000 -->
      <defs>
       <path d="M 33.015625 40.375 
Q 26.375 40.375 22.484375 35.828125 
Q 18.609375 31.296875 18.609375 23.390625 
Q 18.609375 15.53125 22.484375 10.953125 
Q 26.375 6.390625 33.015625 6.390625 
Q 39.65625 6.390625 43.53125 10.953125 
Q 47.40625 15.53125 47.40625 23.390625 
Q 47.40625 31.296875 43.53125 35.828125 
Q 39.65625 40.375 33.015625 40.375 
M 52.59375 71.296875 
L 52.59375 62.3125 
Q 48.875 64.0625 45.09375 64.984375 
Q 41.3125 65.921875 37.59375 65.921875 
Q 27.828125 65.921875 22.671875 59.328125 
Q 17.53125 52.734375 16.796875 39.40625 
Q 19.671875 43.65625 24.015625 45.921875 
Q 28.375 48.1875 33.59375 48.1875 
Q 44.578125 48.1875 50.953125 41.515625 
Q 57.328125 34.859375 57.328125 23.390625 
Q 57.328125 12.15625 50.6875 5.359375 
Q 44.046875 -1.421875 33.015625 -1.421875 
Q 20.359375 -1.421875 13.671875 8.265625 
Q 6.984375 17.96875 6.984375 36.375 
Q 6.984375 53.65625 15.1875 63.9375 
Q 23.390625 74.21875 37.203125 74.21875 
Q 40.921875 74.21875 44.703125 73.484375 
Q 48.484375 72.75 52.59375 71.296875 
" id="BitstreamVeraSans-Roman-36"/>
      </defs>
      <g transform="translate(37.46 252.41609210526317)scale(0.12 -0.12)">
       <use xlink:href="#BitstreamVeraSans-Roman-36"/>
       <use x="63.623046875" xlink:href="#BitstreamVeraSans-Roman-30"/>
       <use x="127.24609375" xlink:href="#BitstreamVeraSans-Roman-30"/>
       <use x="190.869140625" xlink:href="#BitstreamVeraSans-Roman-30"/>
      </g>
     </g>
    </g>
    <g id="ytick_5">
     <g id="line2d_24">
      <g>
       <use style="stroke:#000000;stroke-width:0.5;" x="72.0" xlink:href="#m1dc4d28f38" y="202.53978947368424"/>
      </g>
     </g>
     <g id="line2d_25">
      <g>
       <use style="stroke:#000000;stroke-width:0.5;" x="518.4" xlink:href="#mf6aebb971a" y="202.53978947368424"/>
      </g>
     </g>
     <g id="text_11">
      <!-- 8000 -->
      <defs>
       <path d="M 31.78125 34.625 
Q 24.75 34.625 20.71875 30.859375 
Q 16.703125 27.09375 16.703125 20.515625 
Q 16.703125 13.921875 20.71875 10.15625 
Q 24.75 6.390625 31.78125 6.390625 
Q 38.8125 6.390625 42.859375 10.171875 
Q 46.921875 13.96875 46.921875 20.515625 
Q 46.921875 27.09375 42.890625 30.859375 
Q 38.875 34.625 31.78125 34.625 
M 21.921875 38.8125 
Q 15.578125 40.375 12.03125 44.71875 
Q 8.5 49.078125 8.5 55.328125 
Q 8.5 64.0625 14.71875 69.140625 
Q 20.953125 74.21875 31.78125 74.21875 
Q 42.671875 74.21875 48.875 69.140625 
Q 55.078125 64.0625 55.078125 55.328125 
Q 55.078125 49.078125 51.53125 44.71875 
Q 48 40.375 41.703125 38.8125 
Q 48.828125 37.15625 52.796875 32.3125 
Q 56.78125 27.484375 56.78125 20.515625 
Q 56.78125 9.90625 50.3125 4.234375 
Q 43.84375 -1.421875 31.78125 -1.421875 
Q 19.734375 -1.421875 13.25 4.234375 
Q 6.78125 9.90625 6.78125 20.515625 
Q 6.78125 27.484375 10.78125 32.3125 
Q 14.796875 37.15625 21.921875 38.8125 
M 18.3125 54.390625 
Q 18.3125 48.734375 21.84375 45.5625 
Q 25.390625 42.390625 31.78125 42.390625 
Q 38.140625 42.390625 41.71875 45.5625 
Q 45.3125 48.734375 45.3125 54.390625 
Q 45.3125 60.0625 41.71875 63.234375 
Q 38.140625 66.40625 31.78125 66.40625 
Q 25.390625 66.40625 21.84375 63.234375 
Q 18.3125 60.0625 18.3125 54.390625 
" id="BitstreamVeraSans-Roman-38"/>
      </defs>
      <g transform="translate(37.46 205.85103947368424)scale(0.12 -0.12)">
       <use xlink:href="#BitstreamVeraSans-Roman-38"/>
       <use x="63.623046875" xlink:href="#BitstreamVeraSans-Roman-30"/>
       <use x="127.24609375" xlink:href="#BitstreamVeraSans-Roman-30"/>
       <use x="190.869140625" xlink:href="#BitstreamVeraSans-Roman-30"/>
      </g>
     </g>
    </g>
    <g id="ytick_6">
     <g id="line2d_26">
      <g>
       <use style="stroke:#000000;stroke-width:0.5;" x="72.0" xlink:href="#m1dc4d28f38" y="155.9747368421053"/>
      </g>
     </g>
     <g id="line2d_27">
      <g>
       <use style="stroke:#000000;stroke-width:0.5;" x="518.4" xlink:href="#mf6aebb971a" y="155.9747368421053"/>
      </g>
     </g>
     <g id="text_12">
      <!-- 10000 -->
      <g transform="translate(29.825000000000003 159.28598684210527)scale(0.12 -0.12)">
       <use xlink:href="#BitstreamVeraSans-Roman-31"/>
       <use x="63.623046875" xlink:href="#BitstreamVeraSans-Roman-30"/>
       <use x="127.24609375" xlink:href="#BitstreamVeraSans-Roman-30"/>
       <use x="190.869140625" xlink:href="#BitstreamVeraSans-Roman-30"/>
       <use x="254.4921875" xlink:href="#BitstreamVeraSans-Roman-30"/>
      </g>
     </g>
    </g>
    <g id="ytick_7">
     <g id="line2d_28">
      <g>
       <use style="stroke:#000000;stroke-width:0.5;" x="72.0" xlink:href="#m1dc4d28f38" y="109.40968421052634"/>
      </g>
     </g>
     <g id="line2d_29">
      <g>
       <use style="stroke:#000000;stroke-width:0.5;" x="518.4" xlink:href="#mf6aebb971a" y="109.40968421052634"/>
      </g>
     </g>
     <g id="text_13">
      <!-- 12000 -->
      <g transform="translate(29.825000000000003 112.72093421052631)scale(0.12 -0.12)">
       <use xlink:href="#BitstreamVeraSans-Roman-31"/>
       <use x="63.623046875" xlink:href="#BitstreamVeraSans-Roman-32"/>
       <use x="127.24609375" xlink:href="#BitstreamVeraSans-Roman-30"/>
       <use x="190.869140625" xlink:href="#BitstreamVeraSans-Roman-30"/>
       <use x="254.4921875" xlink:href="#BitstreamVeraSans-Roman-30"/>
      </g>
     </g>
    </g>
    <g id="ytick_8">
     <g id="line2d_30">
      <g>
       <use style="stroke:#000000;stroke-width:0.5;" x="72.0" xlink:href="#m1dc4d28f38" y="62.84463157894737"/>
      </g>
     </g>
     <g id="line2d_31">
      <g>
       <use style="stroke:#000000;stroke-width:0.5;" x="518.4" xlink:href="#mf6aebb971a" y="62.84463157894737"/>
      </g>
     </g>
     <g id="text_14">
      <!-- 14000 -->
      <g transform="translate(29.825000000000003 66.15588157894734)scale(0.12 -0.12)">
       <use xlink:href="#BitstreamVeraSans-Roman-31"/>
       <use x="63.623046875" xlink:href="#BitstreamVeraSans-Roman-34"/>
       <use x="127.24609375" xlink:href="#BitstreamVeraSans-Roman-30"/>
       <use x="190.869140625" xlink:href="#BitstreamVeraSans-Roman-30"/>
       <use x="254.4921875" xlink:href="#BitstreamVeraSans-Roman-30"/>
      </g>
     </g>
    </g>
   </g>
  </g>
 </g>
 <defs>
  <clipPath id="p6e79a05991">
   <rect height="345.6" width="446.4" x="72.0" y="43.19999999999999"/>
  </clipPath>
 </defs>
</svg>
